<svg xmlns="http://www.w3.org/2000/svg" viewBox="0 0 800 600" role="img" aria-label="Facebook page vs website placeholder">
  <defs>
    <linearGradient id="bg2" x1="0" y1="0" x2="1" y2="1">
      <stop offset="0" stop-color="#e4dfd6"/>
      <stop offset="1" stop-color="#f3efe8"/>
    </linearGradient>
  </defs>
  <rect width="800" height="600" fill="url(#bg2)"/>
  <rect x="60" y="120" width="320" height="360" rx="16" fill="#d1cbc0"/>
  <rect x="80" y="140" width="280" height="40" rx="6" fill="#a39e93"/>
  <rect x="80" y="196" width="280" height="100" rx="6" fill="#f3efe8"/>
  <rect x="80" y="310" width="280" height="8" rx="3" fill="#a39e93"/>
  <rect x="80" y="324" width="220" height="8" rx="3" fill="#a39e93"/>
  <rect x="80" y="338" width="240" height="8" rx="3" fill="#a39e93"/>
  <rect x="80" y="400" width="80" height="60" rx="6" fill="#f3efe8"/>
  <rect x="170" y="400" width="80" height="60" rx="6" fill="#f3efe8"/>
  <rect x="260" y="400" width="100" height="60" rx="6" fill="#f3efe8"/>
  <rect x="420" y="120" width="320" height="360" rx="16" fill="#1c1917"/>
  <rect x="440" y="140" width="280" height="40" rx="6" fill="#4a7c0f"/>
  <rect x="440" y="196" width="280" height="120" rx="6" fill="#292524"/>
  <rect x="440" y="330" width="280" height="8" rx="3" fill="#544f47"/>
  <rect x="440" y="344" width="220" height="8" rx="3" fill="#544f47"/>
  <rect x="440" y="358" width="240" height="8" rx="3" fill="#544f47"/>
  <rect x="440" y="400" width="120" height="60" rx="8" fill="#4a7c0f"/>
  <text x="400" y="545" font-family="system-ui, sans-serif" font-size="18" fill="#756f65" text-anchor="middle">Placeholder — rented vs. owned</text>
</svg>
