<?xml version="1.0" encoding="UTF-8"?>
<svg id="Layer_2" data-name="Layer 2" xmlns="http://www.w3.org/2000/svg" viewBox="0 0 161.13 55.78">
  <defs>
    <style>
      .cls-1 {
        fill: none;
      }

      .cls-2 {
        fill: #275b0c;
      }

      .cls-3 {
        fill: #10472f;
      }

      .cls-4 {
        fill: #edf2e9;
      }

      .cls-5 {
        fill: #10482f;
      }

      .cls-6 {
        fill: #05381e;
      }

      .cls-7 {
        fill: #fcfdfc;
      }

      .cls-8 {
        fill: #113e28;
      }

      .cls-9 {
        fill: #fff;
      }

      .cls-10 {
        fill: #327149;
      }

      .cls-11 {
        fill: #2a6844;
      }

      .cls-12 {
        fill: #174932;
      }

      .cls-13 {
        fill: #e6af2e;
      }

      .cls-14 {
        fill: #8eaf3e;
      }

      .cls-15 {
        fill: #468920;
      }

      .cls-16 {
        fill: #f3f7f4;
      }

      .cls-17 {
        fill: #9b7f42;
      }

      .cls-18 {
        fill: #2f6d46;
      }
    </style>
  </defs>
  <g id="Layer_2-2" data-name="Layer 2">
    <g>
      <g>
        <path class="cls-15" d="M116.09,14.16h-3.66l.1-.47c.18-.08.36-.15.53-.21.17-.06.35-.11.54-.15l1.08-5.2.37-1.45h-.1l-.68,1.33-3.68,6.15h-.55l-1.1-6.1-.15-1.45h-.11l-.32,1.58-1.06,5.1c.15.03.31.09.49.16.18.07.33.16.47.25l-.1.47h-2.99l.09-.47c.14-.07.32-.16.53-.24.21-.09.41-.15.6-.18l1.45-6.97c-.16-.03-.33-.08-.5-.14-.17-.06-.31-.13-.44-.22l.1-.47h3.33l.78,5.06.1,1.19h.01l.58-1.22,3.03-5.03h3.08l-.1.47c-.15.09-.31.17-.49.22-.18.06-.35.1-.52.14l-1.47,7.05c.16.03.32.08.47.15.15.07.27.13.38.2l-.1.47Z"/>
        <path class="cls-15" d="M121.02,12.19c-.11.27-.24.52-.4.78-.16.25-.34.48-.55.68-.2.2-.43.36-.68.48-.25.12-.51.19-.8.19-.43,0-.77-.16-1.02-.47-.25-.31-.38-.78-.38-1.4s.09-1.25.26-1.81c.18-.56.43-1.05.75-1.47.32-.42.71-.75,1.17-.98.46-.24.97-.35,1.54-.35.21,0,.4.02.55.07.15.05.31.11.49.19.21-.08.44-.14.69-.19.25-.04.54-.06.88-.06l-1.03,5.44h.86v.43c-.08.07-.19.14-.33.2-.14.07-.28.13-.44.18-.16.05-.32.09-.49.13-.17.03-.33.05-.47.05-.29,0-.49-.06-.61-.19s-.18-.25-.18-.39c0-.15.02-.35.06-.59.04-.24.1-.55.18-.93h-.05ZM119.5,13.32c.16,0,.32-.07.49-.21.17-.14.33-.32.48-.53.15-.21.29-.44.42-.7.13-.25.24-.49.33-.7l.45-2.46c-.1-.07-.19-.11-.28-.14-.09-.03-.2-.04-.34-.04-.33,0-.62.11-.88.33-.26.22-.48.51-.66.86-.18.35-.32.75-.41,1.19-.09.44-.14.88-.14,1.32,0,.38.04.66.14.83.09.17.23.26.42.26Z"/>
        <path class="cls-15" d="M127.95,12.19c-.12.29-.27.56-.44.82-.17.26-.35.48-.55.67-.2.19-.42.34-.66.46-.24.12-.49.17-.75.17-.42,0-.76-.16-1.03-.48-.27-.32-.4-.81-.4-1.47,0-.59.08-1.15.24-1.7.16-.54.39-1.02.7-1.44.31-.42.68-.75,1.13-1.01.45-.25.96-.38,1.53-.38.27,0,.47.02.6.05.13.03.26.08.4.15l.42-2.19-.85-.16v-.42c.12-.05.29-.1.5-.15.21-.05.44-.1.68-.14.24-.04.48-.08.71-.11.23-.03.42-.05.57-.06l.25.14-1.59,8.33h.88v.43c-.08.07-.19.14-.33.2-.14.07-.28.13-.44.18-.16.05-.33.09-.5.13-.17.03-.33.05-.48.05-.29,0-.49-.07-.61-.2-.12-.13-.18-.27-.18-.41s.02-.34.06-.61c.04-.27.1-.55.17-.87h-.05ZM126.42,13.32c.17,0,.34-.07.51-.22.17-.14.33-.33.48-.54.15-.22.29-.45.42-.7.13-.25.24-.48.33-.68l.44-2.45c-.11-.07-.21-.11-.3-.14-.09-.03-.21-.04-.34-.04-.31,0-.6.11-.85.32-.26.21-.48.49-.66.83-.18.34-.32.74-.42,1.18-.1.44-.15.9-.15,1.36,0,.72.18,1.08.54,1.08Z"/>
        <path class="cls-15" d="M136.05,12.81c-.09.17-.22.34-.39.52-.17.18-.37.34-.6.48-.23.15-.48.27-.76.36-.28.1-.57.14-.87.14-.73,0-1.3-.2-1.7-.6-.41-.4-.61-.97-.61-1.71,0-.57.09-1.11.27-1.62.18-.51.43-.95.76-1.34.32-.39.71-.69,1.16-.91.45-.22.94-.34,1.47-.34.49,0,.9.11,1.22.34.32.23.48.54.48.94,0,.56-.28,1.03-.83,1.39-.55.36-1.45.59-2.69.68-.02.12-.04.23-.06.35-.01.12-.02.23-.02.34,0,.47.12.83.36,1.09.24.25.54.38.91.38.16,0,.31-.02.47-.07s.31-.12.45-.2c.14-.08.28-.17.39-.27.12-.1.22-.19.31-.28l.3.31ZM134.49,8.51c-.28,0-.55.15-.81.46-.26.31-.48.82-.65,1.55.61-.02,1.11-.15,1.49-.41.38-.26.57-.59.57-1.01,0-.17-.04-.31-.13-.42-.09-.12-.24-.17-.45-.17Z"/>
        <path class="cls-15" d="M140.62,8.67v-.42c.12-.05.29-.1.49-.16.2-.05.42-.1.65-.14.23-.04.46-.08.68-.11.23-.03.42-.04.6-.04l.22.15-1.11,5.33h.86v.43c-.11.08-.23.15-.37.22-.14.07-.29.13-.45.18-.16.05-.32.09-.49.12-.16.03-.32.04-.47.04-.31,0-.53-.06-.65-.18-.12-.12-.18-.25-.18-.39,0-.17.01-.33.04-.48.02-.16.06-.33.1-.52l.84-3.85-.76-.17ZM141.66,5.87c0-.28.09-.5.28-.66.19-.16.43-.24.71-.24.31,0,.56.08.74.24.18.16.28.38.28.66,0,.27-.09.48-.28.63-.18.16-.43.24-.74.24-.29,0-.52-.08-.71-.24-.19-.16-.28-.37-.28-.63Z"/>
        <path class="cls-15" d="M148.33,10.62c.06-.26.11-.48.15-.68.04-.2.07-.41.07-.62,0-.14-.03-.26-.09-.37-.06-.1-.17-.16-.32-.16s-.31.06-.48.18c-.17.12-.33.27-.49.45-.16.18-.3.38-.44.59-.13.22-.24.41-.32.6l-.74,3.55h-1.7l1.06-5.33-.73-.16.02-.42c.11-.06.26-.11.44-.17.18-.05.38-.1.59-.14.21-.04.43-.07.66-.1.23-.02.44-.04.65-.04l.25.15-.38,1.81h.06c.15-.27.32-.53.52-.77.2-.24.41-.45.63-.62.22-.17.45-.31.7-.42.25-.1.5-.16.75-.16.34,0,.61.11.81.33.2.22.29.52.29.89,0,.19-.02.41-.06.65-.04.24-.09.48-.15.72l-.68,2.88h.88v.43c-.08.07-.19.14-.33.2-.14.07-.29.13-.45.18-.16.05-.33.09-.5.13-.17.03-.34.05-.5.05-.28,0-.49-.05-.61-.16s-.19-.23-.19-.37c0-.17.02-.36.06-.56.04-.2.08-.39.12-.57l.43-1.99Z"/>
      </g>
      <path class="cls-14" d="M53.19,37.39l-.45-.54-.82-.97-.46-.55-.71-.84-.56-.66-.17-.2-.6-.72-.24-.28-.37-.45-.37-.45-.32-.39c.12-.13.23-.32.2-.45,0-.04-.03-.1-.06-.15-.04-.08-.11-.15-.16-.2l-.26-.23-.12-.11-.23.18-.13.1v-.12s.05-1.37.05-1.37v-.05s.03-.9.03-.9v-.11s0-.05,0-.05v-.25s0-.26,0-.26v-.1s0-.33,0-.33h-.34s-.11,0-.11,0c.05-.08.1-.15.14-.23.01-.02.02-.04.03-.06.02-.04.04-.07.06-.11,0-.01.01-.03.02-.04.07-.15.13-.29.18-.44,0-.02.01-.04.02-.06.07-.24.12-.48.13-.72.02-.23,0-.45-.03-.68,0-.02,0-.03,0-.05-.01-.06-.02-.11-.04-.17-.08.03-.23.06-.22.02l.05-.15.1-.28.04-.11h0s.01-.04.01-.04l-.03-.02h0s-.35-.17-.35-.17l.19-.02h.04s.01,0,.01,0l.31-.03.07-1.11v-.06s.02-.2.02-.2l.02-.33h0s.01-.22.01-.22v-.21s.01-.04.01-.04v-.02s0-.03,0-.03v-.15s.01-.07.01-.07v-.12s.04-.52.04-.52v-.08s.01-.13.01-.13l.02-.33.04-.66v-.12s.02-.16.02-.16v-.02s.05-.81.05-.81l.03-.46v-.02s.09-1.43.09-1.43v-.09s.03-.48.03-.48v-.02s0-.05,0-.05l.03-.63h0s0-.08,0-.08h0s.02-.31.02-.31l.07-1.09.08-1.35.04-.69.04-.82.09-1.49.07-1.31.15-2.56.07-1.24.09-1.43c.03-.49.08-.97,0-1.46-.01-.06-.04-.21-.1-.22l-.28-.04.04-.61-6.21.88c-.2.03-.43.25-.57.35l-.69.57-.46-.17c-.4-.14-.73-.01-1.01.26l-.96.93-.73.73c-.25.25-.54.38-.9.42,0,0-.02,0-.03,0-.84.09-1.14-.02-1.62-.78-.78,1.14-1.77,2.07-2.91,2.8-.02.01-.04.02-.06.03,0,0-.02.01-.03.02-.21-.22-.42-.39-.67-.48-.27-.1-.53.05-.71.2-.2-.13-.42-.22-.66-.26-.65-.59-.84.38-1.57.87-.06-.19-.13-.35-.23-.4-.09-.04-.34.04-.38.13-.36.73-.85.45-1.14,1.07-.92-.04-1.49.31-1.94.78-.37.38-.66.84-1,1.21l-.55.59c-.27.3-.39-.06-.79-.14-.04,0-.09-.01-.13-.01-.01,0-.03,0-.04,0-.06-.09-.21-.23-.3-.23-.1,0-.25.1-.35.17-.11-.12-.28-.27-.41-.27-.06,0-.13,0-.2.03-.1.03-.2.07-.26.12-.13.12-.26.24-.38.37-.03.03-.06.06-.09.09h0c-.27.27-.51.55-.78.85-.04.04-.08.09-.12.14-.18.2-.38.43-.62.5-.08.02-.16.02-.24.02h-.06s-.03,0-.05,0c-.11,0-.22.04-.3.17,0,0,0,0,0,0v.02s-.11.33-.11.33h0s-.02.08-.02.08l-.05.15-.03.1-.04.14-.22.27-.16.2h0s-.09.11-.09.11h0s-.07.09-.07.09c-.04.05-.09.12-.13.18-.06.09-.11.19-.18.29-.07.12-.16.23-.26.32l-.5.42-.44.37-.1.09s0,0,0,0l-.3.26-.05.04-.08.07-.28.24-.03.03-.16.13h0s-.18.16-.18.16l-.04.03-.05.04-.64.53-.07.06-.21-.11-.19-.1h-.01c-.26-.14-.47-.25-.71-.49-.08.06-.15.12-.22.19,0,0-.02.02-.03.02-.01,0-.02.02-.03.03,0,0-.01.01-.02.02-.03.03-.06.06-.09.09h0c-.1.11-.19.21-.28.32-.06.07-.11.14-.17.21-.04.05-.09.11-.13.17h-.05s-.03.01-.03.01l-.35.05h0s-.01,0-.02,0c-.03,0-.08.03-.11.05-.04.02-.07.05-.08.07,0,0,0,0,0,0-.09.19.14.49-.1.77,0,.01-.02.02-.03.03-.09.09-.18.17-.27.25-.1.09-.21.17-.32.25-.11.08-.23.16-.35.25l-.03.16-.07.35c-.11,0-.21.02-.3.04h-.01c-.32.09-.52.28-.79.48-.03.03-.07.05-.11.08-.01,0-.03-.01-.04-.02-.42-.17-.82.04-1.1.4,0,0-.02.02-.02.03-.12.17-.22.37-.28.58h0l-.21-.02h-.09s-.11-.02-.11-.02c-.16.27-.33.51-.54.71-.1.1-.2.18-.32.27l-.48.35-.05.03-.03.02c-.47.74-.86,1.49-1.24,2.25l-.6.17c-.17.05-.43.21-.47.38l-.13.7-.89.42c-.24.11-1.17-.18-1.51.76,0,0,0,.01,0,.02-.09.21-.16.42-.2.64-.02.09-.03.19-.04.28-.02.17-.02.33,0,.5-.07.12-.14.24-.18.36-.04.12-.07.24-.09.37-.02.15,0,.3.02.45.03.07.07.14.11.21.1.16.25.3.41.4l1.17.7h.01c.51.31.85.74,1.04,1.3.03.08.06.16.1.23.1.19.23.35.38.49.21.19.47.33.74.4.08.02.17.03.25.04l.25.02.41.03-.07.61-.05.42s.01.03.02.04c.02.03.06.06.1.09.19.12.51.16.64.02.01-.01.03-.03.04-.04.01-.01.02-.02.03-.04.16-.19.26-.39.38-.57,0,0,0,0,.01-.02.11-.16.24-.29.42-.37.09.37.26.68.51.94.02.02.04.05.07.07.11.1.23.19.36.27.73.43,1.11.79,1.42,1.43.05.11.1.22.15.35.05.12.09.25.14.4.06-.04.12-.08.17-.12h0s.02-.01.02-.02c.1-.08.2-.18.31-.3.02-.03.04-.05.07-.08.02.02.04.05.06.07.08.08.16.15.25.22.14.1.3.16.5.16-.05.41,0,.77.16,1.08.08.15.18.3.31.44l.65.68,1.77,1.87.24.24.59.59.3.3.36.36.21.2.9.89.32.32.39.39.66.65.74.73.1.11.19.2.12.13.68.73.04.04h0s.04.05.04.05l.18.21.02.03.21.23,1.33,1.51.17.2.14.15.09.11.96,1.09.04.05.19.22,1.56,1.79.33.38c.11.05.28.06.43.03.09-.02.18-.05.24-.1l.43-.33.33-.12.41-.15.56-.2s.05.04.08.07c.49.39,1.11.54,1.7.34.02,0,.05-.02.07-.03l.24.28.34.39s.06.07.09.1c.14.16.28.31.44.45.19.18.39.34.61.48.39.25.41.62.6.95h0s.06.1.1.14c.08.09.17.18.31.26.05-.04.1-.09.16-.13.01-.01.03-.02.04-.03.31-.22.64-.37,1-.48.1-.03.2-.05.3-.07.06-.01.13-.03.19-.04.06-.01.13-.02.19-.03.02,0,.04,0,.06,0l-.03-.06v-.03s-.18-.35-.18-.35l-.08-.16c-.12-.24-.11-.47-.03-.68.04-.11.11-.22.2-.32.04-.05.08-.09.13-.14l.45-.42.19-.18.36-.34.03-.02c.27-.25.33-.61.4-.97.02-.1.03-.2.05-.3.04-.02.08-.04.12-.07.04-.02.07-.05.11-.07.11-.08.21-.18.3-.29.02-.02.04-.05.05-.08.17-.26.24-.58.13-.9,0,0,0,0,0,0l-.32-.05-.39-.07h-.02s0-.17,0-.17l-.03-1.01.26-.23.09-.08c.12-.11.14-.29.19-.47.01-.05.03-.11.05-.16.01-.03.03-.06.05-.09.01-.02.03-.04.05-.06.02-.03.05-.05.09-.07.02-.01.04-.03.06-.04.02,0,.03-.02.05-.02h.03s.18-.08.18-.08l.1-.04.1-.04h.03s.47-.2.47-.2l.09-.04c.15-.06.45.02.74-.08.18-.06.35-.2.49-.48.03-.01.06-.03.09-.04.18-.08.37-.16.54-.27.03-.02.06-.04.09-.06.04-.03.08-.06.11-.09.36-.31.74-.43,1.18-.55.02,0,.03,0,.05-.02.09-.03.18-.06.26-.1.13-.07.26-.15.36-.25.05-.05.1-.1.15-.15.12-.15.21-.32.26-.52,0-.03.01-.06.02-.09.43-.15.82-.35,1.2-.58.17-.11.35-.22.52-.35.26-.03.48-.12.64-.28.09-.08.16-.19.22-.31.05-.12.09-.25.11-.4.77-.28,1.4-.91,2.19-1.12.49-.13.98-.06,1.28-.63l.75-.44.7.55.7.55-.05.96c.36.03.67.06.88.32l.61.78.32-.58.09-.16.54-1.01.06-.1.09-.16.16-.29.32-.59.33-.6.67-1.22v-.03s-.46-.56-.46-.56Z"/>
      <path class="cls-12" d="M48.47,31.33c.09-.15.14-.32.12-.49-.01-.08-.05-.17-.1-.25-.06-.1-.14-.2-.22-.27l-.56-.5-.06.05.06-1.81.02-1.41h-.24s0,0,0,0c.08-.16.14-.32.19-.47,0-.02.02-.05.02-.07.08-.26.13-.52.14-.78.02-.25,0-.5-.03-.74,0-.02,0-.04-.01-.07-.01-.06-.02-.12-.04-.19l-.07-.28.06-.17h.14s.45-7.56.45-7.56l.07-1.27.09-1.48.47-8.23.07-1.24.09-1.43c0-.08,0-.15.01-.23.03-.42.05-.84-.02-1.29-.02-.1-.07-.42-.34-.46h-.01s.05-.69.05-.69l-6.56.93c-.25.03-.5.24-.66.37l-.62.51-.31-.11c-.46-.17-.92-.06-1.3.32l-.96.93-.73.73c-.2.2-.43.31-.73.34h-.03c-.72.08-.92.04-1.35-.64l-.23-.37-.24.36c-.7,1.03-1.62,1.92-2.73,2.65-.21-.19-.4-.31-.61-.39-.27-.1-.54-.05-.83.13-.16-.08-.33-.15-.51-.18-.18-.15-.36-.22-.54-.2-.33.02-.54.28-.77.56-.09.11-.18.22-.28.32-.06-.08-.13-.15-.22-.2-.23-.11-.65.03-.76.26-.14.29-.29.36-.49.45-.18.09-.39.19-.57.45-1.03,0-1.62.49-1.98.87-.21.22-.4.46-.58.69-.15.19-.28.37-.43.53l-.55.59s0,0,0,0c-.02-.01-.04-.03-.06-.04-.11-.07-.25-.16-.46-.19-.03,0-.06,0-.09-.01-.1-.11-.26-.24-.45-.24-.09,0-.19.03-.31.1-.16-.13-.3-.2-.44-.2-.09,0-.19.01-.28.03-.16.04-.29.1-.38.19-.14.13-.27.25-.39.38h0s-.02.03-.02.03c0,.01-.02.02-.03.03l-.03.03c-.2.2-.38.41-.58.62-.07.08-.14.15-.21.23-.04.04-.08.09-.12.13h0c-.13.16-.32.37-.49.42-.04.01-.09.01-.16,0h-.06s-.05,0-.07,0c-.09,0-.35.02-.52.3v.02s-.29.82-.29.82l-.52.64c-.05.06-.1.13-.15.21-.03.05-.06.1-.09.15-.03.05-.05.09-.08.14-.05.08-.12.18-.2.25l-.97.81h-.19v.16l-1.64,1.37-.27-.14c-.24-.13-.41-.22-.61-.42l-.18-.18-.2.16c-.08.06-.16.13-.23.2-.01.01-.03.02-.04.03,0,0-.02.02-.03.02,0,0-.02.02-.03.02-.03.03-.07.07-.1.1v.02c-.12.1-.21.21-.31.32-.06.07-.12.15-.17.22-.02.03-.04.05-.06.08l-.29.04h-.03s-.03.01-.05.02c-.06.02-.13.05-.19.09-.06.04-.11.08-.15.13l-.02.02-.02.04c-.07.16-.05.31-.03.44.02.16.02.21-.03.28h0c-.08.09-.16.16-.25.24-.1.08-.2.16-.31.24-.1.07-.2.14-.3.21l-.14.1-.08.42s-.08.02-.12.03h-.02c-.32.09-.54.26-.75.43-.04.03-.08.06-.12.09-.47-.13-.96.06-1.32.52-.01.02-.02.03-.03.05-.1.13-.18.28-.24.44l-.37-.03-.09.16c-.15.26-.31.47-.49.65-.09.09-.19.17-.29.25l-.6.44-.03.05c-.44.7-.81,1.39-1.2,2.16l-.48.14c-.24.07-.61.29-.67.61l-.1.55-.75.35s-.12,0-.19.01c-.37,0-1.15.03-1.47.91,0,0,0,0,0,0-.1.23-.17.46-.22.69-.02.1-.03.2-.05.31-.01.15-.02.3-.01.46-.06.11-.12.22-.16.34-.05.14-.09.29-.1.44-.02.18-.01.36.03.55l.02.05c.04.09.09.18.14.26.13.2.31.37.51.49l1.18.7h0c.44.27.74.64.91,1.14.03.09.07.18.12.27.11.22.26.41.45.58.25.23.55.39.86.47.09.02.19.04.3.05l.36.03-.09.81.03.07s.04.07.06.11c.04.06.1.11.17.15.26.16.75.25,1-.03l.08-.09c.11-.14.2-.28.28-.4.04-.07.08-.13.11-.18,0,0,.01-.02.02-.03.01-.02.03-.04.04-.05.11.25.26.48.44.67.03.03.06.06.08.08.12.11.26.22.41.31.71.42,1.03.75,1.3,1.3.05.11.1.22.14.33.04.12.09.24.13.38l.11.36.31-.2c.07-.05.14-.09.2-.14h.01s0-.02.01-.02l.08-.07h0s.08-.08.12-.12c.05.04.09.07.14.1.12.08.23.14.36.17,0,.35.06.67.21.97.09.18.21.35.36.51l2.43,2.55,4.71,4.68,1.08,1.16.05.06.23.26.03.04.2.23,2.68,3.04,1.29,1.48.64.74.23.26.06.03c.11.05.25.07.39.07.18,0,.36-.05.5-.13.02-.01.05-.03.07-.04l.4-.3,1.11-.4c.55.42,1.2.55,1.82.38l.55.63c.16.18.31.33.45.47.22.21.43.38.65.51.19.12.26.28.34.5,0,.02.02.04.03.06.06.15.13.31.26.47h0c.11.13.23.24.39.33l.17.1.16-.13s0,0,0,0c.04-.04.09-.07.14-.11.06-.04.12-.08.18-.12.23-.15.49-.26.77-.34.06-.02.12-.03.18-.05,0-.11.02-.21.04-.31.06-.01.13-.03.19-.04.06-.01.13-.02.19-.03.02,0,.04,0,.06,0l-.03-.06c.05-.1.11-.2.18-.29l-.17-.34-.02-.03c-.07-.15-.08-.29-.02-.44.03-.08.08-.16.15-.24.03-.03.06-.07.11-.11l.08-.08.53-.5.42-.4c.14-.14.24-.29.31-.46.1-.23.14-.48.18-.71,0-.04.01-.08.02-.12,0,0,0,0,.01,0s0,0,0,0c.09-.05.17-.12.25-.18.11-.1.21-.22.29-.34.02-.03.04-.06.05-.09.18-.32.23-.68.13-1.02v-.03s-.1-.19-.1-.19h-.03s-.16-.03-.16-.03l-.36-.06-.09-.02-.03-.81h0s.24-.23.24-.23c.03-.02.05-.05.07-.08.03-.04.06-.09.08-.14.05-.1.07-.2.09-.3.02-.1.04-.19.09-.25,0,0,0,0,0,0,0,0,.01-.02.01-.02.01-.01.02-.02.04-.03.02-.01.03-.02.05-.03l1-.4s.11,0,.17,0c.15,0,.36,0,.57-.07.25-.09.45-.27.6-.53.19-.08.39-.17.57-.28.03-.02.06-.04.09-.06h.01s.09-.07.14-.12c.32-.27.67-.39,1.07-.49.02,0,.04-.01.06-.02.11-.03.21-.07.31-.12.16-.08.3-.18.43-.29.06-.05.12-.12.18-.19.14-.17.24-.37.3-.57.37-.14.74-.32,1.11-.55.16-.1.32-.21.48-.32.29-.05.54-.17.73-.35.11-.11.21-.24.28-.4.04-.1.08-.2.1-.31.31-.13.61-.32.89-.49.37-.23.73-.45,1.11-.55.1-.03.2-.04.31-.06.36-.06.81-.14,1.11-.63l.52-.3,1.13.88-.06,1.09.28.02c.34.03.55.05.68.21l.88,1.12,1.15-2.14,1.62-2.96.11-.2-5.53-6.59ZM32.86,54.51c-.43.12-.8.3-1.13.55-.03-.03-.05-.05-.08-.08-.09-.11-.14-.25-.2-.39-.1-.25-.22-.55-.57-.77-.19-.12-.37-.26-.56-.45-.13-.13-.27-.27-.42-.43l-.81-.92-.25.09c-.48.16-1,.06-1.43-.29-.02-.02-.04-.04-.07-.06l-.13-.11-1.5.54-.47.35c-.06.04-.23.07-.33.05l-1.84-2.11-2.95-3.35-.21-.24-.02-.02-.16-.18-.07-.08-1.1-1.19-4.72-4.69-2.42-2.55c-.11-.11-.2-.24-.26-.37-.13-.26-.18-.56-.13-.91l.04-.32h-.32c-.13,0-.23-.04-.34-.12-.06-.05-.13-.1-.21-.18-.02-.02-.03-.03-.05-.05l-.22-.25-.21.26s-.04.05-.06.07c-.05.06-.1.11-.15.16,0,0,0-.02,0-.02-.05-.12-.1-.24-.16-.37-.32-.67-.72-1.08-1.53-1.56-.12-.07-.22-.15-.31-.23-.02-.02-.04-.03-.06-.06-.21-.22-.35-.48-.43-.81l-.08-.32-.3.12c-.28.11-.44.31-.55.47v.02c-.06.07-.1.14-.14.21-.07.12-.14.23-.24.35l-.04.05s-.16,0-.26-.04l.14-1.19-.95-.08c-.07,0-.14-.02-.21-.04-.22-.06-.44-.17-.62-.33-.13-.12-.24-.26-.32-.41-.03-.06-.06-.13-.08-.19-.22-.64-.6-1.11-1.17-1.45l-1.18-.7c-.12-.07-.23-.18-.32-.32-.03-.04-.06-.09-.08-.13-.02-.12-.03-.23-.01-.34,0-.1.03-.2.07-.3.04-.1.09-.2.15-.31l.05-.08v-.1c-.02-.16-.02-.31,0-.45,0-.1.02-.17.04-.25.04-.19.1-.39.18-.57l.02-.04c.17-.48.5-.53.95-.54.16,0,.3,0,.41-.06l1.02-.49.15-.83s.15-.13.26-.17l.72-.21.06-.11c.39-.78.76-1.49,1.19-2.18l.52-.38c.12-.09.24-.19.35-.3.18-.18.34-.38.49-.62l.24.02h.24s.06-.21.06-.21c.05-.18.13-.34.23-.48l.02-.03c.11-.14.4-.45.78-.3l.17.07.13-.1s.07-.05.11-.08c.05-.04.1-.07.15-.11.19-.15.34-.27.56-.32.07-.02.15-.03.23-.03h.23s.12-.64.12-.64c.09-.06.18-.12.26-.18.12-.09.23-.17.34-.26.1-.08.2-.17.29-.27.02-.02.04-.04.05-.05.23-.27.18-.56.16-.73,0-.02,0-.05-.01-.07,0,0,0,0,0,0l.54-.08.07-.1c.04-.05.08-.1.12-.16.05-.07.11-.14.16-.2.08-.1.17-.2.27-.29v-.02s.07-.05.09-.07c0,0,.01,0,.01-.02l.07-.06s.01-.01.02-.02c.19.15.37.24.55.34l.61.32,3.08-2.58c.14-.12.24-.27.32-.38.03-.05.06-.1.09-.15.03-.05.06-.09.09-.14.04-.06.07-.11.1-.15l.59-.73.27-.82s.02-.01.07-.02h.08c.09,0,.21,0,.32-.03.24-.07.43-.23.59-.4l.81-.9c.06-.06.11-.12.17-.18l.09-.09s.05-.05.08-.08c.12-.12.24-.23.37-.36,0,0,.05-.03.14-.06.04,0,.08-.02.11-.02.03.01.11.07.21.18l.17.19.21-.15c.07-.05.13-.09.16-.1.03.02.06.06.08.09l.09.14h.17s.01-.01.01-.01c.03,0,.06,0,.09,0,.1.02.17.07.26.12.15.09.46.29.79-.07l.55-.59c.16-.18.31-.37.46-.56.17-.22.34-.44.53-.64.5-.52,1.01-.72,1.72-.69h.19s.08-.17.08-.17c.1-.21.21-.26.39-.35.23-.11.5-.24.73-.67.01,0,.02,0,.03-.01.02.04.04.1.07.2l.11.37.32-.22c.29-.19.5-.45.67-.66.13-.15.29-.35.37-.35.03,0,.09.03.18.11l.06.06h.08c.2.05.38.12.55.23l.17.11.16-.13c.26-.22.39-.17.43-.15.18.07.36.2.56.41l.15.15.19-.1s.04-.02.06-.04l.05-.03c1.1-.7,2.02-1.55,2.76-2.54.46.58.88.65,1.65.57.02,0,.03,0,.04,0,.42-.05.77-.22,1.05-.5l.73-.72.96-.93c.3-.29.55-.25.72-.19l.62.22.87-.72c.08-.07.28-.23.37-.25l5.86-.83-.04.52.4.05c.06.38.03.75,0,1.15,0,.08-.01.16-.01.23l-.09,1.43-.07,1.24-.15,2.57-.2,3.62-.19,3.13-.06,1.03-.46,7.68-1.36.12,1.12.53-.17.52.13.13s.08.08.19.09c.03.19.03.37.02.56-.01.22-.05.43-.12.65,0,.01,0,.02-.01.05-.04.13-.1.27-.17.41,0,0,0,.01,0,.02h0s-.03.08-.05.11l-.03.05c-.04.07-.09.15-.13.22l-.3.46h.7s-.11,3.86-.11,3.86l.65-.53.2.18s.08.08.11.14c.01.02.02.03.02.04,0,.04-.05.12-.12.2l-.19.19,5.6,6.66-1.24,2.26-1.04,1.93-.34-.44c-.21-.27-.51-.36-.8-.4l.05-.84-1.68-1.31-.99.58-.04.07c-.16.3-.36.34-.74.41-.12.02-.24.04-.36.07-.46.12-.87.38-1.27.62-.32.2-.62.38-.94.5l-.17.06-.02.18c-.01.11-.04.22-.08.31-.04.09-.09.16-.16.22-.12.11-.28.18-.48.21h-.07s-.06.05-.06.05c-.16.12-.33.23-.5.33-.39.24-.76.42-1.15.55l-.16.05-.03.17s0,.05-.02.08c-.04.15-.1.28-.2.4-.04.05-.08.09-.12.13-.09.08-.19.15-.3.2-.06.03-.14.06-.22.09-.01,0-.02,0-.03.01-.45.12-.88.26-1.29.61-.03.03-.06.05-.09.07h-.01s-.04.04-.07.05c-.15.1-.33.18-.5.25h-.01s-.05.03-.08.04l-.1.04-.05.1c-.11.23-.24.3-.32.33-.12.04-.25.04-.37.04s-.26,0-.37.05l-.99.39h-.02c-.06.03-.12.06-.16.09-.03.02-.06.04-.09.07-.02.02-.03.03-.05.05h0s-.05.06-.07.09c-.1.15-.14.32-.17.45,0,.03-.01.06-.02.09-.01.05-.03.1-.05.12l-.45.41.05,1.55.28.05h.08s.41.08.41.08c.02.2-.06.38-.13.5-.04.07-.1.13-.16.19-.06.06-.13.11-.21.16-.03.02-.06.04-.09.05l-.13.06-.03.14c-.02.09-.03.18-.05.27-.06.33-.11.65-.32.84l-.17.16-.85.81c-.06.06-.11.11-.15.16-.11.13-.19.26-.24.39-.12.3-.11.62.04.92l.11.24c-.14.03-.27.06-.4.1Z"/>
      <g>
        <path class="cls-1" d="M51.13,20.96c-.26.19.33.36.47.46,1.51.77,2.15,2.85.98,4.09-.23.26-.66.57-1,.5-.3-.1-.17-.53-.19-.79.02-.93-.87.29-1.47-.05-.37-.22-.13-.78-.24-1.13-.39-1.17-2.42-.72-3.37-.33-.56.22-1.41.56-1.87.78-.09.05-.21.08-.25.17-.03.1.44.13.87.23.23.05.45.11.67.16.89.26,1.23-.49,1.82-.37.41.19.37,1.03.1,1.4-.16.36-.77.57-.61.99.27.45.81.84,1.22,1.09.85.55,1.89-.3,2.01.36.04,1.1-1.2,1.75-2.2,1.77-.31.01-.62.06-.78.35-.39,1.07-1.2,2.06-2.38,2.23-.33.06-1,.04-.99-.41.02-.36.58-.77.33-1.15-.27-.21-.94-.1-1.31-.35-.36-.16-.91-.79-.47-1.13.22-.14.66-.11.94-.3.87-.62.25-2-.54-2.43-1.25-.76-2.82-.41-4.12.06-1.37.49-2.57,1.24-3.71,2.14-.53.42-1.57.44-2.21.42-.37,0-1.28-.04-1.16-.46.22-.77.15-.79.31-1.16.18-.41.2-.81.07-1.25-.15-.51-.47-.93-.58-1.44-.16-.71-.16-1.65.35-2.2.98-.76.27,1.53,1.72,1.83.74.12.71.41.69,1.07,0,.78.94.23,1.29-.04,1.98-1.48,2.29-3.97-.34-4.59-1.19-.53.21-1.17-.02-1.62-.08-.17-.38-.34-.61-.55-.29-.26-.53-.58-.63-.96-.24-1.16.44-.78,1.18-.7.58.05.65-.6.86-.99.5-.7,1.44.04,1.85.5.22.25.37.57.56.71.42.29,1.01-.24,1.52-.11.37.05.64.26.55.63-.18.53-.48.96-.35,1.6.25,1.16.31,2.33-.12,3.43-.09.27-.31.79.2.55,3.34-1.61,4.59-6.56,1.47-8.97-.38-.27-.8-.46-1.26-.57-.32-.08-.76-.21-.71-.6.14-.69.94-.98,1.61-1.01.96-.04.09-.88-.31-1.08-.8-.43-1.67-.82-2.15-1.61-.16-.29-.32-.76,0-.99.5-.27,1.53.31,1.56-.6.04-.4-.24-.89-.03-1.27.41-.43,1.28,0,1.73.29.96.76.73.19,1.57.15.95.33,1.29,1.57,1.22,2.53-.06.61-.07.76.51.43.61-.33,1.35-.5,1.99-.29.27.08.6.29.53.61-.04.22-.21.41-.33.59-.31.45-.53.96-.78,1.45-.24.53.54.26.87.4.71.2.65.71.13,1.14-.37.35-.68.76-.88,1.23-.35.82-.47,1.96-.68,2.88-.11.57-.22,1.05-.42,1.63-.11.32-.24.63-.38.94-.15.31-.2.59.23.32,2.84-1.81.33-2.83,2.27-3.01.3-.15.04-.67.06-.95,0-.47-.09-1.28.31-1.52.36-.12.83.29,1.11-.11.34-.4.08-1.43.59-1.53.3,0,.56.24.77.44.41.41.75.98.93,1.47.06.14.11.33.2.43.1.11.24.06.38.02.5-.22.79.07,1.14.41.26.25.69.19.88.52.21.4.13.9-.08,1.28-.62,1.11-2.02,1.51-3.1,1.92h0Z"/>
        <path class="cls-1" d="M40.85,7.1c.42,0,.94.27,1.25.47.38.3.57.39.72.39.23,0,.34-.22.85-.24.95.33,1.29,1.57,1.22,2.53-.04.4-.06.6.09.6.08,0,.21-.06.41-.17.42-.23.91-.38,1.39-.38.2,0,.41.03.6.09.27.08.6.29.53.61-.04.22-.21.41-.33.59-.31.45-.53.96-.78,1.45-.16.35.12.35.42.35h.03c.15,0,.31,0,.42.05.71.2.65.71.13,1.14-.37.35-.68.76-.88,1.23-.35.82-.47,1.96-.68,2.88-.11.57-.22,1.05-.42,1.63-.11.32-.24.63-.38.94-.1.22-.16.43-.03.43.05,0,.14-.03.26-.11,2.84-1.81.33-2.83,2.27-3.01.3-.15.04-.67.06-.95,0-.47-.09-1.28.31-1.52.05-.02.1-.02.16-.02.2,0,.42.09.61.09.13,0,.25-.04.34-.18.34-.4.08-1.43.59-1.53h0c.29,0,.55.24.76.44.41.41.75.98.93,1.47.06.14.11.33.2.43.05.05.1.07.16.07.07,0,.14-.02.22-.05.12-.05.23-.08.33-.08.32,0,.54.23.81.49.26.25.69.19.88.52.21.4.13.9-.08,1.28-.62,1.11-2.02,1.51-3.1,1.92h0c-.26.19.33.37.47.46,1.51.77,2.15,2.85.98,4.09-.21.23-.58.51-.9.51-.03,0-.07,0-.1,0-.3-.1-.17-.53-.19-.79,0-.27-.07-.36-.18-.36-.24,0-.66.37-1.04.37-.08,0-.17-.02-.24-.06-.37-.22-.13-.78-.24-1.13-.19-.56-.76-.75-1.4-.75-.69,0-1.48.22-1.96.42-.56.22-1.41.56-1.87.78-.09.05-.21.08-.25.17-.03.1.44.13.87.23.23.05.45.11.67.16.14.04.26.06.37.06.58,0,.89-.44,1.33-.44.04,0,.08,0,.12.01.41.19.37,1.03.1,1.4-.16.36-.77.57-.61.99.27.45.81.84,1.22,1.09.24.15.49.2.73.2.36,0,.7-.1.94-.1.18,0,.31.06.34.26.04,1.1-1.2,1.75-2.2,1.77-.31.01-.62.06-.78.35-.39,1.07-1.2,2.06-2.38,2.23-.08.01-.19.03-.29.03-.33,0-.71-.09-.7-.43.02-.36.58-.77.33-1.15-.27-.21-.94-.1-1.31-.35-.36-.16-.91-.79-.47-1.13.22-.14.66-.11.94-.3.87-.61.25-2-.54-2.43-.53-.32-1.11-.44-1.71-.44-.82,0-1.66.23-2.41.5-1.37.49-2.57,1.24-3.71,2.14-.47.37-1.33.43-1.97.43-.08,0-.16,0-.24,0-.37,0-1.28-.04-1.16-.46.22-.77.15-.79.31-1.16.18-.41.2-.81.08-1.25-.15-.51-.47-.93-.58-1.44-.16-.71-.16-1.65.35-2.2.14-.11.24-.15.32-.15.5,0,.15,1.73,1.4,1.99.74.12.71.41.69,1.07,0,.3.14.4.33.4.31,0,.75-.28.97-.44,1.98-1.48,2.29-3.97-.34-4.59-1.19-.53.21-1.17-.02-1.62-.08-.17-.38-.34-.61-.55-.29-.26-.53-.58-.63-.96-.14-.66.02-.82.33-.82.23,0,.54.09.85.12.02,0,.04,0,.06,0,.52,0,.59-.62.8-.99.15-.21.33-.29.53-.29.48,0,1.03.46,1.31.78.22.25.37.57.56.71.09.06.19.09.3.09.32,0,.69-.21,1.04-.21.06,0,.12,0,.18.02.37.05.64.26.55.63-.18.53-.48.96-.35,1.6.25,1.16.31,2.33-.12,3.43-.08.22-.24.61,0,.61.05,0,.12-.02.21-.06,3.34-1.61,4.59-6.56,1.47-8.97-.38-.27-.8-.46-1.26-.57-.32-.08-.76-.21-.71-.6.14-.69.94-.98,1.61-1.01.96-.04.09-.88-.31-1.08-.8-.43-1.67-.82-2.15-1.61-.16-.29-.32-.76,0-.99.12-.06.26-.08.42-.08.17,0,.35.02.52.02.33,0,.61-.08.62-.54.04-.4-.24-.89-.03-1.27.13-.13.29-.18.48-.18M40.85,6.47c-.47,0-.77.21-.94.38l-.06.06-.04.07c-.24.43-.15.87-.09,1.2.02.1.04.21.04.29-.07,0-.15,0-.22,0-.1,0-.2-.01-.3-.01-.18,0-.46.02-.71.15l-.04.02-.03.03c-.52.37-.58,1.08-.18,1.81.53.87,1.38,1.31,2.13,1.71l.24.13c-.72.17-1.42.61-1.58,1.43-.06.49.1,1.07,1.17,1.34.39.09.74.25,1.04.47,1.12.87,1.66,2.18,1.51,3.7-.15,1.42-.89,2.75-1.97,3.62.18-.87.15-1.84-.1-2.97-.06-.28.02-.5.18-.88.05-.12.1-.25.15-.38.09-.37.04-.68-.13-.93-.19-.27-.5-.46-.89-.52-.1-.02-.2-.03-.3-.03-.27,0-.51.07-.72.14-.09.03-.2.06-.28.07-.04-.05-.09-.12-.13-.18-.09-.14-.19-.28-.31-.4-.2-.23-.94-.99-1.78-.99-.42,0-.79.2-1.05.55l-.02.03-.02.03c-.06.12-.12.25-.17.39-.03.08-.08.21-.12.28-.11-.01-.21-.03-.31-.05-.18-.03-.37-.07-.56-.07-.42,0-.66.19-.78.34-.3.36-.24.85-.16,1.24.13.49.41.93.83,1.3.09.08.2.17.3.24,0,0,.02.01.03.02,0,0,0,.01-.01.02-.19.26-.48.67-.34,1.17.14.52.66.75.83.83l.05.02h.06c.55.14,1.25.44,1.39,1.12.15.73-.36,1.68-1.28,2.37-.1.07-.2.14-.29.18-.02-.55-.17-1.16-1.22-1.33-.29-.06-.4-.29-.55-.91-.1-.41-.26-1.09-.95-1.09-.31,0-.55.16-.71.28l-.04.03-.04.04c-.81.88-.62,2.23-.5,2.77.08.35.23.66.36.92.1.2.19.38.24.56.09.3.07.55-.04.81-.12.26-.15.41-.19.6-.03.13-.07.32-.16.64-.08.26-.03.53.13.74.32.43.97.5,1.62.51h.25c1.12,0,1.87-.18,2.36-.56,1.2-.95,2.36-1.62,3.53-2.04.88-.32,1.58-.47,2.2-.47.54,0,.99.12,1.38.35.35.19.64.64.66,1.01.01.22-.07.31-.16.37-.03.02-.19.05-.29.07-.2.04-.42.08-.62.21-.35.26-.49.61-.45.97.06.54.53,1.03.96,1.24.28.17.61.22.88.26-.11.18-.22.39-.23.65,0,.29.09.54.27.73.3.31.74.37,1.05.37.15,0,.29-.01.41-.04,1.22-.17,2.28-1.13,2.82-2.55.02,0,.08-.02.24-.02.85-.02,1.71-.38,2.23-.95.39-.42.59-.93.57-1.48v-.04s0-.04,0-.04c-.08-.48-.45-.78-.96-.78-.14,0-.3.02-.48.05-.15.02-.31.05-.46.05-.16,0-.28-.03-.38-.1-.37-.22-.67-.46-.87-.69.01-.01.02-.02.03-.03.14-.13.32-.29.44-.52.26-.4.36-1.03.23-1.51-.1-.36-.31-.64-.61-.78l-.07-.03h-.07c-.08-.03-.16-.04-.24-.04,0,0-.02,0-.02,0,.29-.06.59-.11.87-.11.46,0,.73.11.81.32,0,.02,0,.14,0,.22-.01.32-.04.93.52,1.25.17.1.36.15.56.15.21,0,.41-.06.59-.13.03.31.15.71.62.87h.04s.04.02.04.02c.07.01.15.02.22.02.66,0,1.21-.55,1.37-.72.62-.66.88-1.58.72-2.52-.15-.89-.67-1.71-1.39-2.24.91-.36,1.87-.87,2.41-1.82.34-.62.37-1.34.09-1.88-.25-.41-.6-.53-.83-.61-.06-.02-.15-.05-.18-.07-.32-.31-.69-.66-1.25-.66-.1,0-.21.01-.32.04,0,0,0-.02-.01-.03-.21-.58-.61-1.21-1.06-1.67-.25-.24-.65-.63-1.21-.63h-.12c-.74.15-.83.92-.88,1.33-.01.1-.03.26-.06.35-.02,0-.03,0-.04,0-.12-.03-.28-.06-.44-.06-.13,0-.25.02-.36.06l-.06.02-.06.03c-.67.4-.64,1.3-.62,1.9v.17c0,.11.02.25.05.39-.17.04-.32.1-.44.17.02-.1.04-.19.05-.29.12-.66.24-1.33.46-1.84.16-.38.41-.72.73-1.02.45-.37.67-.86.57-1.31-.05-.24-.24-.68-.93-.88-.08-.03-.16-.05-.24-.06.15-.3.29-.58.47-.84l.06-.09c.13-.19.3-.42.36-.73.13-.59-.26-1.13-.96-1.34-.24-.08-.5-.12-.78-.12-.48,0-.91.12-1.26.26-.03-1.15-.53-2.41-1.65-2.8l-.11-.04h-.12c-.42.02-.68.14-.84.22-.04-.03-.15-.1-.32-.23-.37-.25-1.02-.61-1.64-.61h0ZM46.11,24.46c.15-.06.3-.12.43-.17.04-.02.08-.03.12-.05-.03.02-.06.03-.09.05-.2.11-.32.17-.46.17h0Z"/>
      </g>
      <g>
        <path class="cls-1" d="M27.89,28.55c.63.91.28,1.17-.72,1.38-.79.17-1.62-.09-2.33-.49s-1.34-.92-2.04-1.34c-1.46-.88-3.2-1.27-4.89-1.1-.82.08-1.7.34-2.17,1.03-.47.69-.22,1.86.58,2.03.16.03.33.03.47.1.38.21.25.83-.1,1.09s-.81.29-1.2.46c-.1.04-.21.1-.26.21-.17.36.48.59.52.98.04.36-.42.54-.77.53-1.01-.02-2-.59-2.51-1.47-.15-.25-.27-.54-.52-.7-.28-.18-.64-.13-.97-.14-.61-.02-1.2-.29-1.64-.72-.3-.3-.46-.9-.07-1.06.12-.05.25-.03.38-.03.8.05,1.61-.29,2.14-.89.11-.13.21-.27.25-.43.1-.45-.3-.83-.61-1.17s-.54-.93-.18-1.21c.28-.23.69-.06,1.04.05.8.24,1.72.05,2.37-.49-1.01-.47-2.09-.79-3.2-.95-.47-.07-.96-.1-1.41.06s-.84.55-.87,1.03c-.02.33.1.75-.17.93-.42.29-1.19-.41-1.4.06-.12.28.2.68-.04.86-.07.05-.17.06-.26.05-1.08-.11-1.81-1.33-1.67-2.42.14-1.09.95-1.99,1.89-2.54-.78-.24-1.56-.48-2.29-.84-.61-.3-1.24-.78-1.31-1.47-.1-.93.9-1.62,1.81-1.78.19-.03.39-.06.53-.18.2-.17.24-.46.3-.71.14-.6.5-1.15.99-1.51.1-.08.22-.15.35-.15.64-.01.36,1.3.97,1.51.25.09.53-.09.79-.05.47.07.6.69.58,1.17-.02.48,0,1.09.44,1.27.09.04.19.05.28.1.33.16.36.61.43.97.18.87.95,1.59,1.82,1.71-.34-.99-.68-1.98-1.02-2.97-.48-1.38-.98-2.81-2-3.84-.25-.25-.55-.6-.38-.92.23-.44,1.02-.13,1.31-.53-.41-.64-.83-1.28-1.24-1.91-.08-.12-.16-.26-.15-.41.02-.26.31-.41.57-.47.78-.19,1.63-.11,2.36.22-.14-.78-.05-1.6.26-2.32.18-.42.5-.86.95-.86.19,0,.38.08.58.09.5.02.88-.41,1.28-.71s1.08-.43,1.31.02c.24.46-.25,1.14.13,1.5.4.38,1.17-.25,1.57.13.12.12.16.3.16.47-.01.67-.56,1.21-1.12,1.57s-1.19.67-1.56,1.23c-.09.13-.15.32-.05.43.05.06.14.08.22.1.43.08.88.03,1.29.19s.73.66.5,1.04c-.14.23-.43.3-.68.39-1.36.48-2.31,1.84-2.51,3.29-.2,1.44.28,2.93,1.11,4.12.72,1.03,1.78,1.91,3.03,2.02-.55-.96-.82-2.08-.76-3.18.04-.7.18-1.47-.23-2.03-.11-.15-.26-.28-.29-.46-.05-.34.35-.58.69-.58s.68.14,1.02.07c.53-.11.82-.66,1.13-1.1s.9-.84,1.35-.55c.39.26.45.94.9,1.05.44.11.95-.4,1.29-.11.16.14.17.38.14.59-.07.5-.33.98-.7,1.31-.18.16-.41.35-.35.59.06.22.33.29.46.47.21.28.03.7-.26.9s-.64.27-.94.45c-.76.44-1,1.51-.72,2.35.29.84.99,1.47,1.74,1.93.38.23,1,.34,1.14-.08.09-.26-.1-.58.03-.82.11-.21.39-.25.61-.32.51-.17.89-.68.91-1.22.01-.33-.01-.78.31-.85.08-.02.17,0,.25.04.57.23.81.95.76,1.57s-.32,1.2-.48,1.8c-.24.94,0,1.52.53,2.21.01.02.21.35.23.36Z"/>
        <path class="cls-1" d="M16.5,7.37c.23,0,.43.08.54.29.24.46-.25,1.14.13,1.5.1.09.22.13.36.13.27,0,.58-.12.85-.12.14,0,.26.03.36.13.12.12.16.3.16.47-.01.67-.56,1.21-1.12,1.57s-1.19.68-1.56,1.23c-.09.13-.15.32-.05.43.05.06.14.08.22.1.43.08.88.03,1.29.19.41.16.74.66.5,1.04-.14.23-.43.3-.68.39-1.36.48-2.31,1.84-2.51,3.29-.2,1.44.28,2.93,1.11,4.12.72,1.03,1.78,1.91,3.03,2.02-.55-.96-.82-2.08-.76-3.18.04-.7.18-1.47-.23-2.03-.11-.15-.26-.28-.29-.46-.05-.34.35-.58.69-.58h0c.27,0,.54.09.81.09.07,0,.14,0,.21-.02.53-.11.82-.66,1.13-1.1.24-.33.64-.65,1.01-.65.12,0,.23.03.34.1.39.26.45.94.9,1.05.04.01.09.02.13.02.3,0,.62-.21.9-.21.09,0,.18.03.26.09.16.14.17.38.14.59-.07.5-.33.98-.7,1.31-.18.16-.41.35-.35.59.06.22.33.29.46.47.21.28.03.7-.26.9-.28.2-.64.27-.94.45-.76.44-1,1.51-.72,2.35s.99,1.47,1.74,1.93c.19.12.45.2.68.2s.4-.08.47-.28c.09-.26-.1-.58.03-.82.11-.21.39-.25.61-.32.51-.17.89-.68.91-1.22.01-.33-.01-.78.31-.85.02,0,.04,0,.06,0,.06,0,.13.02.19.04.57.23.81.95.76,1.57-.05.62-.32,1.2-.48,1.8-.24.94,0,1.52.53,2.21.01.02.21.35.23.36.63.91.28,1.17-.72,1.38-.17.04-.34.05-.51.05-.63,0-1.26-.23-1.82-.54-.71-.4-1.34-.92-2.04-1.34-1.23-.74-2.67-1.14-4.1-1.14-.26,0-.53.01-.79.04-.82.08-1.7.35-2.16,1.03s-.22,1.86.58,2.03c.16.03.33.03.47.1.38.21.25.83-.1,1.09-.35.26-.81.29-1.2.46-.1.04-.21.1-.26.21-.17.36.48.59.52.98.04.35-.4.53-.76.53,0,0-.01,0-.02,0-1.01-.02-2-.59-2.51-1.47-.15-.25-.27-.54-.52-.7-.28-.18-.64-.13-.97-.14-.61-.02-1.2-.29-1.64-.72-.3-.3-.46-.9-.07-1.06.06-.03.13-.03.2-.03.06,0,.12,0,.18,0,.05,0,.1,0,.15,0,.75,0,1.49-.33,1.99-.9.11-.13.21-.27.25-.43.1-.45-.3-.83-.61-1.17-.31-.34-.54-.93-.18-1.21.1-.08.22-.11.35-.11.22,0,.47.09.69.16.23.07.47.1.72.1.6,0,1.19-.21,1.65-.59-1.01-.47-2.09-.79-3.2-.95-.22-.03-.45-.06-.67-.06-.25,0-.5.03-.74.11-.45.16-.84.55-.87,1.03-.02.33.1.75-.17.93-.08.05-.16.07-.26.07-.29,0-.63-.18-.87-.18-.12,0-.21.04-.27.16-.12.28.2.68-.04.86-.05.04-.12.05-.18.05-.03,0-.05,0-.08,0-1.08-.11-1.81-1.33-1.67-2.42.14-1.09.95-1.99,1.89-2.54-.78-.24-1.56-.48-2.29-.84-.61-.3-1.24-.78-1.31-1.47-.1-.93.9-1.62,1.81-1.78.19-.03.39-.06.53-.18.2-.17.24-.46.3-.71.14-.6.5-1.15.99-1.51.1-.08.22-.15.35-.15,0,0,0,0,.01,0,.63,0,.36,1.31.96,1.51.05.02.1.02.16.02.18,0,.37-.08.56-.08.03,0,.05,0,.08,0,.47.07.6.69.58,1.17-.02.48,0,1.09.44,1.27.09.04.19.05.28.1.33.16.36.61.43.97.18.87.95,1.59,1.82,1.71-.34-.99-.68-1.98-1.02-2.97-.48-1.38-.98-2.81-2-3.84-.25-.25-.55-.6-.38-.92.24-.44,1.02-.13,1.31-.53-.41-.64-.83-1.28-1.24-1.91-.08-.12-.16-.26-.15-.41.02-.26.31-.41.57-.47.28-.07.57-.1.86-.1.52,0,1.03.11,1.51.32-.14-.78-.05-1.6.26-2.32.18-.42.5-.86.95-.86h0c.19,0,.38.08.57.09.01,0,.02,0,.03,0,.48,0,.85-.42,1.24-.71.21-.16.51-.27.77-.27M16.5,6.75c-.39,0-.82.15-1.15.4-.09.07-.18.14-.27.22-.22.18-.44.37-.59.37-.06,0-.12-.02-.17-.03-.12-.03-.26-.06-.43-.06-.66,0-1.21.46-1.54,1.25-.22.53-.35,1.11-.37,1.69-.27-.05-.54-.08-.82-.08-.34,0-.68.04-1.01.12-.62.15-1.01.54-1.04,1.04-.02.36.16.64.25.79l.62.96.18.27c-.31.05-.68.18-.9.58-.4.75.27,1.43.49,1.66.26.27.49.57.69.89-.18-.2-.41-.32-.68-.36-.06,0-.11-.01-.17-.01-.16,0-.3.03-.41.05-.02,0-.04,0-.06.01-.03-.09-.07-.23-.09-.33-.09-.39-.29-1.19-1.11-1.19-.34,0-.58.16-.73.27-.61.45-1.06,1.13-1.23,1.87l-.03.12c-.02.09-.05.23-.08.27,0,0,0,0-.02,0-.03,0-.1.01-.15.02-1.28.22-2.52,1.15-2.38,2.47.08.79.65,1.47,1.65,1.97.4.2.82.36,1.23.51-.66.64-1.07,1.42-1.18,2.23-.1.76.13,1.59.62,2.2.42.53.99.86,1.61.92.05,0,.1,0,.15,0,.21,0,.4-.06.56-.17.31-.23.36-.55.34-.79.14.04.3.07.47.07.23,0,.44-.06.62-.19.48-.34.46-.88.44-1.21,0-.07,0-.14,0-.21.01-.18.21-.39.45-.48.15-.05.32-.08.53-.08.16,0,.34.02.58.05.06,0,.12.02.18.03-.27,0-.5.09-.69.25-.24.19-.39.47-.41.79-.04.52.24,1.03.52,1.33l.08.09c.12.13.4.43.38.53,0,0-.01.05-.11.15-.38.43-.94.68-1.51.68-.04,0-.08,0-.11,0-.1,0-.16-.01-.21-.01-.17,0-.31.03-.45.08-.31.13-.52.4-.59.73-.1.52.16,1.05.46,1.35.54.54,1.29.87,2.05.9.08,0,.16,0,.24,0,.17,0,.35,0,.42.04.06.04.15.19.22.33l.09.16c.62,1.07,1.82,1.77,3.04,1.78h0c.38,0,.86-.12,1.16-.46.19-.22.28-.49.25-.78-.03-.28-.17-.49-.31-.65.02,0,.04-.01.06-.02.3-.08.63-.18.94-.41.38-.28.62-.78.59-1.25-.03-.39-.23-.72-.55-.89-.2-.11-.4-.13-.54-.15-.03,0-.07,0-.1-.01-.14-.03-.21-.16-.26-.26-.1-.26-.08-.59.06-.8.35-.52,1.13-.7,1.71-.76.24-.02.48-.04.72-.04,1.33,0,2.64.36,3.78,1.05.3.18.59.38.88.59.37.26.76.53,1.18.77.74.41,1.46.62,2.13.62.22,0,.43-.02.64-.07.59-.13,1.23-.31,1.46-.88.22-.55-.1-1.1-.35-1.47l-.07-.11c-.08-.13-.17-.27-.18-.28-.49-.62-.58-1.01-.42-1.67.05-.2.12-.4.18-.59.13-.41.27-.84.32-1.31.07-.84-.25-1.84-1.15-2.21-.15-.06-.29-.09-.43-.09h-.06l-.12.02c-.78.15-.8.99-.81,1.34v.1c-.01.28-.22.56-.48.65l-.11.03c-.24.07-.65.18-.86.59-.15.28-.13.54-.1.74-.07-.02-.13-.05-.19-.08-.77-.47-1.27-1-1.47-1.59-.18-.54-.07-1.31.44-1.6.11-.06.22-.1.33-.15.2-.08.43-.17.65-.33.32-.23.54-.59.6-.96.05-.31-.03-.6-.21-.84-.06-.08-.13-.15-.2-.2.5-.46.82-1.05.91-1.7.09-.66-.18-1.01-.36-1.15-.19-.16-.42-.24-.67-.24s-.45.07-.64.14c-.07.02-.16.06-.22.07-.04-.05-.09-.15-.13-.23-.13-.24-.29-.53-.6-.73-.2-.13-.44-.21-.69-.21-.64,0-1.21.47-1.52.91l-.15.22c-.2.29-.4.59-.6.63-.02,0-.05,0-.08,0-.1,0-.21-.02-.31-.04-.16-.03-.33-.05-.49-.05-.42,0-.83.18-1.08.47-.2.24-.29.53-.24.83.05.31.22.52.34.66l.06.08c.21.28.17.76.13,1.28,0,.12-.02.23-.02.34-.04.73.05,1.48.26,2.18-.5-.3-.98-.76-1.39-1.35-.8-1.15-1.17-2.49-1-3.67.18-1.28,1.02-2.4,2.1-2.78l.08-.03c.29-.1.68-.23.92-.62.19-.29.23-.65.11-1-.14-.42-.49-.79-.91-.96-.27-.11-.55-.14-.8-.16.19-.16.42-.3.66-.45.12-.08.25-.15.37-.23.9-.59,1.38-1.31,1.4-2.09,0-.38-.12-.71-.35-.94-.21-.2-.48-.31-.8-.31-.2,0-.39.04-.55.08-.06.01-.11.02-.16.03,0-.05.02-.11.02-.15.05-.3.12-.72-.08-1.11-.21-.4-.61-.63-1.1-.63h0ZM11.49,19.2c-.07-.06-.16-.12-.25-.16-.08-.04-.17-.07-.26-.09-.06-.02-.13-.14-.11-.68.01-.32-.02-.61-.1-.86.29.58.52,1.2.73,1.8h0ZM12.62,25.1c-.05-.01-.1-.02-.15-.04h0c.05.01.1.02.16.04h0Z"/>
      </g>
      <path d="M33.68,42.12l-.02,1.31-.1-.38s-.15.02-.22.08c-.01-.29.01-.62.06-.92l.07.1.08.1.12-.29Z"/>
      <path class="cls-9" d="M33.68,42.12l-.02,1.31-.1-.38s-.15.02-.22.08c-.01-.29.01-.62.06-.92l.07.1.08.1.12-.29Z"/>
      <path class="cls-4" d="M50.89,25.87s-.03.03-.05.04c-.02.02-.04.03-.05.05.03-.03.07-.06.1-.09Z"/>
      <path class="cls-9" d="M43.72,44.63s-.02.03-.04.05c.02-.02.03-.04.04-.05,0-.01.01-.02.02-.03,0,.01-.01.02-.02.03Z"/>
      <path class="cls-1" d="M43.69,44.67s.01-.02.02-.03c0,0,0,0,0-.01,0,0,0-.01,0-.02M43.74,44.6s0,.01,0,.02c0,0,0,.01,0,.02s0,0,0,.01c0,0-.01.02-.02.03,0,0,0,0-.01.01M43.72,44.63s0,0,0,.01c0,0,0,0,0-.01s0-.01,0-.02c0,0,0,.01,0,.02ZM43.35,44.37l.81.82c.05-.05.1-.11.14-.17l.02-.04.02-.04s.02-.04.03-.06l-1.02-.51Z"/>
      <path class="cls-1" d="M34.11,53.87s-.04.11-.06.19c.03-.03.06-.06.09-.09l.04-.21-.08.11ZM39.34,28.51s-.04,0-.06,0c-.03,0-.07,0-.1,0-.04,0-.07,0-.11,0,0,0-.02,0-.02,0-.05,0-.11,0-.16,0,0,0,0,0-.01,0-.03,0-.06,0-.1,0-.01,0-.03,0-.04,0-.05,0-.1,0-.16.01-.05,0-.1,0-.15.02-.05,0-.1.01-.15.02-.05,0-.1.01-.14.02-.05,0-.1.02-.15.03-.05.01-.1.02-.16.03-.03,0-.06.02-.1.02-.03,0-.06.02-.09.03-.09.02-.18.05-.27.08-.05.02-.1.03-.14.05-.09.03-.19.07-.28.12l-.51.23c-.78.35-1.55.73-2.09,1.41l-.55.31h0s-.05-.67-.05-.67v-.04s-.02,0-.03,0c0,0,0,0,0,0-.32-.07-.65-.18-.97-.31-.27-.11-.62-.4-.91-.45-.37-.06-.56.2-.87.47-.06.05-.12.1-.19.13-.07.03-.14.05-.21.06-.25.03-.51.03-.75-.04-.46-.13-.79-.56-1.26-.62,0,0-.02,0-.03,0-.01,0-.02,0-.03,0,0,0,0,0,0,0-.07,0-.15,0-.23,0-.01,0-.03,0-.04,0-.01,0-.02,0-.04,0,0,0,0,0,0,0,0,0-.01,0-.02,0,0,0-.02,0-.02,0-.03,0-.05.02-.08.03-.02,0-.03.01-.05.02-.03.03-.05.07-.08.1,0,0,0,0,0,0-.03.03-.05.06-.08.09h0s-.04.04-.06.06c-.32.31-.75.51-1.2.64-.03,0-.06.02-.09.02-.1.03-.2.05-.3.07,0,0,0,0,0,0,0,0,0,0,0,0,0,0,0,0,0,0v.74s-.72-.62-.72-.62l-.48-.44c-.48-.44-1.14-.8-1.76-1.02-.1-.03-.2-.07-.3-.1-.16-.05-.33-.11-.49-.16-.13-.04-.26-.08-.4-.11-.05-.01-.1-.03-.15-.04-.05-.01-.1-.03-.15-.04-.1-.03-.2-.05-.3-.08-.1-.02-.2-.05-.3-.07-.1-.02-.21-.05-.31-.07-.07-.01-.14-.03-.21-.04-.21-.04-.43-.08-.65-.11l.12,1.13s0,.01,0,.02c.21,1.03.67,2.03,1.41,2.83l.63.52c.23.2.53.32.84.44.99.38,1.94.05,2.2,1.3v.56s-.09.02-.09.02l-1,2.56s-.61,1.99-.61,1.99l-.31,1.33c-.27,1.16-.54,2.29-1.22,3.28-.28.41-1.18,1.56-2.05,2.53-.06.07-.13.15-.19.22-.07.07-.13.14-.2.21l.03.04.2.23,2.68,3.04,1.29,1.48.64.74.68.36c.18,0,.36-.05.5-.13.02-.01.05-.03.07-.04l.4-.3,1.11-.4c.55.42,1.2.55,1.82.38l.55.63c.16.18.31.33.45.47.22.21.43.38.65.51.19.12.26.28.34.5,0,.02.02.04.03.06.06.15.13.31.26.47.29.11.54.21.72.3.04-.04.09-.07.14-.11.06-.04.12-.08.18-.12.23-.15.49-.26.77-.34.06-.02.12-.03.18-.05,0-.11.02-.21.04-.31.06-.01.13-.03.19-.04.06-.01.13-.02.19-.03.01-.02.02-.05.03-.07.05-.1.11-.2.18-.29l-.17-.34s.08-.09.11-.13l.03-.03s0,0,.01-.01l.15-.74.53-.5c.05-.09.1-.18.16-.28l.03-.31.02-.2v-.15s.36-.94.36-.94v.05s.05.25.05.25l.03.2.02.15v.02s.06.34.06.34c.1-.23.14-.48.18-.71,0-.04.01-.08.02-.12,0,0,0,0,.01,0s0,0,0,0c.09-.05.17-.12.25-.18.11-.1.21-.22.29-.34.02-.03.04-.06.05-.09v-.97c-.09-.13-.14-.22-.15-.22v-.05s-.01-.04-.01-.04l-.36-.06v-.04s-.11-.78-.11-.78l.24-.22s.05-.05.07-.08h0s-.08-.61-.08-.61l-.06-.5-.18-1.43v-.04s-.58-1.06-.58-1.06l-.85-1.47-.05-.13c-.18-.45-.34-.94-.42-1.38,0-.04-.01-.07-.02-.11,0,0,0,0,0-.01-.04-.23-.05-.44-.03-.63,0-.02,0-.05,0-.07,0-.04.01-.08.02-.12,0-.02,0-.04.01-.05.01-.04.03-.08.04-.12,0-.02.02-.03.02-.05.01-.03.03-.05.04-.07.01-.02.03-.04.05-.06,0-.01.02-.02.03-.03.01-.01.03-.03.04-.04.01-.01.02-.02.03-.03.02-.02.04-.03.06-.04.01-.01.03-.02.05-.03.02,0,.04-.02.06-.03,0,0,.02,0,.02,0,0,0,.01,0,.02,0,0,0,.02,0,.03-.01,0,0,.02,0,.03,0s.02,0,.03,0c0,0,.01,0,.02,0,.02,0,.04,0,.06,0,.01,0,.02,0,.03,0h.03s.02,0,.03,0c.01,0,.03,0,.04,0h1.19s.06-.02.09-.02c.01,0,.03,0,.05-.01.06-.01.11-.02.16-.04.03,0,.06-.02.1-.03.02,0,.04-.02.06-.02.09-.03.17-.07.25-.12.02,0,.03-.02.05-.03.02-.01.04-.02.06-.04.02-.01.03-.02.05-.04.02-.01.04-.03.05-.04,0,0,0,0,.02-.01.03-.03.06-.05.09-.08.02-.02.03-.03.04-.05.07-.08.13-.16.18-.25.02-.04.04-.07.06-.11.03-.06.05-.12.07-.18,0-.01,0-.03.01-.05,0-.01,0-.02.01-.04.01-.04.02-.08.03-.12.03-.02.05-.04.08-.07.02-.02.05-.05.07-.07.03-.03.05-.06.07-.09.02-.02.04-.05.06-.07,0-.01.02-.03.03-.04,0-.02.02-.03.03-.05,0,0,0-.02.01-.02.02-.03.03-.05.05-.08.01-.02.02-.03.02-.05,0,0,0,0,0,0,.01-.02.02-.04.03-.06.03-.06.04-.11.06-.17.02-.06.03-.11.04-.17,0-.03.01-.06.01-.09,0-.03.01-.06.01-.09,0-.02,0-.05,0-.07,0-.14,0-.28-.01-.43,0-.02,0-.04,0-.05,0-.02,0-.03,0-.05.01-.08.01-.16,0-.24-.02-.2-.11-.39-.27-.51l-2.18-1.69s0-.03-.01-.05v-.03c-.04-.25,0-.61.1-.77.04,0,.09,0,.13,0,.05,0,.11,0,.16-.01.01,0,.02,0,.03,0,.05,0,.1,0,.14-.02.05,0,.1-.02.15-.02.05,0,.1-.02.14-.02.03,0,.06-.01.09-.02.03,0,.06-.02.09-.02.03,0,.06-.01.09-.02.03,0,.07-.02.1-.03.04-.01.08-.02.11-.03.04-.01.08-.02.11-.03.03-.01.07-.02.1-.03.08-.03.16-.06.24-.1.07-.03.13-.06.19-.09.03-.02.06-.03.09-.05.03-.01.05-.03.07-.04.03-.02.07-.04.11-.06.03-.02.06-.04.09-.06.03-.02.06-.04.09-.06.03-.02.05-.04.07-.06.02-.01.03-.02.05-.04.03-.02.06-.05.09-.07.02-.02.04-.03.06-.05,0,0,0,0,0,0,.02-.02.03-.03.05-.05,0,0,0,0,.01,0,.02-.02.04-.04.06-.06.04-.03.07-.07.1-.1.01-.01.03-.03.04-.04l.06-.06s.01-.01.02-.02c0,0,.01-.02.02-.02,0-.01.02-.02.03-.03.04-.04.07-.08.1-.12.04-.05.07-.09.11-.14.04-.05.08-.11.12-.17,0,0,.01-.02.02-.03.03-.05.07-.1.1-.16.03-.05.07-.11.1-.17,0-.01.01-.02.02-.04.02-.04.05-.09.07-.13,0,0,0-.02.01-.02,0-.02.02-.04.03-.05.02-.04.04-.08.06-.11.01-.03.03-.06.04-.09.03-.06.06-.13.08-.19.03-.07.05-.13.08-.2.05-.13.1-.27.14-.41.04-.15.08-.3.12-.45.07-.29.12-.6.16-.91,0-.02,0-.03,0-.05-.05,0-.09,0-.13,0ZM24.77,43.48s0,.02,0,.03c-.02-.11-.03-.25-.02-.32v-.21s.01.07.01.15c0,.11,0,.26,0,.34ZM23.82,46.17s0,.01,0,.02c0,.01,0,.02,0,.03,0-.05-.01-.09-.01-.14,0,.03,0,.05,0,.08ZM36.04,49.27v-.27h0"/>
      <path class="cls-1" d="M24.17,46.14h0s0-.06,0-.08l-.34.03-.35.03c0,.05,0,.11.02.16l.34-.03.34-.03s0-.06,0-.09ZM25.11,43.45c0-.07,0-.22,0-.31,0-.08,0-.15,0-.15l-.34-.02h0l-.35-.02v.21s-.02,0-.02,0c0,.12.01.28.03.39l.34-.05.34-.04v-.03ZM39.42,28.16s-.06,0-.09,0c-.01,0-.02,0-.04,0h-.01s-.07,0-.11,0h-.1s-.03,0-.03,0c-.05,0-.1,0-.16,0-.01,0-.02,0-.03,0-.03,0-.06,0-.09,0-.02,0-.03,0-.05,0-.05,0-.11,0-.16.02-.05,0-.11.01-.15.02-.05,0-.1.01-.14.02h-.04s-.08.02-.13.03l-.15.03c-.05.01-.11.02-.17.04-.02,0-.04,0-.06.01h-.05s-.06.03-.09.04c-.1.02-.19.05-.29.09-.05.02-.1.04-.15.05-.1.04-.2.08-.31.12l-.51.23c-.78.35-1.58.75-2.17,1.46h-.02s-.03-.38-.03-.38l-.22-.07s-.03,0-.04-.01h-.04s-.01-.01-.01-.01c-.29-.07-.59-.16-.89-.29-.28-.11-.56-.25-.83-.41l-.05-.1h-.12s0,0-.01,0c-.01-.01-.03-.02-.05-.03l-.22-.12-.18.18s-.02.02-.03.03c-.06.06-.15.12-.25.19-.05.03-.1.07-.14.1-.12.09-.25.19-.35.32-.31.03-.56.04-.75,0-.07-.01-.12-.03-.17-.05-.02-.02-.04-.03-.05-.04-.05-.03-.09-.07-.14-.1-.04-.03-.08-.06-.12-.09l-.03-.02c-.05-.03-.1-.07-.16-.1-.02-.01-.04-.03-.07-.04-.01,0-.03-.02-.04-.02-.11-.06-.2-.1-.3-.13-.03-.01-.05-.02-.07-.02-.04-.01-.09-.03-.14-.03,0,0-.01,0-.02,0,0,0-.02,0-.02,0h-.03s-.02,0-.02,0c-.1,0-.2,0-.3,0-.02,0-.04,0-.06.01h-.06s-.02.02-.03.02c0,0-.01,0-.02,0-.05.01-.09.03-.11.04-.03.01-.05.02-.08.04l-.06.04-.04.06s-.04.05-.06.08h-.01s-.04.06-.06.08h-.01s-.02.03-.03.04l-.02.02c-.25.24-.62.43-1.06.55-.01,0-.02,0-.04.01h-.04c-.07.03-.16.05-.24.07h-.32s0,.34,0,.34l-.63-.57c-.48-.44-1.16-.84-1.88-1.09-.1-.04-.2-.07-.3-.1-.17-.05-.33-.11-.5-.16-.13-.04-.27-.08-.41-.12-.04-.01-.09-.02-.13-.04l-.07-.02s-.07-.02-.1-.03c-.1-.03-.2-.05-.3-.08-.1-.02-.21-.05-.31-.07l-.08-.02c-.08-.02-.16-.03-.23-.05l-.21-.04c-.23-.04-.44-.08-.66-.11l-.4-.06v.41l.13,1.17v.05c.25,1.16.76,2.2,1.5,3l.66.55c.29.24.65.38.94.5.32.12.63.18.91.23.62.11.93.16,1.07.79v.24s-1.07,2.73-1.07,2.73l-.62,2.01-.31,1.36c-.24,1.03-.51,2.2-1.16,3.16-.29.43-1.62,1.97-2,2.49l.23.23-.15.7c.07-.07.13-.14.2-.21.07-.07.13-.14.2-.22.9-1.01,1.83-2.2,2.1-2.6.73-1.07,1.02-2.31,1.27-3.4l.3-1.32.6-1.96.93-2.37.19-.05v-.82s-.01-.05-.01-.05v-.04c-.24-1.12-.98-1.25-1.64-1.37-.26-.04-.52-.09-.78-.19-.31-.12-.56-.23-.75-.38l-.61-.51c-.64-.7-1.09-1.62-1.3-2.65l-.07-.65c.06.01.12.02.19.03.04,0,.08.02.11.02l.1.02c.07.01.14.03.22.05l.09.02c.1.02.2.04.3.07.1.02.19.05.29.07h.01s.06.02.09.03h.06s.1.04.14.05c.13.03.26.07.39.11.16.05.32.1.48.15.1.03.19.07.29.1.63.22,1.23.57,1.64.95l.49.44,1.27,1.12.02-1.21s.03,0,.04-.01h0s.07-.02.1-.03c.56-.15,1.01-.4,1.36-.73l.02-.02s.03-.03.04-.04c.03-.03.05-.06.08-.09l.04-.03.02-.03s0,0,0,0l.08-.02s.08,0,.12,0h.05s0,0,0,0h.02s.03.01.06.02h.03c.06.03.12.06.19.1,0,0,.02.01.03.02.01,0,.03.02.05.03h.01s.08.06.11.08l.02.02s.07.05.11.08h.01s.08.07.13.1c.02.01.03.02.05.04l.03.02.03.02c.12.07.26.11.41.14.29.05.65.04,1.12-.02l.2-.03.07-.2s.04-.08.22-.2c.04-.03.09-.06.13-.09.05-.04.11-.07.16-.11h.03c.29.17.59.32.9.44.27.11.54.2.81.27l.08,1.05.48-.32.6-.34.04-.05c.5-.63,1.24-.99,1.96-1.31l.51-.23c.09-.04.18-.08.27-.11.04-.02.09-.03.13-.05.09-.03.17-.06.24-.07h.02s.05-.02.08-.03h.03s.05-.02.06-.02c.05-.01.1-.02.14-.03l.14-.03s.07-.01.11-.02h.04s.08-.02.13-.02c.04,0,.08,0,.12-.01h.01s.09-.01.13-.01h.08s.04-.01.06-.01h.05s0,0,0,0c.04,0,.07,0,.1,0h.01c-.03.18-.07.36-.1.53-.03.14-.07.29-.11.43-.05.15-.09.28-.13.39l-.03.09s-.03.08-.04.11c-.02.06-.05.12-.08.18v.02s-.02.04-.03.05h0s-.02.04-.02.06c0,.02-.02.04-.03.05v.02s-.02.02-.02.03c0,.01-.01.03-.02.05-.02.04-.04.08-.06.11v.03c-.05.05-.08.11-.11.16-.03.05-.06.09-.09.14h0s0,.03-.01.03c-.03.05-.07.1-.11.15-.03.05-.06.09-.1.13-.03.03-.05.07-.09.1l-.02.02s-.02.02-.02.02c0,0-.01.01-.01.02l-.1.11s-.06.06-.09.08l-.02.02s-.01.02-.02.02l-.05.04s-.02.01-.02.02l-.03.02s-.02.02-.03.02h-.01s-.04.05-.07.06h-.01s-.14.11-.14.11c-.02.01-.04.02-.05.03l-.09.06s-.06.03-.09.05h-.02s-.03.03-.04.03l-.03.02s-.04.02-.06.03h-.01c-.06.04-.11.06-.17.09-.07.03-.14.06-.21.09h-.02s-.03.02-.05.02h-.03s-.06.03-.09.04h-.02s-.06.03-.09.03l-.12.03s-.03,0-.06.01l-.09.02s-.04,0-.07.01h-.02s-.08.02-.12.02h-.06s-.06.02-.08.02c-.04,0-.08,0-.12.01-.01,0-.03,0-.05,0-.04,0-.09,0-.14.01h-.01s-.07,0-.11,0h-.19s-.1.16-.1.16c-.15.25-.2.71-.15,1v.05s.02.06.03.08l.03.11,2.26,1.76c.07.06.12.16.14.27,0,.05,0,.1,0,.15v.05s0,.06,0,.06c0,0,0,.01,0,.02v.07c.02.13.03.26.02.37,0,.02,0,.05,0,.07,0,.01,0,.02,0,.03v.06s-.01.03-.02.04c-.01.05-.02.09-.04.14,0,.03-.02.07-.03.1l-.05.11-.02.03s-.01.03-.02.04c-.01.02-.02.03-.03.04,0,.01-.01.02-.02.03,0,0-.01.02-.02.02h-.01s-.02.04-.04.06c-.01.02-.03.03-.04.05,0,.01-.02.02-.02.03l-.06.06s-.04.04-.06.06l-.09.08-.02.12s-.01.06-.02.09v.02s-.02.04-.02.06c-.02.05-.03.09-.05.13v.03s-.03.04-.05.07c-.04.06-.08.13-.14.2h0s-.01.02-.02.03h-.01s-.04.05-.06.07c0,0-.02.02-.03.02l-.03.02s-.03.02-.03.03c-.01,0-.02.02-.04.03h-.01s-.03.02-.04.03c-.06.04-.13.07-.2.09l-.04.02s-.01,0-.02,0c-.02,0-.04.01-.07.02h-.02s-.08.03-.13.04l-1.25.02s-.03,0-.05,0c0,0-.01,0-.02,0h-.07s-.02,0-.03,0h-.04s-.02,0-.03.01c-.01,0-.03,0-.04,0-.01,0-.03,0-.05.01l-.06.02s-.01,0-.01,0c0,0-.02,0-.02,0l-.05.02s-.04.02-.06.03c-.03.01-.06.03-.09.05-.03.02-.06.04-.09.06-.02.02-.04.03-.06.04-.02.02-.04.03-.06.05-.02.02-.04.03-.05.05-.03.04-.06.07-.07.1v.02s-.05.06-.08.12c0,.02-.02.03-.02.05-.02.05-.04.1-.06.17,0,.02-.01.04-.01.06-.01.04-.02.09-.03.14,0,.03,0,.06-.01.09-.02.21,0,.44.03.72h0s0,.03,0,.03c0,.04.01.07.02.1,0,.03.01.07.02.1h0c.06.27.14.55.24.86v.02c.05.15.11.31.17.48l.05.13.87,1.5.54,1,.35,2.76.24-.22s.05-.05.07-.08c.03-.04-.34-.17-.32-.22.05-.1.21-.84.23-.93.02-.1.3-.17.34-.23l-.24-1.21v-.1s-.62-1.13-.62-1.13l-.84-1.45-.04-.1c-.2-.5-.33-.94-.4-1.33,0-.03,0-.05-.01-.08h0s0-.07,0-.07h0c-.03-.2-.03-.36-.02-.5,0-.02,0-.03,0-.05,0-.03,0-.05.01-.07v-.03s.01-.02.01-.02c0-.03.02-.05.03-.08v-.02s.02-.02.02-.03c0,0,0-.01.01-.02h0s0-.02.01-.03l.07-.06.04-.02s.01,0,.02-.01l.12-.03s.01,0,.02,0h.05s.02,0,.02,0h1.21s.2-.04.2-.04c.06-.01.13-.02.2-.05.03,0,.07-.02.11-.03l.04-.02s.03-.01.04-.02c.1-.04.21-.09.3-.14.02,0,.04-.02.06-.03.02-.01.04-.03.06-.04h.01s.04-.04.06-.05c.02-.02.04-.03.06-.05l.04-.03s.07-.06.1-.1c.01-.01.02-.02.03-.03l.03-.03c.09-.1.16-.2.22-.31.02-.04.04-.07.06-.11v-.03c.05-.07.07-.14.1-.22v-.03s.01-.01.01-.02v-.02s.01-.03.02-.04c0,0,0-.02,0-.03,0,0,0,0,0,0l.09-.09s.03-.03.04-.05l.03-.04s.03-.04.05-.06l.08-.11s.01-.02.02-.03l.02-.04s.02-.03.03-.05h.01s.08-.18.08-.18c.03-.08.06-.15.08-.2.02-.07.04-.14.05-.21,0-.03.01-.06.02-.1,0-.04.01-.07.01-.1v-.02s0-.03,0-.05v-.02c.01-.15,0-.32-.01-.49,0-.02,0-.04,0-.06h0c.01-.1,0-.19,0-.29-.03-.3-.18-.57-.4-.75l-2.07-1.6c0-.11,0-.23.02-.33.02,0,.05,0,.08,0h.02c.05,0,.1-.01.16-.02.03,0,.07,0,.1-.01h.05c.05-.02.1-.02.15-.03.03,0,.06-.01.09-.02l.1-.02s.08-.02.11-.03l.1-.03s.08-.02.12-.04c.04-.01.09-.03.12-.04h.02s.06-.03.09-.04c.08-.03.16-.06.25-.1.07-.03.14-.07.21-.1.04-.02.07-.04.11-.06h0s.05-.03.07-.05c.04-.02.08-.05.11-.07l.09-.06s.05-.03.07-.05l.04-.03s.03-.02.05-.04l.02-.02s.03-.02.05-.03l.03-.03s.05-.04.07-.06c.03-.02.05-.04.07-.06,0,0,.02-.02.03-.02.02-.02.04-.03.04-.04.02-.02.04-.03.06-.05.04-.03.07-.07.11-.1.02-.02.03-.03.05-.05l.05-.05s.01-.01.02-.02l.03-.03s.02-.02.03-.03c.04-.04.07-.08.11-.13.04-.05.08-.1.12-.15.04-.06.09-.12.13-.18h0s0-.02.01-.03c.04-.05.07-.11.11-.17.04-.06.07-.12.1-.17.01-.02.02-.04.03-.05.02-.04.05-.09.07-.13l.02-.03h0s.02-.04.02-.05c.01-.02.02-.04.03-.07l.03-.07s.02-.05.03-.08c.03-.07.06-.13.09-.2.02-.04.03-.08.05-.12l.03-.09c.05-.13.1-.27.15-.44.04-.16.09-.31.12-.47.07-.29.12-.6.17-.94,0-.02,0-.03,0-.05l.07-.41h-.45ZM36.17,49.22v-.03s-.1-.19-.1-.19h-.03s-.16-.03-.16-.03l-.36-.06.04.3.03.2h.11v1.27c.11-.1.21-.22.29-.34.02-.03.04-.06.05-.09.18-.32.23-.68.13-1.02ZM33.84,54.29l-.17-.34c-.07.07-.13.16-.2.26-.1.15-.19.32-.24.51.06-.01.13-.03.19-.04.06-.01.13-.02.19-.03.02,0,.04,0,.06,0l-.03-.06c.05-.1.11-.2.18-.29ZM34.19,53.76l-.08.11s-.04.11-.06.19c0,.02,0,.04-.01.06.04-.04.07-.07.11-.1l.06-.29-.02.03ZM35.4,50.54l-.05-.33-.11-.76-.03-.16-.05.15-.76,2.11-.04.35-.03.26c-.07.11-.13.22-.18.33-.07.14-.12.29-.15.47l-.02.09.53-.5.42-.4c.14-.14.24-.29.31-.46.1-.23.14-.48.18-.71,0-.04.01-.08.02-.12,0,0,0,0,.01,0s0,0,0,0l-.05-.32ZM31.94,55.26c-.15-.07-.35-.15-.61-.25h0c-.12-.05-.24-.09-.39-.15.06.15.13.31.26.47h0c.11.13.23.24.39.33l.17.1.16-.13s0,0,0,0c.04-.04.09-.07.14-.11.06-.04.12-.08.18-.12-.08-.04-.17-.09-.3-.15ZM25.18,52.87l-.76-.41-.72-.38.64.74.23.26.06.03c.11.05.25.07.39.07.18,0,.36-.05.5-.13l-.34-.18ZM24.17,46.14h0s0-.06,0-.08l-.34.03-.35.03c0,.05,0,.11.02.16l.34-.03.34-.03s0-.06,0-.09ZM25.11,43.45c0-.07,0-.22,0-.31,0-.08,0-.15,0-.15l-.34-.02h0l-.35-.02v.21s-.02,0-.02,0c0,.12.01.28.03.39l.34-.05.34-.04v-.03ZM35.21,49.28l-.05.15h.08s-.03-.15-.03-.15ZM24.17,46.14h0s0-.06,0-.08l-.34.03-.35.03c0,.05,0,.11.02.16l.34-.03.34-.03s0-.06,0-.09ZM25.11,43.45c0-.07,0-.22,0-.31,0-.08,0-.15,0-.15l-.34-.02h0l-.35-.02v.21s-.02,0-.02,0c0,.12.01.28.03.39l.34-.05.34-.04v-.03Z"/>
      <path class="cls-11" d="M31.52,52.58v.14s-.04-.16-.04-.16c.01,0,.03.01.04.02Z"/>
      <path class="cls-7" d="M26.53,50.51s0-.03-.01-.05c0,0,0-.01,0-.02,0-.01,0-.02,0-.03,0,0,0,0,0,0,0,0,0-.01,0-.02-.01-.05-.03-.1-.04-.15,0-.03-.02-.05-.03-.08,0-.03-.02-.05-.03-.08-.02-.06-.04-.12-.06-.18-.03-.07-.05-.13-.08-.2,0-.02-.02-.04-.03-.05-.03-.05-.05-.11-.08-.16-.04-.07-.07-.14-.11-.2-.05-.09-.1-.17-.16-.25,0-.01-.01-.02-.02-.03-.02-.03-.04-.07-.07-.1-.02-.03-.05-.07-.07-.1-.03-.04-.06-.08-.09-.13-.03-.04-.06-.08-.09-.12-.01-.01-.02-.03-.03-.04-.02-.03-.04-.05-.06-.07-.01-.02-.03-.04-.04-.05h0c-.06-.08-.12-.16-.18-.24-.04-.05-.07-.1-.1-.15,0-.01-.02-.02-.02-.03,0-.01-.01-.02-.02-.03,0,0,0-.01-.01-.02-.02-.03-.04-.05-.05-.08,0,0,0-.01-.01-.02-.01-.02-.02-.04-.03-.05,0-.02-.02-.04-.03-.05l-.54-1.15s0-.01,0-.02c0,0,0-.01,0-.02,0,0,0-.02-.01-.02,0,0,0-.01-.01-.02,0,0,0-.01,0-.02,0-.02-.01-.03-.02-.05-.01-.03-.02-.06-.03-.09,0,0,0,0,0,0,0,0,0-.02,0-.03-.01-.03-.02-.06-.03-.1-.03-.1-.05-.2-.06-.3,0-.03,0-.07-.01-.1,0-.03,0-.05-.01-.08,0-.03,0-.05,0-.08,0-.03,0-.05,0-.08v-.17s-.29-.01-.29-.01c0,0-.01,0-.02,0,0,0,0,0,0,0h0s0,0,0,0c0,0,0,0,0,0,0,0,0,.01,0,.02,0,0,0,0,0,0s0,0,0,0,0,0,0,0c0,0,0,.02,0,.02,0,0,0,.02,0,.02,0,0,0,.01,0,.02,0,0,0,0,0,0,0,0,0,0,0,0,0,0,0,.01,0,.02t0,0s0,0,0,.01h0s0,.01,0,.02c0,.02,0,.03,0,.05,0,.01,0,.02,0,.04,0,.01,0,.03,0,.04,0,.03,0,.05,0,.08,0,.02,0,.03,0,.05,0,.05,0,.09,0,.14,0,.04,0,.07,0,.11,0,0,0,.02,0,.03,0,.02,0,.03,0,.05,0,.02,0,.04,0,.06,0,.01,0,.02,0,.03,0,0,0,.02,0,.03,0,0,0,.02,0,.02,0,0,0,0,0,.02,0,0,0,.01,0,.02h0s0,.01,0,.02c0,.01,0,.02,0,.03,0,.03,0,.06.01.1.01.07.02.15.04.22,0,.01,0,.02,0,.03,0,0,0,0,0,0,0,.02,0,.04.01.06,0,.02,0,.03.01.05,0,0,0,.02,0,.02,0,.02,0,.04.01.06,0,.02.01.05.02.07,0,.02.01.03.02.05.02.05.03.1.05.15,0,.02.01.04.02.06.01.03.02.06.03.08.01.03.02.06.04.08l.17.36.2.42s0,0,0,.01c0,0,0,0,0,.01,0,0,0,.01,0,.02,0,0,0,.01,0,.02,0,.01.01.02.02.03.02.03.03.06.05.09.11.17.24.32.37.46l.71.8.85.91h0s0-.02,0-.02ZM31.52,52.58s-.01,0-.02-.01c0,0,0,0-.01,0,0,0,0,0,0,0,0,0,0,0,0,0h0s.03.16.03.16v-.14s.01,0,.01,0ZM32.13,52.67h0s0,0,0,0l.08-.19-.08.18ZM31.78,52.39h0s.05,0,.07,0c-.02,0-.05,0-.07,0ZM31.04,48.12h0s.02.02.04.02c-.01,0-.02-.02-.04-.02ZM25.4,35.74s0,0,0,0h0s0,0,0,0ZM25.4,35.74s0,0,0,0h0s0,0,0,0ZM24.77,43.03h0s0,0,0,0v-.06.05ZM24.79,43.65s0-.02-.01-.04c0,.01,0,.03,0,.04,0,0,0,0,0,0,0,0,0,0,0,0ZM25.57,32.92s-.02-.06-.02-.09c0-.03-.01-.06-.02-.08,0,0,0-.02,0-.02,0,0,0-.01,0-.02,0,0,0-.01,0-.02,0,0,0-.02,0-.02,0,0,0,0,0-.01,0-.02-.01-.05-.02-.07-.02-.06-.03-.11-.05-.16,0-.03-.02-.05-.03-.08-.01-.04-.03-.08-.05-.12,0-.01-.01-.03-.02-.04-.04-.09-.08-.17-.13-.25,0,0,0-.01-.01-.02,0,0-.01-.01-.01-.02,0,0,0-.01-.01-.02,0,0-.01-.02-.02-.03h0s-.75-1.03-.75-1.03c-.07-.05-.15-.1-.22-.15-.04-.03-.08-.05-.12-.07-.02-.01-.04-.02-.06-.03-.02-.01-.04-.02-.06-.03,0,0-.01-.01-.02-.01-.01,0-.02-.02-.04-.02,0,0-.02-.01-.03-.02-.05-.03-.1-.06-.15-.09,0,0-.02-.01-.03-.02-.01,0-.02-.01-.03-.02-.06-.03-.12-.07-.19-.1-.05-.03-.09-.05-.14-.07-.03-.01-.05-.03-.08-.04-.15-.07-.3-.14-.46-.2-.05-.02-.11-.04-.16-.06s-.11-.04-.16-.06c-.05-.02-.11-.03-.16-.05-.06-.02-.11-.03-.17-.05-.01,0-.03,0-.05-.01-.02,0-.05-.01-.07-.02-.02,0-.03,0-.05-.01-.02,0-.04,0-.06-.01-.03,0-.05-.01-.08-.02-.04,0-.08-.02-.12-.02-.09-.02-.19-.03-.29-.04,0,0-.01,0-.02,0-.05,0-.1-.01-.14-.01h0c.13.08.26.16.38.24.49.31.94.59,1.38.89.09.07.19.13.28.2.06.04.11.08.17.12.06.04.12.08.17.13.04.03.09.06.13.1,0,0,0,0,0,0,.04.03.09.07.13.1.05.04.09.07.14.11h0s-.87-.07-.87-.07l.13.28h0s1.16.66,1.16.66l-.66.14.38.15.84.33.59.14h0c-.02-.06-.03-.12-.05-.17ZM25.92,34.23l-.15.08s0,0,0,0c0,0,0,0,0,0,0,0,0,0,0,.02,0,0,0,0,0,0,0,0,0,0,0,0,0,0,0,.01.01.02.01.02.03.04.05.05,0,0,.02,0,.03,0,.01,0,.03,0,.04.01,0,0,0,0,.01,0,0,0,0,0,0,0,0,0,0,0,0,0,.01,0,.02,0,.03.01.01,0,.03.01.03.02l-.07-.25ZM26.25,40.28h-.02s0,0,0,0h.08s-.05,0-.05,0ZM27.15,36.5h0c.02.12.04.23.06.34-.02-.1-.04-.22-.06-.34ZM31.38,35.09s0-.02,0-.03c0-.01,0-.02,0-.04s0-.03,0-.04c0-.03,0-.06,0-.1,0,0,0,0,0,0,0,0,0,0,0,0v-.03s0-.03,0-.04c0-.01,0-.03,0-.04,0,0,0-.02,0-.02,0,0,0-.02,0-.02,0-.01,0-.03,0-.04h0s0-.02,0-.03v-.02s0-.01,0-.02c0,0,0-.01,0-.02,0-.02,0-.03,0-.04,0-.01,0-.02,0-.03,0,0,0,0,0,0,0-.03-.01-.05-.02-.07,0,0,0-.02,0-.02,0,0,0,0,0-.01s0,0,0-.01l-.48-.13s0,0,0,0c0,0,0,0,0,0s0,0,0,0c0,0,0,0,0-.01,0,0,0-.01,0-.02,0-.01,0-.03,0-.05,0,0,0-.02,0-.03,0-.02.01-.04.02-.07,0-.02.01-.05.02-.07.01-.03.02-.06.03-.08,0-.04,0-.07-.01-.11,0-.01,0-.02,0-.03,0-.03,0-.05-.01-.08,0-.03-.01-.05-.02-.08,0-.01,0-.02,0-.03,0,0,0-.01,0-.02,0-.03-.02-.06-.03-.09-.01-.04-.03-.08-.04-.12-.01-.03-.03-.07-.04-.1-.03-.07-.07-.14-.11-.21-.02-.03-.04-.07-.06-.1,0-.01-.02-.03-.03-.04-.01-.02-.03-.04-.04-.05,0,0-.01-.02-.02-.02,0-.01-.02-.02-.02-.03,0-.01-.02-.02-.03-.03,0,0,0-.01-.01-.02,0,0,0,0,0,0,0,0,0,0,0,0,0,0-.01-.02-.02-.03-.01,0-.02-.02-.03-.03-.01-.02-.02-.03-.04-.04-.03-.03-.05-.05-.08-.07-.02-.02-.05-.04-.07-.06-.02-.02-.05-.04-.07-.05-.01,0-.03-.02-.04-.02,0,0-.02-.01-.03-.02-.02,0-.03-.02-.05-.02,0,0,0,0-.01,0,0,0-.02,0-.03-.01,0,0-.01,0-.01,0-.01,0-.02-.01-.03-.02,0,0,0,0,0,0,0,0,0,0,0,0,0,0,0,0,0,0-.03-.01-.06-.02-.09-.03-.01,0-.02,0-.03-.01,0,0,0,0,0,0-.01,0-.03,0-.04-.01,0,0-.01,0-.02,0,0,0-.02,0-.03,0,0,0,0,0-.01,0,0,0,0,0-.01,0-.01,0-.03,0-.04,0s-.03,0-.04,0c0,0,0,0-.01,0,0,0,0,0,0,0,0,0,0,0,0,0,0,0,0,0,0,0-.01,0-.02,0-.03,0,0,0-.01,0-.02,0,0,0,0,0-.01,0-.03,0-.06,0-.08,0-.04,0-.07,0-.11,0h-.05s-.06,0-.09,0c-.02,0-.04,0-.06,0-.03,0-.06,0-.09.01-.03,0-.05,0-.08.02h-.02s-.01,0-.02,0h-.01s0,0,0,0c-.02,0-.03,0-.05.01,0,0,0,0-.01,0-.01,0-.02,0-.03,0-.04,0-.07.02-.1.03-.03.01-.07.02-.1.04-.02,0-.03.02-.05.02-.01,0-.02,0-.03.01-.02,0-.04.02-.06.03-.03.01-.05.03-.08.04-.02,0-.03.02-.05.03-.03.02-.06.04-.09.06,0,0,0,0,0,0-.06.04-.11.08-.15.12-.01,0-.02.02-.03.03-.03.02-.05.05-.06.07-.01.01-.02.03-.03.04-.02.03-.03.05-.04.08,0,0,0,0,0,.01,0,0,0,.02,0,.03h0s0,.03.01.04l.12.17.07.1.13.2.04.06.19.27h0s-.3.16-.3.16c0,.02,0,.03,0,.05,0,0,0,.02,0,.03,0,.03.01.06.02.1,0,0,0,.02,0,.03,0,.01,0,.02,0,.03,0,.04.02.08.03.11v.02s.01.02.02.03c0,.01,0,.02.01.03,0,0,0,.01,0,.02,0,.01.01.02.02.03,0,.01.01.02.02.03.02.05.05.09.08.14.01.02.02.03.03.04.02.03.04.06.07.08,0,0,0,0,0,0,.02.03.05.05.08.08.03.03.06.05.09.07s.06.04.09.07c.02.01.05.03.07.04,0,0,.02,0,.03.01.01,0,.02.01.03.02,0,0,.01,0,.02,0,.02,0,.03.02.05.02.02,0,.04.01.05.02h0s.03,0,.04.01c0,0,.01,0,.02,0,.02,0,.04,0,.06.01.02,0,.05,0,.07.01.01,0,.03,0,.04,0,.01,0,.03,0,.04,0,.01,0,.02,0,.03,0,.01,0,.03,0,.04,0h.04s.01,0,.02,0c0,0,0,0,0,0,0,0,.01,0,.02,0,0,0,.01,0,.02,0,0,0,.02,0,.03,0,.01,0,.03,0,.04,0,0,0,.01,0,.02,0,.03,0,.05,0,.08-.02.03,0,.06-.02.09-.03.02,0,.03-.01.05-.02.04,0,.07-.01.11-.01.02,0,.04,0,.06,0,.02,0,.05,0,.07,0,0,0,.02,0,.03,0,.01,0,.03,0,.04,0,0,0,.01,0,.02,0,.02,0,.03,0,.05,0,0,0,.01,0,.02,0,.02,0,.05,0,.07.01,0,0,.02,0,.03,0,.01,0,.03,0,.04.01.03,0,.06.02.09.03.01,0,.03,0,.04.01,0,0,0,0,.01,0,0,0,.01,0,.02,0,0,0,.01,0,.02,0,.02,0,.03.01.05.02.02,0,.03.01.05.02,0,0,0,0,0,0,0,0,.02,0,.03,0,.01,0,.02,0,.03.01l.88.33h0l-.1-.45ZM32.97,38.12l-.43-.24s0,.03,0,.04c0,0,0,.02,0,.03,0,0,0,0,0,0h0s0,0,0,0c0,0,0,0,0,.01,0,0,0,0,0,0,0,0,0,.01,0,.02,0,0,0,0,0,0,0,0,0,0,0,0h0s0,.01,0,.02h0s0,.02,0,.02c0,0,0,0,0,0,0,.03.02.05.03.08,0,0,0,0,0,.01,0,0,0,0,0,.01,0,0,0,.01.01.02h0s.02.02.03.03c.01,0,.02.01.04.01h.23s.08,0,.08,0h.15s-.19-.1-.19-.1ZM32.51,40.38s0,0,0,0h0s0,0,0,0h0s0,0,0,0h0ZM32.51,40.38h0s0,0,0,0h0ZM32.51,40.82s0-.09,0-.14c0-.02,0-.04,0-.05,0,.07,0,.13,0,.2ZM32.53,40.36s0,0,0,0h0s0,0,0,0h0s0,.08,0,.12c0,0,0,0,0-.01,0-.04,0-.07,0-.11h0ZM32.5,40.39h0s0,0,0,0h0ZM29.66,41.24h0s0,0,0,0h0s0,0,0,0ZM29.65,41.24v.12s-.01,0-.01,0h0s.01-.12.01-.12h0s0,0,0,0ZM29.57,41.98s0,.03,0,.04c0,.02,0,.03,0,.04,0,0,0,.02,0,.03,0,.01,0,.02,0,.03,0,0,0,0,0,.01s0,0,0,.01c0,0,0,.01,0,.01,0,0,0,0,0,.01,0,0,0,0,0,.01,0,0,0,0,.01.01,0,0,.01,0,.02,0h0l-.06-.22ZM28.63,40.26l.2.74h0l-.2-.74ZM28.89,40.98s0,0-.01,0c0,0,0,0,0,0,0,0,.01,0,.02,0,0,0,0,0,0,0ZM26.82,37.36h0s-.16.86-.16.86l-.09.84.09-.84.16-.86h0ZM34.46,32.87s0-.05,0-.08c0-.03,0-.05-.01-.07,0,0,0-.02,0-.03,0-.01,0-.02-.01-.04,0-.02,0-.03-.01-.05,0-.01,0-.02-.01-.04,0,0,0-.02,0-.02,0,0,0,0,0,0,0-.02-.01-.04-.02-.06,0,0,0,0,0-.02s0-.01,0-.02c0,0,0,0,0-.01,0-.02-.02-.04-.03-.05,0,0,0-.01,0-.02l-.15-.02s-.01.03-.02.04c0,.01-.01.02-.02.04,0,0,0,0,0,.01,0,.02-.02.04-.02.06,0,.02-.01.04-.02.06,0,.02-.01.04-.02.06,0,.02-.01.04-.02.06,0,0,0,.01,0,.02-.02.08-.03.15-.03.22,0,.03,0,.05,0,.07,0,0,0,.01,0,.02s0,.01,0,.02c0,0,0,0,0,0h0s0,0,0,0c0,0,0,0,0,0,0,0,0,0,0,.01h0l.19.35.09.16h0c.03-.05.06-.11.08-.16,0-.02.02-.04.02-.06,0-.01.01-.03.01-.04,0,0,0,0,0,0,0-.02.01-.03.01-.05,0-.02,0-.03.01-.04,0,0,0-.01,0-.02,0-.02,0-.05.01-.07,0-.03,0-.06.01-.09,0-.04,0-.08,0-.13h0s0-.02,0-.03ZM36.71,36.07c-.05-.04-.1-.07-.15-.1-.02-.02-.05-.03-.07-.05-.02-.02-.04-.03-.07-.05-.06-.04-.11-.08-.17-.12h0c-.1-.07-.2-.13-.29-.19-.03-.02-.06-.03-.09-.05-.03-.02-.06-.03-.09-.05h0s-.09-.04-.13-.06c-.01,0-.03-.01-.04-.02-.01,0-.03-.01-.04-.01-.01,0-.03,0-.04-.01,0,0-.02,0-.03,0-.02,0-.04-.01-.06-.02-.03,0-.06-.01-.09-.02-.09-.02-.19-.02-.3-.01-.01,0-.02,0-.03,0,0,0-.01,0-.02,0-.01,0-.03,0-.04,0,0,0,0,0,0,0-.01,0-.03,0-.04,0,0,0,0,0-.01,0-.02,0-.03,0-.05,0-.03,0-.07.01-.11.02,0,0-.02,0-.03,0-.01,0-.03,0-.05.01-.06.02-.13.03-.2.05h0s-.04.01-.06.02h0s-.04.02-.06.02c-.02,0-.04.02-.06.03-.02,0-.04.02-.06.03-.02.01-.04.02-.06.03h0s-.01,0-.02.01c0,0,0,0,0,0,0,0,0,0-.01,0,0,0,0,0,0,0,0,0-.01,0-.02.01,0,0,0,0-.01,0,0,0,0,0,0,0,0,0,0,0,0,0h0s0,0,0,0h-.01s0,.01,0,.02c-.02.01-.04.03-.05.04-.02.02-.04.03-.06.05,0,0,0,0,0,0,0,0-.02.02-.03.02h0s-.04.04-.05.06c-.03.03-.06.07-.09.1-.01.02-.03.03-.04.05-.01.02-.03.04-.04.05-.01.02-.03.04-.04.06-.01.02-.03.04-.04.06-.03.04-.05.08-.07.12-.01.02-.02.04-.03.06s-.02.04-.03.06c0,0,0,.01-.01.02,0,0,0,.02-.01.03,0,0,0,0,0,0-.01.02-.02.05-.03.07,0,.02-.02.04-.02.07,0,.02-.01.04-.02.06,0,0,0,0,0,0,0,.02-.01.04-.02.06t0,0s0,.01,0,.02c0,0,0,.01,0,.02,0,.02-.01.04-.01.07,0,.02,0,.04-.01.07,0,0,0,0,0,0,0,.01,0,.02,0,.04h0s0,.05,0,.08c0,.05,0,.09,0,.14,0,.03,0,.05,0,.08h0s-.51.19-.51.19c-.02,0-.05.02-.08.04-.03.02-.05.04-.07.07-.01,0-.02.02-.03.03,0,0,0,0,0,0,0,.01-.02.02-.03.03,0,.01-.01.02-.02.03,0,0,0,.01-.01.02,0,.02-.01.03-.02.05h0s0,0,0,0c0,0,0,0,0,0h0s0,.02,0,.02c.26.12.57.2.9.24.05,0,.1.01.15.02.04,0,.07,0,.11,0,.04,0,.07,0,.11,0,.08,0,.15,0,.23,0,.06,0,.11,0,.17,0,.02,0,.05,0,.07,0h0s.08,0,.12,0c.03,0,.06,0,.08,0,.03,0,.05,0,.08,0,.01,0,.03,0,.04,0,.03,0,.06,0,.08-.01.02,0,.04,0,.05,0h0s.07-.02.1-.02c.05-.01.1-.02.15-.04.03,0,.06-.02.09-.03.07-.02.13-.05.18-.08.01,0,.02-.01.04-.02.02-.01.03-.02.05-.03.03-.02.06-.04.09-.07,0,0,.02-.02.02-.02,0,0,0,0,.01-.02,0,0,0-.01.01-.02,0,0,0-.01.01-.02.06-.08.06-.32.04-.48,0,0,0-.01,0-.02,0,0,0-.01,0-.02,0-.01,0-.02,0-.03,0,0,0,0,0-.01h0s0,0,0,0c0,0,0-.01,0-.02,0,0,0,0,0,0h0s0,0,0,0c0,0,0-.01-.01-.02,0,0,0,0,0,0,0,0,0,0,0,0,0,0,0,0,0,0-.1.06-.21.14-.31.19,0,0-.01,0-.02,0,0,0,0,0-.01,0-.02.01-.05.02-.07.02,0,0-.02,0-.02,0-.01,0-.02,0-.03,0,0,0,0,0-.01,0,0,0,0,0-.01,0l-.33-.29h0s-.01-.02-.02-.03c0,0,0-.01-.01-.02,0,0-.01-.02-.02-.02,0,0-.01-.02-.01-.03,0-.01-.01-.02-.02-.03,0,0,0,0,0,0,0-.01,0-.02-.01-.03,0-.02-.02-.05-.02-.07,0-.01,0-.02,0-.03,0-.04-.02-.09-.02-.13,0,0,0-.01,0-.02,0-.02,0-.04,0-.07,0-.03,0-.06,0-.09,0,0,0,0,0,0,0,0,0-.01,0-.02t0,0s0-.01,0-.02h0s0,0,0,0c0,0,0,0,0-.01,0,0,0,0,0,0,0,0,0,0,0,0,0,0,0,0,0,0,0,0,0-.01.01-.02.01-.02.02-.04.04-.05h0s.01-.01.02-.02c0,0,.02-.02.03-.03.02-.02.04-.03.05-.04.01,0,.02,0,.03-.01,0,0,.01,0,.02,0,.01,0,.02,0,.03,0,.01,0,.03,0,.04,0,.04,0,.08,0,.12,0,.01,0,.03,0,.04,0,0,0,0,0,.01,0,0,0,.02,0,.03,0,.01,0,.03,0,.04,0,0,0,0,0,0,0,.02,0,.04,0,.06.01.02,0,.05.01.07.02.02,0,.04,0,.06.02.03,0,.06.01.09.02.03,0,.06.02.09.02.01,0,.03,0,.04,0,.01,0,.03,0,.04.01.09.02.19.04.29.06.02,0,.05,0,.07,0,.02,0,.03,0,.05,0,0,0,.01,0,.02,0,.01,0,.02,0,.03,0,0,0,.01,0,.02,0t0,0s0,0,0,0t0,0s.02,0,.03,0h.01s.04,0,.06,0c.05,0,.09,0,.14,0,.01,0,.03,0,.04,0h0s.03,0,.04,0h0s.02,0,.03,0c.04,0,.08-.02.12-.03.03,0,.05-.02.08-.03.03-.01.05-.02.08-.03.03-.01.05-.03.08-.04,0,0,0,0,0,0ZM38.03,29.67s-.07,0-.11,0c-.03,0-.06,0-.09,0-.01,0-.03,0-.05,0-.01,0-.03,0-.04,0-.03,0-.06,0-.09.01-.03,0-.06,0-.09.02-.04,0-.07.02-.1.02,0,0-.01,0-.02,0-.03,0-.05.02-.07.02-.08.03-.16.06-.24.09,0,0-.02,0-.03.01-.07.03-.14.05-.2.08-.06.02-.11.05-.17.07,0,0-.02,0-.02.01-.02.01-.04.02-.07.03,0,0-.02,0-.03.01-.03.02-.06.03-.09.05,0,0-.01,0-.02.01-.07.03-.13.07-.19.11-.03.02-.06.04-.09.05-.04.02-.07.05-.11.07-.04.02-.08.05-.11.08-.03.02-.06.04-.08.06-.08.06-.16.12-.24.18-.09.08-.18.16-.26.24-.03.03-.06.06-.09.1h0c-.06.07-.12.13-.18.2-.03.03-.06.07-.09.11l-.41.52s0,.03,0,.06c0,.01,0,.03.01.04,0,.02.02.05.03.08,0,0,0,0,0,.02,0,.01.01.02.02.03,0,.01.01.03.02.04,0,.01.02.03.03.04.01.02.03.04.04.06.01.02.03.03.04.05,0,0,0,.01.01.02,0,0,.02.02.02.02.01.01.02.02.03.03.01.01.03.03.04.03,0,0,0,0,0,0,.01,0,.03.01.04.02.01,0,.02,0,.04.01,0,0,.02,0,.03,0,0,0,.02,0,.02,0h0s.02,0,.03,0h.03s0,0,0,0h.04s.01,0,.02,0c.02,0,.04,0,.07,0,.01,0,.02,0,.03,0,0,0,.01,0,.01,0,.02,0,.04,0,.06-.02,0,0,.01,0,.02,0,0,0,0,0,.01,0h0c.09-.03.18-.07.26-.12l-.41-.16,1.13-.63-.66-.1s.08-.09.13-.13c.01-.01.03-.03.04-.04.05-.05.11-.11.16-.16.03-.03.06-.05.08-.08.15-.13.3-.26.46-.38.07-.05.13-.1.2-.15.02-.01.04-.03.06-.04.04-.03.07-.05.11-.08.01,0,.02-.02.04-.02.06-.04.12-.08.17-.12.04-.03.08-.05.12-.08.04-.02.08-.05.11-.07.18-.12.37-.23.57-.35.01,0,.02-.01.03-.02h0ZM36.34,38.36s0,0,0-.01t0,0s0-.02,0-.02c0,0,0,0,0-.01,0-.01,0-.02,0-.03,0,0,0-.02,0-.03h0s-.07,0-.1,0c-.04,0-.08,0-.12,0-.03,0-.07,0-.1,0h-.05s-.04,0-.06,0h-.02s-.03,0-.04,0-.03,0-.04,0c-.03,0-.06,0-.09,0-.1,0-.2.01-.3.02-.08,0-.16.02-.24.03-.08.01-.16.02-.24.03-.11.02-.22.04-.33.06,0,0-.02,0-.03,0-.02,0-.04,0-.06.01-.02,0-.04,0-.06.01-.01,0-.03,0-.04,0-.03,0-.07.02-.1.02-.04.01-.08.02-.12.03-.02,0-.04,0-.06.01-.03,0-.06.02-.1.03-.02,0-.05.01-.07.02-.03,0-.05.01-.07.02.01.02.03.03.04.04.01.02.03.03.05.04.02.02.04.04.07.05.01,0,.03.02.04.03,0,0,0,0,.01,0,.01.01.03.02.05.03,0,0,.02.01.03.02.02.01.04.02.05.03.02,0,.04.02.06.03.02,0,.04.02.06.03,0,0,0,0,0,0,0,0,.01,0,.02,0,0,0,.01,0,.02,0,.04.01.07.03.11.04.01,0,.02,0,.03.01.02,0,.05.01.07.02.01,0,.03,0,.04.01,0,0,.01,0,.02,0,.01,0,.02,0,.03,0,.02,0,.04,0,.06.01,0,0,.02,0,.03,0,.03,0,.06,0,.09.01,0,0,.02,0,.03,0,.04,0,.09,0,.13,0h0s.07,0,.1,0c.04,0,.07,0,.11,0,.04,0,.07,0,.11,0,.02,0,.04,0,.05,0,.03,0,.05,0,.08-.01.03,0,.05,0,.08-.01.04,0,.07-.02.11-.02.02,0,.04,0,.05-.01,0,0,0,0,0,0,0,0,.02,0,.03,0,0,0,.02,0,.03,0,.11-.03.2-.08.29-.13.01,0,.02-.01.03-.02.01,0,.02-.01.03-.02.03-.03.06-.05.09-.08.03-.03.05-.06.07-.09,0-.02.02-.03.03-.05,0-.02.01-.03.02-.05h0s0-.02,0-.03c0,0,0-.01,0-.02h0s0-.01,0-.02c0-.01,0-.02,0-.04s0-.03,0-.04ZM33.98,42.72l-.05-.13h0l.05.13.85,1.47-.85-1.47ZM29.61,30.07s.1.04.15.05c-.05-.01-.1-.03-.15-.05ZM29.54,30.04s-.05-.03-.07-.05c.02.02.05.03.07.05.02.01.04.02.07.03-.02-.01-.05-.02-.07-.03ZM26.2,30.55h0c.1-.02.2-.04.3-.06-.1.02-.2.05-.3.06ZM25.47,30.67l.71.62h0s-.71-.62-.71-.62ZM19.97,28.4h0c.11.02.22.04.33.05-.11-.02-.22-.04-.33-.05Z"/>
      <path class="cls-5" d="M34.73,45.02l-.03.41.03-.41h0ZM34.01,33.05h0l.19.35-.19-.35ZM36.95,38.33h0s.01-.01.02-.02c0,0-.01.01-.02.02ZM36.91,38.37h0s.01-.01.02-.02c0,0-.01.01-.02.02ZM43.72,44.68s0,0,0,0c0,0,0,0,0,0Z"/>
      <path class="cls-12" d="M33.9,54.91s0,.02,0,.02l.03-.03h-.02ZM39.46,28.56s-.08,0-.12,0h-.06s-.07,0-.1,0c-.04,0-.07,0-.11,0,0,0-.02,0-.02,0-.05,0-.11,0-.16,0,0,0,0,0-.01,0-.03,0-.06,0-.1,0-.01,0-.03,0-.04,0-.05,0-.1,0-.16.01-.05,0-.1.01-.15.02-.05,0-.1.01-.15.02-.05,0-.1.02-.14.02-.07.01-.13.02-.2.04-.03,0-.07.02-.1.02-.03,0-.07.02-.1.03-.03,0-.06.02-.09.02-.09.02-.18.05-.27.08-.05.02-.1.03-.14.05-.1.03-.19.07-.29.12l-.51.23c-.78.35-1.55.73-2.09,1.41l-.55.32v-.05s-.05-.67-.05-.67h0c-.18-.04-.35-.09-.53-.15,0,0,0,0-.01,0-.19-.06-.38-.13-.57-.21,0,0,0,0,0,0-.32-.14-.95-.49-.95-.49,0,0-.02,0-.02,0,0,0-.01.01-.02.02-.1.1-.25.2-.4.3-.17.12-.33.25-.39.4-.26.04-.68.08-1.02.02-.03,0-.06-.01-.08-.02-.05-.01-.1-.03-.15-.05-.02,0-.05-.02-.07-.03-.02-.02-.05-.03-.07-.05-.05-.03-.09-.07-.14-.1-.04-.03-.09-.07-.14-.1-.05-.03-.09-.06-.14-.09-.02-.01-.04-.03-.06-.04-.1-.05-.19-.1-.29-.13-.01,0-.03,0-.04-.01-.03,0-.16-.08-.16-.08l-2.3,1.09v.78s-.01,0-.01,0l-.71-.62-.48-.44c-.48-.44-1.14-.8-1.76-1.02-.1-.03-.2-.07-.3-.1-.16-.05-.33-.11-.49-.16-.13-.04-.26-.08-.4-.12-.05-.01-.1-.03-.15-.04-.05-.01-.1-.03-.15-.04-.1-.03-.2-.05-.3-.07-.1-.03-.2-.05-.3-.07-.1-.02-.21-.05-.31-.07-.07-.01-.14-.03-.21-.04-.11-.02-.21-.04-.32-.06-.11-.02-.22-.03-.33-.05l.12,1.1v.03c.21,1.03.67,2.04,1.41,2.85l.63.52c.23.2.53.32.84.44.98.38,1.92.06,2.19,1.28,0,0,0,.02,0,.03v.56s-.09.02-.09.02l-1,2.56-.61,1.99h0s-.31,1.33-.31,1.33c-.27,1.15-.54,2.29-1.22,3.28-.24.35-1.16,1.47-2.03,2.5-.06.08-.13.15-.19.22-.06.08-.13.15-.19.22l.2.23,2.68,3.04,1.29,1.48.64.74.23.26.06.03c.11.05.25.07.39.07.18,0,.36-.05.5-.13.02-.01.05-.03.07-.04l.4-.3,1.11-.4c.55.42,1.2.55,1.82.38l.55.63c.16.18.31.33.45.47.22.21.43.38.65.51.19.12.26.28.34.5,0,.02.02.04.03.06.06.15.13.31.26.47h0c.11.13.23.24.39.33l.17.1.16-.13s0,0,0,0c.04-.04.09-.07.14-.11.06-.04.12-.08.18-.12.23-.15.49-.26.77-.34.06-.02.12-.03.18-.05,0-.11.02-.21.04-.31.06-.01.13-.03.19-.04.06-.01.13-.02.19-.03.02,0,.04,0,.06,0l-.03-.06c.05-.1.11-.2.18-.29l-.17-.34s.08-.09.11-.13l.03-.03s0,0,.01-.01l.15-.74.53-.5.42-.4c.14-.14.24-.29.31-.46.1-.23.14-.48.18-.71,0-.04.01-.08.02-.12,0,0,0,0,.01,0s0,0,0,0c.09-.05.17-.12.25-.18.11-.1.21-.22.29-.34.02-.03.04-.06.05-.09v-1.23s0,0,0,0c0,0,0,0,0,0l-.16-.03-.36-.06v-.04s-.11-.78-.11-.78l.24-.22s.05-.05.07-.08c.03-.04.06-.09.08-.14-.03-.21-.07-.42-.11-.63-.02-.13-.04-.27-.07-.39-.13-.75-.23-1.37-.23-1.37h0s-.57-1.06-.57-1.06l-.85-1.47-.05-.13h0c-.18-.47-.35-.97-.43-1.43,0-.04-.01-.07-.02-.11,0,0,0,0,0-.01-.03-.21-.04-.41-.02-.59,0-.02,0-.05,0-.07,0-.04.01-.08.02-.12,0-.02,0-.04.01-.05.01-.04.03-.08.04-.12,0-.02.01-.03.02-.05.01-.02.03-.05.04-.07.01-.02.03-.04.05-.06,0-.01.02-.02.03-.03.01-.01.03-.03.04-.04.01,0,.02-.02.03-.03.02-.01.04-.03.06-.04.01,0,.03-.02.05-.03.02,0,.04-.02.06-.02,0,0,.02,0,.02,0,0,0,.01,0,.02,0,0,0,.02,0,.03,0,0,0,.02,0,.03,0,0,0,.02,0,.03,0,0,0,.01,0,.02,0,.02,0,.04,0,.06,0,.01,0,.02,0,.03,0h.03s.02,0,.03,0c.01,0,.03,0,.04,0h1.19s.06-.02.09-.02c.02,0,.03,0,.05,0,.06-.01.11-.02.16-.04.03,0,.06-.02.1-.03.02,0,.04-.02.06-.03.09-.03.17-.07.25-.12.02-.01.03-.02.05-.03.02-.01.04-.02.05-.04.02-.01.03-.02.05-.04.02-.01.04-.03.05-.04,0,0,.01,0,.02-.01.03-.03.06-.06.09-.08.02-.01.03-.03.04-.04.07-.08.13-.16.18-.26.02-.04.04-.07.06-.11.03-.06.05-.12.07-.18,0-.01,0-.03.01-.05,0-.01,0-.02.01-.04,0-.04.02-.08.03-.12h0s.01-.01.02-.02c0,0,.01-.01.02-.02h0s.01-.01.02-.02c0,0,.01-.01.02-.02.03-.02.05-.05.07-.07.03-.03.05-.06.07-.08.02-.03.04-.05.06-.07.01-.01.02-.03.03-.04.01-.02.02-.03.03-.05,0,0,0-.02.01-.03.02-.03.03-.05.05-.08,0-.02.02-.03.02-.05,0,0,0,0,0,0,.01-.02.02-.04.03-.06.03-.06.04-.11.06-.17.02-.05.03-.11.04-.17,0-.03.01-.06.01-.09,0-.03.01-.06.01-.09,0-.02,0-.05,0-.07,0-.15,0-.31-.02-.48,0-.02,0-.04,0-.05.02-.09.01-.19,0-.29-.03-.18-.12-.35-.26-.46l-2.18-1.69s-.01-.06-.02-.1v-.03s-.01-.1-.01-.15c0-.22.04-.46.12-.58.04,0,.09,0,.13,0,.05,0,.11,0,.16-.01.01,0,.02,0,.03,0,.05,0,.1-.01.14-.02.05,0,.1-.01.15-.02.05,0,.09-.02.14-.02.03,0,.06-.01.09-.02.03,0,.06-.01.09-.02.03,0,.06-.01.09-.02.03,0,.07-.02.1-.03.04,0,.08-.02.11-.03.04,0,.08-.02.11-.03.03-.01.07-.02.1-.03.08-.03.16-.06.24-.1.07-.03.13-.06.19-.09.03-.01.06-.03.09-.05.02-.01.05-.03.07-.04.03-.02.07-.04.11-.06.03-.02.06-.04.09-.06.03-.02.06-.04.09-.07.03-.02.05-.04.08-.06.02-.01.03-.02.05-.04.03-.02.06-.04.09-.07.02-.02.04-.03.06-.05h0s.03-.03.05-.05c0,0,0,0,.01,0,.02-.02.04-.04.06-.06.04-.03.07-.07.1-.1.01-.01.03-.03.04-.04l.06-.06s.01-.01.02-.02c0,0,.01-.02.02-.02.01,0,.02-.02.03-.03.04-.04.07-.08.1-.12.03-.04.07-.08.1-.12.05-.06.09-.13.14-.19,0-.01.01-.02.02-.03.03-.05.07-.1.1-.16.03-.05.07-.11.1-.17,0-.01.01-.02.02-.04.03-.04.05-.09.07-.13,0,0,0-.01.01-.02,0-.02.02-.04.03-.05.02-.04.04-.08.06-.12.01-.03.03-.06.04-.09.03-.06.06-.13.08-.19.03-.07.05-.13.08-.2.05-.13.1-.27.14-.41.04-.15.08-.3.12-.45.07-.31.13-.63.17-.96h-.01ZM28.89,40.98s-.01,0-.02,0c0,0,0,0,0,0,0,0,0,0,.01,0,0,0,0,0,0,0ZM25.4,35.74h0s0,0,0,0t0,0h0s0,0,0,0t0,0h0ZM31.47,52.56s0,0,0,0c0,0,0,0,0,0,0,0,0,0,.01,0h.02s0,.01,0,.01v.14s-.04-.16-.04-.16h0Z"/>
      <path class="cls-1" d="M46.71,46.91s-.01,0-.02,0c0,0,0,0,0,0,0,0,0,0,.01,0,0,0,0,0,0,0Z"/>
      <polygon class="cls-1" points="43.23 41.67 43.23 41.67 43.23 41.67 43.22 41.67 43.23 41.67"/>
      <polygon class="cls-1" points="43.22 41.67 43.22 41.67 43.22 41.67 43.22 41.67"/>
      <path class="cls-5" d="M23.84,45.51s-.01.08-.02.13c0-.05.01-.09.02-.13Z"/>
      <path class="cls-5" d="M23.98,46.98c-.03-.09-.05-.17-.07-.26.02.09.04.17.07.26Z"/>
      <path class="cls-5" d="M24.53,48.21s0,0,0-.01c0,0,0,0,0-.01l-.37-.78.37.78s0,.01.01.02Z"/>
      <path class="cls-4" d="M36.98,38.3s-.05.05-.08.07h0s.05-.05.08-.07Z"/>
      <path class="cls-18" d="M26.25,40.28h-.02s0,0,0,0h.08s-.05,0-.05,0ZM26.66,38.22l-.09.84.09-.84h0Z"/>
      <path class="cls-11" d="M26.54,50.54l-.85-.91-.71-.8c-.13-.15-.26-.29-.37-.46-.02-.03-.03-.06-.05-.09-.01-.02-.02-.05-.04-.07,0,0,0,0,0-.01,0,0,0,0,0-.01l-.37-.78c-.03-.06-.05-.11-.07-.17,0-.02-.02-.04-.02-.06-.02-.05-.04-.1-.05-.15,0-.02-.01-.03-.02-.05-.03-.09-.05-.17-.07-.26,0-.01,0-.03-.01-.04-.02-.08-.03-.15-.04-.22,0-.06-.02-.11-.02-.16,0-.05-.01-.1-.02-.16,0-.03,0-.05,0-.08,0-.04,0-.07,0-.11,0-.05,0-.1,0-.14,0-.01,0-.03,0-.05,0-.03,0-.06,0-.08,0-.01,0-.03,0-.04,0-.05.01-.09.02-.13,0,0,0,0,0,0,0-.02,0-.03.01-.05,0-.02,0-.03.01-.04,0-.01.01-.02.02-.03,0,0,0,0,0,0,0,0,.01,0,.02,0h.27s.01.18.01.18c.02.21.04.43.1.64.01.04.02.08.04.12.03.08.06.17.1.24l.55,1.15s.04.07.06.11c.02.04.05.08.07.12.01.02.03.05.05.07.03.05.07.09.1.14.05.08.11.15.18.24.04.06.08.11.13.17.06.08.12.16.18.25.05.07.09.13.14.2.06.09.12.19.18.29.08.13.15.27.22.42.03.06.06.13.08.2.02.06.04.12.06.18.02.05.04.11.05.16.01.05.03.1.04.16,0,.02,0,.03.01.05,0,.03.01.06.02.08Z"/>
      <path class="cls-3" d="M36.09,38.24s-.07,0-.1,0c.07,0,.15,0,.22,0-.04,0-.08,0-.12,0ZM32.51,40.38s0,0,0,0h0s0,0,0,0h0s0,0,0,0h0ZM32.51,40.38h0s0,0,0,0h0ZM32.52,40.37h0s0,0,0,0h0s0,0,0,0ZM32.5,40.39h0s0,0,0,0h0ZM29.65,41.24v.12s-.01,0-.01,0h0s.01-.12.01-.12h0s0,0,0,0Z"/>
      <path class="cls-5" d="M28.89,40.98s0,0-.01,0c0,0,0,0,0,0,0,0,.01,0,.02,0,0,0,0,0,0,0Z"/>
      <polygon class="cls-8" points="25.41 35.74 25.41 35.74 25.4 35.74 25.41 35.74"/>
      <polygon class="cls-8" points="25.41 35.74 25.41 35.74 25.41 35.74 25.41 35.74"/>
      <path class="cls-10" d="M26.82,37.36h0s-.16.86-.16.86h0l.16-.86h0ZM28.39,33.8l-.3.16.31-.15h0s0,0,0,0ZM34.01,33.03s0,0,0,.01h0s0,0,0-.01Z"/>
      <path class="cls-16" d="M34.05,47.91c0,.07,0,.14,0,.21-.01.24-.04.48-.08.72l-.1-.38-.44-.98c-.18.23-.21.4-.21.68l-.02,1.08c-.03,1.17-.43,2.24-.98,3.25.01-1.3,0-2.58-.51-3.79-.31-.74-.62-1.49-1.12-2.12l-1.95-2.5-.1.7c.21.24.34.57.13.92-.63-.68-1.03-1.53-1.2-2.47l-.3-1.68-.38,1.32c-.14-.13-.23-.51-.24-.77l-.08-1.81.21-2.07.16-.86s0-.02,0-.04c0-.02,0-.03.02-.05.01-.03.03-.06.04-.06h.09c-.15.64.06,1.35.39,1.87l.51.8.5,1.24.25-.87.2.74.15.39-.02.1.44.99h.2s.02-.27.02-.27l-.06-.22.03-.2.02-.19.04-.34.2.54s.01.03.02.04c.02.06.04.12.07.17.01.03.02.05.03.07,0,.02.01.03.02.05,0,.01.01.03.02.04.04.08.08.16.12.24.03.05.06.1.09.15.02.03.04.06.06.09.04.06.08.12.12.18.02.03.04.06.06.09.08.12.17.23.27.34.06.07.12.13.18.2.06.07.12.13.18.19.13.13.26.25.4.37-.2-.85-.19-1.71.1-2.44.02-.05.05-.11.07-.16.03-.05.05-.11.08-.16.04-.08.09-.15.14-.23.05-.07.1-.15.16-.22.06-.07.12-.14.19-.2.07-.07.14-.13.21-.19.02-.02.05-.04.07-.06,0,.16-.01.31-.02.46-.01.34-.02.67.02.98,0,.07.02.13.03.2.02.09.04.18.07.27l.55,1.66c.11.26.22.53.31.8.15.42.27.84.37,1.27.03.12.05.25.07.37.02.12.04.25.06.38.01.12.03.25.04.38t0,0c.02.25.03.51.02.77Z"/>
      <path class="cls-16" d="M26.84,37.27s-.02.07-.02.08l-.16.86-.21,2.07.21-2.07.16-.86s.01-.05.03-.08Z"/>
      <path class="cls-16" d="M32.53,40.36h0s-.05.04-.07.06c.02-.02.05-.04.07-.06Z"/>
      <path class="cls-4" d="M36.71,36.07c-.05.03-.1.05-.16.08-.03.01-.05.02-.08.03-.05.02-.1.03-.16.04h0s-.05,0-.08.01c-.07,0-.13,0-.2,0h-.01s-.04,0-.06,0c-.01,0-.02,0-.03,0-.02,0-.05,0-.07,0-.02,0-.05,0-.07,0-.1-.01-.2-.04-.29-.06-.03,0-.05-.01-.08-.02-.03,0-.06-.01-.09-.02-.32-.08-.59-.15-.75.02,0,0-.01.01-.02.02-.02.02-.03.05-.05.07-.01.02-.02.05-.02.08-.03.18.04.47.15.57l.33.29c.09.08.31-.1.49-.21,0,0,0,0,0,0,0,0,0,0,0,0,0,0,0,.01.01.02h0s0,.02.01.03c0,0,0,.01,0,.02,0,.02.01.04.02.07.03.16.02.4-.04.48-.34.47-2.03.56-2.96.13,0-.04.02-.09.05-.14.02-.02.04-.05.06-.07.05-.05.1-.09.15-.11l.51-.19c-.04-.8.49-1.58,1.17-1.78h0c.58-.18.93-.15,1.31.04.06.03.12.06.18.1.09.06.19.12.29.19h0c.05.04.11.08.17.12.09.06.18.13.29.2Z"/>
      <path class="cls-4" d="M36.4,31.47l-1.13.63.41.16c-.22.13-.55.22-.72.12-.14-.09-.35-.41-.33-.52l.41-.52c.12-.15.24-.28.36-.41.08-.08.17-.16.26-.24.49-.41,1.05-.7,1.69-.92.18-.06.48-.09.67-.1-.83.51-1.53.93-2.17,1.58-.04.04-.09.09-.13.13h0l.66.1Z"/>
      <polygon class="cls-6" points="27.15 36.5 27.15 36.51 26.98 37.23 27.15 36.5"/>
      <path class="cls-4" d="M36.28,38.6s-.04.06-.07.09c-.03.03-.06.05-.09.08-.5.36-1.7.4-2.24-.19.08-.02.16-.05.24-.07.02,0,.04,0,.06-.01.13-.03.25-.06.38-.09.12-.03.24-.05.36-.07.16-.03.32-.05.47-.06.1,0,.2-.02.3-.02.03,0,.06,0,.09,0,.18,0,.35-.01.53,0h0s0,0,0,0c.01.04.02.08.03.11.01.09-.01.17-.05.24Z"/>
      <path class="cls-4" d="M34.29,33.57l-.27-.52s0-.02-.01-.03c0,0,0-.02,0-.03-.03-.18.08-.5.16-.64l.15.02c.04.07.07.14.09.21.02.05.03.1.04.15.01.05.02.1.02.15.02.22-.03.45-.17.69Z"/>
      <path class="cls-5" d="M33.16,38.22h-.46s-.03-.01-.04-.02c-.01,0-.02-.02-.03-.03,0,0-.01-.01-.01-.02,0,0,0-.01-.01-.02-.01-.02-.02-.05-.03-.08,0,0,0-.02,0-.03,0-.02,0-.04-.01-.06,0-.04,0-.07,0-.1l.62.35Z"/>
      <polygon class="cls-4" points="29.66 41.24 29.61 41.58 29.66 41.24 29.66 41.24"/>
      <path class="cls-8" d="M28.89,40.98s-.02,0-.02,0c0,0,0,0,0,0,0,0,0,0,.01,0,0,0,0,0,0,0Z"/>
      <path class="cls-11" d="M26.25,40.28h-.02s0,0,0,0h.08s-.05,0-.05,0Z"/>
      <path class="cls-11" d="M34.22,34.09c-.25-.24-.48-.51-.55-.86l.34-.17s0,0,0-.01c0,0,0,0,0,0,0,0,0,0,0,0h0s0,0,0,0c0,0,0-.01,0-.02s0-.01,0-.02c0-.02,0-.05,0-.07,0-.07.01-.14.03-.22,0,0,0-.01,0-.02,0-.02.01-.04.02-.06,0-.02.01-.04.02-.06,0-.02.01-.04.02-.06,0-.02.02-.04.02-.06,0,0,0,0,0-.01,0-.01.01-.03.02-.04,0-.02.01-.03.02-.04.1-.22-.3-.29-.39-.4-.58-.71-.75-1.47-1.94-1.61l-.47.57c.29.16.57.3.81.57-.61-.06-1.18-.13-1.64-.33l-.87-.39-.86-.31-.1-.06-.19-.12c-.06-.04-.16.14-.23.23-.01.02-.03.03-.04.04l-1.04.59c.14.33.24.54.23.7-.01.15-.31.39-.45.35l-1.2-.37c-.23-.07-.44-.08-.62.03h0s.01.02.02.03c0,0,0,.01.01.02,0,0,0,.01.01.02,0,0,0,.01.01.02.05.08.09.16.13.25,0,.01.01.03.02.04.02.04.03.08.05.12.01.03.02.05.03.08.02.05.03.11.05.16,0,.02.01.05.02.07,0,0,0,0,0,.01,0,0,0,.02,0,.02,0,0,0,.01,0,.02,0,0,0,.01,0,.02,0,0,0,.02,0,.02,0,.03.02.06.02.08,0,.03.02.06.02.09.02.06.03.12.05.17h0l-.59-.14h0s0,0,0,0c.08.09.22.22.36.34l.53.82v.12s.06.25.06.25c.22.22.46.89.25,1.12-.28.17-.42.26-.52.57-.29.9-.61,1.74-.77,2.63-.17.94-.25,2.01-.32,2.95,0,0,0,0,0,0,0,0,0,.01,0,.02,0,.07.03.32.02.32l.11.72v.07s0,.03,0,.03v.05s0,.06,0,.06c0,0,0,.34,0,.49,0,0,0,.01,0,.02,0,.01,0,.02,0,.03,0,.02,0,.03,0,.04,0,.01,0,.03.01.04,0,0,0,0,0,0s0,0,0,0t0,0s0,0,0,0c0,0,0,0,0,0h0s0,0,0,0h0s0,0,0,0,0,0,0,0c0,0,0,0,0,0,0,0,0,0,0,0h0s0,0,0,0c.06.05.25.38.25.38.01,0,.22.46.22.46.06.21.16.58.25.76l.56.98s.02-.03.03-.05c.02-.03.04-.06.06-.09,0-.01.02-.03.02-.04,0-.01.01-.03.02-.04,0-.02.01-.03.02-.04v-.04s.03-.04.03-.06c0-.02,0-.04.01-.06,0-.02,0-.04.01-.06,0-.05.01-.1.02-.15,0-.03,0-.07,0-.11.01,0,.03,0,.05,0,.01,0,.02,0,.03,0,.02,0,.03,0,.05.01,0,0,.02,0,.03,0,0,0,.01,0,.02,0,.02,0,.03.01.04.02.01,0,.03,0,.04.02.01,0,.03.02.04.02.01,0,.03.02.04.03.03.02.05.04.07.07.01.01.02.03.03.04h0s.02.03.03.04c0,0,0,.02.01.02.01.02.02.04.03.06,0,.02.02.03.02.05,0,0,0,.01,0,.02.02.03.03.07.04.1.04.1.08.22.12.32.03.06.06.12.08.19,0,0,0,0,0,0,.03.06.05.11.08.17.01.02.02.05.03.07.02.03.03.05.04.08,0,.01.01.03.02.04.03.05.06.1.09.15,0,.01.02.03.03.04.04.07.08.13.13.2.02.03.04.07.07.1.04.06.09.13.14.19.03.03.05.07.08.1.02.02.04.05.06.07.03.03.06.07.08.1.03.03.05.06.08.09l.42.46s.03.03.04.05c0,.01.02.03.03.04,0,0,0,0,0,.01.01.02.02.03.03.05.01.02.03.05.04.08.01.02.02.03.03.05.05.11.1.22.16.33.01.02.03.04.04.07,0,0,.01.02.02.03,0,0,.01.02.02.03.01.02.03.04.05.06,0,.01.02.02.03.03.01.01.03.02.04.04.02.02.05.04.07.05,0,0,.01,0,.02.01.01,0,.02.01.04.02,0,0,0,0,0,0l.08-.76v-.02s.04-.3.04-.3v-.12c.74.74.98,1.55,1.47,2.34.18.29.37.56.46.91l.2.84.19.22c.11.17.24.33.41.4l.12-.18h0s.08-.19.08-.19h0c0-.33,0-.65,0-.97,0-.07,0-.14,0-.21,0-.06,0-.13,0-.19,0,0,0-.02,0-.02,0-.06,0-.11-.01-.17,0-.13-.02-.26-.03-.39,0-.07-.01-.13-.02-.2,0-.07-.02-.13-.03-.2,0-.03-.01-.06-.02-.1,0-.05-.01-.09-.02-.14-.01-.06-.02-.12-.04-.18-.01-.05-.02-.1-.04-.15-.01-.05-.03-.1-.04-.16-.02-.07-.04-.14-.06-.21-.02-.07-.04-.14-.07-.2-.04-.1-.08-.2-.12-.31-.02-.05-.04-.09-.06-.14-.01-.02-.02-.05-.03-.07-.03-.07-.06-.14-.09-.21-.03-.07-.06-.14-.09-.21-.03-.07-.06-.14-.09-.21-.04-.09-.09-.18-.13-.27-.18-.36-.38-.7-.63-1.02l-1.95-2.5-.1.7s.02.02.03.03c.01.01.02.02.03.04,0,.01.02.03.03.04,0,.01.02.03.03.04,0,.01.02.03.02.04,0,.02.02.03.03.05,0,.02.01.03.02.05h0s.02.05.02.07c0,.02,0,.03.01.05,0,.03.01.06.01.1,0,.02,0,.03,0,.05h0v.02s0,0,0,.01c0,0,0,.01,0,.02,0,.02,0,.03,0,.04,0,.02,0,.05-.01.07,0,.02-.01.05-.02.07-.02.05-.04.09-.07.14-.63-.68-1.03-1.53-1.2-2.46l-.3-1.68-.38,1.32s-.03-.03-.05-.05c0-.01-.01-.02-.02-.03,0-.01-.01-.03-.02-.04,0-.01-.01-.03-.02-.04,0-.01-.01-.03-.02-.04,0-.02-.01-.03-.02-.05,0-.02-.01-.03-.02-.05,0-.02-.01-.04-.02-.06,0-.02,0-.03-.01-.05,0-.03-.01-.06-.02-.09,0,0,0-.02,0-.02h0s0-.03,0-.05c0-.02,0-.03,0-.05,0-.02,0-.03,0-.05,0-.02,0-.03,0-.05h0s0-.03,0-.05l-.08-1.81h0s.02-.2.02-.2l.03-.28.03-.25v-.06s0,0,0,0h0s0-.07,0-.07v-.06s.03-.25.03-.25h0s0-.02,0-.02v-.04s0,0,0,0l.09-.84.16-.86h0s0,0,0,0h0s0,0,0-.01c0,0,0,0,0,0,0,0,0,0,0,0,0,0,0,0,0,0h0s0,0,0,0c0,0,0,0,0-.01,0,0,0,0,0,0,0,0,0,0,0-.01,0,0,0,0,0,0,0,0,0,0,0,0,0,0,0,0,0,0,0-.02.01-.03.02-.04,0,0,0,0,.01-.01s0,0,.01,0h.09s0,.01,0,.01l.06-.24v-.05s.01,0,.01,0v-.06s.1-.36.1-.36h0s0,0,0,0c.02.12.04.23.06.34,0,.03.02.07.03.1,0,.03.01.05.02.08.02.05.03.1.05.15.02.06.05.12.07.18t0,0c.03.08.07.15.11.22.04.07.08.13.12.19.04.06.08.12.13.17.04.05.09.1.13.15.07.08.14.15.21.22.02.02.04.05.06.07.1.11.18.22.25.34l.81.26c.25.1.56.07.85.01.05,0,.1-.02.14-.03.04,0,.09-.02.14-.03l1.15-.22,1.04-.1h.23s.6-.02.6-.02l-.02-.39h-.16s0,0,0,0h-.15s-.08,0-.08,0h-.23s-.03,0-.04-.02c-.01,0-.02-.02-.03-.03h0s-.01-.01-.01-.02c0,0,0,0,0-.01,0,0,0,0,0-.01-.01-.02-.02-.05-.03-.08,0,0,0,0,0,0,0,0,0,0,0,0h0s0-.02,0-.02h0s0,0,0,0c0,0,0,0,0,0,0,0,0-.02,0-.02,0,0,0,0,0,0,0,0,0,0,0-.01,0,0,0,0,0,0h0s0,0,0,0c0-.01,0-.02,0-.03,0-.02,0-.03,0-.04v-.18s0-.02,0-.02h0s0,0,0,0c0,0,0,0,0,0h0s0-.03.02-.05c0,0,0-.01.01-.02,0-.01.01-.02.02-.03,0-.01.02-.02.03-.03,0,0,0,0,0,0,0-.01.02-.02.03-.03.02-.02.05-.05.07-.07.03-.02.05-.03.08-.04l.51-.19h0s0-.06,0-.08c0-.05,0-.09,0-.14,0-.02,0-.05,0-.07h0s0-.03,0-.04c0,0,0,0,0,0,0-.02,0-.04.01-.07,0-.02,0-.04.01-.07,0,0,0-.01,0-.02,0,0,0-.01,0-.02t0,0s.01-.04.02-.06c0,0,0,0,0,0,0-.02.01-.04.02-.06,0-.02.01-.04.02-.07,0-.02.02-.05.03-.07,0,0,0,0,0,0,0,0,0-.02.01-.03,0,0,0-.01.01-.02,0-.02.02-.04.03-.06.01-.02.02-.04.03-.06.02-.04.05-.08.07-.12.01-.02.03-.04.04-.06.01-.02.03-.04.04-.06.01-.02.03-.04.04-.05.01-.02.03-.03.04-.05.03-.03.06-.07.09-.1.02-.02.04-.03.05-.05h0s.02-.02.03-.03c0,0,0,0,0,0,.02-.02.04-.03.06-.05.02-.01.04-.03.05-.04,0,0,0,0,0,0h.01s0-.01,0-.02h0s0,0,0,0c0,0,0,0,0,0,0,0,0,0,.01,0,0,0,.01,0,.02-.01,0,0,0,0,0,0,0,0,0,0,.01,0,0,0,0,0,0,0,0,0,.01,0,.02-.01h0s.04-.02.06-.03c.02-.01.04-.02.06-.03.02,0,.04-.02.06-.03.02,0,.04-.02.06-.02h0s0,0,0,0c.02,0,.04-.01.06-.02h0l.57-.54-.83-.8ZM31.78,52.39s.05,0,.07,0c-.02,0-.05,0-.07,0h0ZM31.04,48.12s.02.02.04.02c-.01,0-.02-.02-.04-.02h0ZM26.3,40.28h-.08s.02,0,.02,0h.05ZM31.48,35.55l-.88-.33s-.02,0-.03-.01c0,0-.02,0-.03,0,0,0,0,0,0,0-.02,0-.03-.01-.05-.02-.02,0-.03-.01-.05-.02,0,0-.01,0-.02,0,0,0-.02,0-.02,0,0,0,0,0-.01,0-.01,0-.03,0-.04-.01-.03,0-.06-.02-.09-.03-.01,0-.03,0-.04-.01,0,0-.02,0-.03,0-.02,0-.05-.01-.07-.01,0,0-.01,0-.02,0-.02,0-.03,0-.05,0,0,0-.02,0-.02,0-.01,0-.03,0-.04,0-.01,0-.02,0-.03,0-.02,0-.05,0-.07,0-.02,0-.04,0-.06,0-.04,0-.07,0-.11.01-.02,0-.03,0-.05.02-.03.01-.06.02-.09.03-.03,0-.05.01-.08.02,0,0-.01,0-.02,0-.01,0-.03,0-.04,0,0,0-.02,0-.03,0,0,0-.01,0-.02,0,0,0-.01,0-.02,0,0,0,0,0,0,0,0,0-.02,0-.02,0h-.04s-.03,0-.04,0c-.01,0-.02,0-.03,0,0,0-.02,0-.02,0,0,0-.01,0-.02,0-.01,0-.03,0-.04,0-.02,0-.05,0-.07-.01-.02,0-.04,0-.06-.01,0,0-.01,0-.02,0-.01,0-.02,0-.04-.01h0s-.04-.01-.05-.02c-.02,0-.04-.01-.05-.02,0,0-.01,0-.02,0-.01,0-.02-.01-.03-.02,0,0-.02,0-.03-.01-.03-.01-.05-.03-.07-.04-.03-.02-.06-.04-.09-.07-.03-.02-.06-.05-.09-.07-.03-.03-.05-.05-.08-.08,0,0,0,0,0,0-.03-.03-.05-.06-.07-.08-.01-.01-.02-.03-.03-.04-.03-.04-.06-.09-.08-.14,0-.01-.01-.02-.02-.03,0-.01-.01-.02-.02-.03,0,0,0-.01,0-.02,0-.01,0-.02-.01-.03,0-.01-.01-.02-.01-.03v-.02s-.03-.07-.04-.11c0-.01,0-.02,0-.03,0,0,0-.02,0-.03,0-.03-.01-.06-.02-.1,0,0,0-.02,0-.03,0-.02,0-.04,0-.05l.3-.16h0s0,0,0,0l-.19-.27-.04-.06-.13-.2-.07-.1-.12-.17s-.01-.02-.01-.04h0s0-.02,0-.03c0,0,0,0,0-.01,0-.02.02-.05.04-.08,0-.01.02-.03.03-.04.02-.02.04-.05.06-.07,0-.01.02-.02.03-.03.04-.04.09-.08.15-.12,0,0,0,0,0,0,.03-.02.06-.04.09-.06.02-.01.03-.02.05-.03.02-.01.05-.03.08-.04.02,0,.04-.02.06-.03,0,0,.02,0,.03-.01.02,0,.03-.02.05-.02.03-.01.07-.03.1-.04.03-.01.07-.02.1-.03.01,0,.02,0,.03,0,.02,0,.04-.01.06-.02h.01s.03,0,.04-.01c.03,0,.05-.01.08-.02.03,0,.06,0,.09-.01.02,0,.04,0,.06,0,.03,0,.06,0,.09,0h.02s.09,0,.14,0c.03,0,.05,0,.08,0,0,0,0,0,.01,0,0,0,.01,0,.02,0,.01,0,.02,0,.03,0,0,0,0,0,0,0,0,0,0,0,0,0,0,0,0,0,0,0,0,0,0,0,.01,0,.01,0,.03,0,.04,0s.03,0,.04,0c0,0,.01,0,.01,0,0,0,.01,0,.01,0,0,0,.02,0,.03,0,0,0,.01,0,.02,0,.01,0,.03,0,.04.01,0,0,0,0,0,0,0,0,0,0,0,0,.01,0,.02,0,.03.01.03,0,.06.02.09.03,0,0,0,0,0,0,0,0,0,0,.01,0,.01,0,.02,0,.03.02,0,0,.01,0,.01,0,0,0,.02,0,.03.01,0,0,0,0,.01,0,.01,0,.03.02.05.02,0,0,.02.01.03.02.01,0,.03.02.04.02.03.02.05.03.07.05.02.02.05.04.07.06.03.02.05.05.08.07.01.01.03.02.04.04.01.01.02.02.03.03,0,0,.01.02.02.03,0,0,0,0,0,0,0,0,0,0,0,0,0,0,0,.01.01.02.01.01.02.02.03.03,0,0,.02.02.02.03,0,0,.01.02.02.02.01.02.03.04.04.05,0,.01.02.03.03.04.02.03.04.07.06.1.04.07.07.14.11.21.01.03.03.07.04.1.01.04.03.08.04.12.01.03.02.06.03.09,0,0,0,.01,0,.02,0,.01,0,.02,0,.03,0,.03.01.05.02.08,0,.03.01.05.01.08,0,.01,0,.02,0,.03,0,.04.01.07.01.11,0,.02-.02.05-.03.08,0,0,0,.02,0,.03,0,.01,0,.03-.01.04,0,.02-.01.04-.02.07,0,0,0,.02,0,.03,0,.02,0,.03,0,.05,0,0,0,.01,0,.02,0,0,0,0,0,.01,0,0,0,0,0,0s0,0,0,0c0,0,0,0,0,0l.48.13s0,0,0,.01,0,0,0,.01c0,0,0,.02,0,.02,0,.02.01.05.02.07,0,0,0,0,0,0,0,0,0,0,0,0,0,.01,0,.02,0,.03,0,.01,0,.03,0,.04,0,0,0,.01,0,.02,0,0,0,.01,0,.02v.02s0,.02,0,.02h0s0,.03,0,.04c0,0,0,.02,0,.02,0,0,0,.02,0,.02,0,.01,0,.03,0,.04,0,.01,0,.03,0,.04v.03s0,0,0,0c0,0,0,0,0,0,0,.03,0,.07,0,.1,0,.01,0,.03,0,.04s0,.03,0,.04c0,.01,0,.02,0,.03l.1.45h0Z"/>
      <path class="cls-10" d="M26.1,39.42v.04s0-.02,0-.04h0Z"/>
      <path class="cls-10" d="M26.09,39.72s0-.03,0-.05c0,.03,0,.07,0,.1,0-.02,0-.03,0-.05Z"/>
      <polygon class="cls-10" points="26.45 40.29 26.23 40.28 26.23 40.28 26.45 40.29"/>
      <path class="cls-5" d="M24.82,43.69s-.02-.02-.02-.04c0-.01,0-.02,0-.04,0,.01,0,.03,0,.04,0,.01.01.03.02.04Z"/>
      <polygon class="cls-5" points="24.77 42.81 24.77 43.03 24.77 43.03 24.77 43.03 24.77 42.81"/>
      <polygon class="cls-12" points="25.41 35.74 25.41 35.74 25.4 35.74 25.41 35.74"/>
      <polygon class="cls-12" points="25.41 35.74 25.41 35.74 25.41 35.74 25.41 35.74"/>
      <path class="cls-12" d="M25.99,34.48s-.12-.05-.16-.06c-.02,0-.04-.03-.05-.05,0,0-.01-.02-.01-.03,0-.01,0-.02,0-.03l.15-.08.07.25Z"/>
      <path class="cls-4" d="M25.62,33.09l-.59-.14-1.22-.47.67-.14-1.16-.66-.13-.28.87.07c-.88-.72-1.76-1.24-2.79-1.89,1.19.09,2.21.59,3.15,1.24l.75,1.03c.24.33.33.77.47,1.24Z"/>
      <path class="cls-12" d="M31.38,34.98s0,.05,0,.08c0,.01,0,.02,0,.03l-.88-.6c-.18-.14-.43-.25-.66-.18-.6.17-1.12-.03-1.44-.5h0s-.36-.53-.36-.53l.57-.15c1.27-.38,1.38.21,2.25.81-.02.08-.13.31-.04.33l.48.13s0,.01,0,.02c0,0,0,.02,0,.02.02.04.03.1.04.16,0,.01,0,.03,0,.04,0,.02,0,.03,0,.05,0,.01,0,.03,0,.04,0,.01,0,.03,0,.04,0,.01,0,.03,0,.04,0,.01,0,.03,0,.04,0,.05,0,.1,0,.14Z"/>
      <path class="cls-4" d="M31.48,35.55l-.88-.33s-.04-.01-.05-.02c-.02,0-.04-.01-.06-.02-.02,0-.04-.02-.07-.02-.02,0-.05-.02-.07-.02-.03,0-.06-.02-.09-.03-.05-.01-.09-.02-.14-.03-.02,0-.05,0-.07-.01,0,0-.02,0-.02,0-.01,0-.03,0-.04,0,0,0-.02,0-.03,0-.02,0-.05,0-.07,0-.08,0-.15,0-.22.03-.81.26-1.5-.37-1.56-1.12l.31-.16h0c.32.47.84.67,1.44.5.23-.07.47.04.66.18l.88.6.1.45Z"/>
      <path class="cls-4" d="M30.86,33.93c-.86-.6-.98-1.19-2.25-.81l-.57.15-.19-.27c-.14-.21,1.05-1.14,2.13-.56.07.04.15.09.21.15.03.02.05.05.08.07.01.01.03.03.04.04.01.01.02.02.03.03.01.02.03.03.04.05.02.03.05.06.07.09.02.03.04.06.07.09.02.03.04.07.06.1.04.07.07.14.11.21.01.03.03.07.04.1.01.04.03.08.04.12.01.04.02.07.03.11.01.04.02.07.03.11,0,.04.01.07.02.11,0,.04,0,.07.01.11Z"/>
      <path class="cls-4" d="M29.63,42.2c-.05,0-.07-.1-.07-.13,0-.02,0-.05.01-.09l.06.22Z"/>
      <path class="cls-12" d="M28.5,29.43c-1.26.6-2.3,1.09-2.3,1.09-1.46-1.83-6.37-3.93-8.67-3.58-1.06.16-2.19.9-2.15,2.09.02.61.52,1.17,1.14,1.09.48-.22.69-.26.6.37-.13.92-1.33,1.33-2.13,1.07.06.63.35.99.92,1.22.27.3-.16.45-.43.54-1.3.45-3.39-.92-3.35-2.4-1.06.6-3.16-.18-3.19-1.48,0-.18.02-.33.22-.37,1.4.79,2.59-.44,3.26-1.55-.83-.12-1.71-1.22-1.22-2.02.29-.48.42-.38.72.04.38.39.92.34,1.41.21.54-.22,1.09-.39,1.65-.52-.2-.14-1.56-.58-1.89-.68-1.04-.31-2.9-.84-3.73.13-.27.32-.28.61-.11.97.38.42.19.61-.31.69-.48.07-.98-.2-1.26-.59-.1.31-.08.63.04.94.49.78-.15.74-.7.46-2.36-1.17-1.31-4.3.91-4.92l-.57-.19c-.11-.01-.23-.03-.35-.05-1.3-.23-3.19-1.07-3.01-2.53.06-.52.34-.83.82-.48.05-.54.46-1.04,1.01-1.05l.63.5c.1-.89.23-1.75.92-2.42.18-.18.68-.57.92-.58.18,0,.2.06.21.24-.15.67.14,1.2.45,1.77.17-.19.7-.57.94-.53.23.03.4.64.45.87,0,.04.01.09.01.13.06.6.05,1.21-.03,1.83.3-.31,1.04-.51,1.16.01-.28.68-.09,1.39.44,1.87.18.17,1.55.97,1.61.9-.83-1.43-1.33-2.94-1.75-4.51,0-.02-.01-.04-.01-.06-.39-1.06-.89-2.4-2.05-2.79-.22-.15-.06-.35.06-.52.42-.56,1.14-.43,1.7-.31-.18-.21-.37-.43-.55-.67-.25-.53-.55-1.01-.9-1.44-.03-.01-.05-.02-.07-.03-.19-.09-.28-.19-.31-.29-.05-.19.18-.39.51-.56.08-.04.16-.07.24-.1.19-.07.39-.1.59-.11.68-.03,1.41.21,1.93.58-.43-.98-.3-2.2.35-3,.17-.21.37-.39.6-.53.05-.03.1-.06.16-.09.22.18.42.41.58.68.49-.61,1.17-1.21,1.95-1.36.55-.11.95-.07.54.53-.06.48-.09.98-.09,1.48.43.02.85-.02,1.25-.12.45-.25.66-.36.72.25,0,.1,0,.19,0,.28-.07.86-.81,1.48-1.57,1.85-.13.07-.27.12-.4.17-.22.14-.42.3-.58.49-.18.2-.32.43-.41.69-.03.09-.06.18-.08.27,0,0,.02,0,.02,0,.94-.39,2.66-.05,2.48,1.23-1.89.1-3.19,1.72-3.43,3.55-.39,2.93,1.52,5.5,4.26,6.31-.45-.7-.72-1.5-.98-2.27.01-.67.07-1.34.18-2.01.02-.79-.17-1.15-.83-1.56-.05-.1-.03-.19.03-.28.37-.57,1.71-.5,2.15.01.14-.71,1.23-2.16,1.98-2.13.51.02.73.98.73,1.42.42-.05.82-.15,1.2-.3.48-.44.62-.13.64.41.03.96-.75,1.64-1.48,2.11.67.06,1.45.82.84,1.4-1.08.1-2.08.68-2.09,1.9,0,1.58,1.22,2.64,2.61,3.09.36.12.52.14.52-.31-.35-.89-.45-1.34.7-1.15.75-.36.85-1.42.67-2.16.07-.32.4-.16.61-.04,1.09.66.85,2.58.2,3.49-.37,1.04,1.28,3.19,1.55,3.45Z"/>
      <path class="cls-12" d="M50.98,20.77l-.32.18c2.37.29,3.56,3.57,1.33,4.87-.25.15-.75.32-.78-.09.25-.42.36-.95.06-1.36-.21.43-.63.75-1.1.77-.09,0-.18,0-.27-.02-.46-.09-.38-.31-.16-.62.38-1.65-1.7-1.47-2.77-1.17-.26.08-2.87,1.15-2.96,1.28l1.3.15c.64.32,1.16.4,1.74-.11.33-.57.73-.37.86.19.2.87-.4,1.57-1.1,1.84.11.22,1.14,1.12,1.38,1.27.48.3.96.36,1.49.16.08-.04.14-.08.21-.11.38-.19.54-.17.49.43-.02.23-.09.44-.2.62-.51.87-1.87,1.27-2.77.98-.08,1.48-1.42,2.82-2.92,2.74-.26-.01-.79-.17-.63-.49.48-.31.71-.78.72-1.35-.74.37-2.17-.03-2.24-.97-.03-.5.14-.47.53-.31,1.3.06,1.41-1.48.62-2.29-1.53-1.56-4.24-.55-5.87.29-.76.39-3.05,2.22-3.85,2.57-.9-.19-1.46-.52-2.08-.86.14-.27.74-2.5.17-3.3-.48-.69-.54-2.69.33-3.08.18-.08.36-.15.43.09-.15.85.21,1.71.96,2.12.52-.23.83-.17.93.17-.43,1.31-.07,1.63,1.16.73,1.68-1.23,2.44-3.72.07-4.51-1.55.04-1.14-1.16-.12-1.6-.79-.38-1.7-.97-1.73-1.96-.02-.61.09-.75.67-.41.36.13.88.17,1.21.09-.01-.34.04-.72.18-1.02.21-.44.23-.44.7-.32.87.21,1.56,1.02,1.83,1.85.57-.55,1.87-.87,2.24.01-.5.45-.75.99-.64,1.68.53,1.53.33,2.92-.36,4.31,2.81-1.21,4.62-4.45,3.31-7.48-.64-1.48-1.88-2.43-3.5-2.43-.2-1.21,1.36-1.78,2.34-1.43-.12-.47-.42-.9-.85-1.13-.93-.32-1.7-.82-2.3-1.5-.21-.34-.45-1.06-.03-1.28.56.2,1.15.27,1.7.1-.08-.38-.13-.76-.15-1.15-.08-.25-.16-.49-.23-.74.98-.39,2.09.3,2.73,1.06.15-.31.36-.56.6-.74,1.33.52,1.75,2.31,1.26,3.58.72-.66,1.92-1.15,2.87-.73.22.1.47.23.55.48-.36.32-.64.69-.86,1.1-.18.54-.44,1.03-.76,1.5.67-.28,1.71-.3,1.94.54-.89.56-1.51,1.37-1.73,2.43l-.51,2.74c-.18.94-.53,1.85-.98,2.68.92-.46,2.39-1.49,2.01-2.68-.47-.6.11-.79.64-.66.36.26.46.16.3-.31-.26-.33-.21-2.15.07-2.31.24-.13.84.26,1.03.43.37-.54.5-1.23.37-1.92,0-.12.06-.14.17-.16.39-.05.88.36,1.29.89.47.62.83,1.42.79,1.88.46-.48.84-.81,1.36-.18.15.19.22.41.26.64.54-.36.84-.36.96.36.28,1.66-2.09,2.7-3.37,2.95Z"/>
      <path class="cls-9" d="M16.61,21.45s0,0,0,0c0,0,0,0,0,0Z"/>
      <path class="cls-9" d="M35.89,17.37s0,.01,0,.02c0,0,0,0,0-.02Z"/>
      <path class="cls-13" d="M26.13,25.96c-.11.33-.4,1.59.18.8.06.51.16.91.4,1.31-.86.08.26,0,.58.28,0,0-.95.61-.95.61-.11-.26-.65-.52-.17-.66-.05-.04-1.23-.97-.92-.49,1.03,1.25-1.3-.58-1.69-.74-.44-.31.52,0-.39-.44.29.9-1.71-.85-2-1.16-1.06-1.13-1.23-2.63-.82-4.08-.48.3-.08-.67,0-.87.49-.79.81-1.6.84-2.57l-.4,1.12c-.37-.71.15-1.28.16-1.94,1.13-1.16,1.32.18.98,1.25.72-.56,1.37-.38,2.14-.77-.11.34-.16.97-.56,1.1-.22.08-.73.59-.8.11-.15-.26-1.33.47-1.38,1.67.13,0,.58-.5.43-.1.76-.29,1.72-.31,1.88.59-.67-.37-1.57-.48-2.14-.01,3.1-.73-3.32,2.08,1.55,5.21,1.04.8,3.17.71,1.87-1,1.21.28,1.92-1.11,1.64-2.3,1.17,1,.13,2.09-.41,3.09Z"/>
      <path class="cls-13" d="M32.48,25.81c-.4-.77-.95-1.4-.15-2.4-.13,1.1.6,2.67,1.82,2.07-1.02,2.56,2,1.5,2.8.15,1.23-1.32,1.06-3.75-.83-4.39.73-.23-.61-.39-.96-.08.13-.97,1.31-.83,1.99-.53-.52-1.24-1.07-1.1-2.46-1.78-1.25-1.26.81-.77,1.76-.36-.4-.59-.37-2.19.47-1.55.89.18.92,2.84.36,1.03,0,0,.08.75.08.75-.11.43.54,1.2.78,1.5,1.06,1.7.34.98.62,2.83.31,3.77-6.85,5.98-4.91,5.75.22.47-.69.51-.89.08.88-1.1.32-2.34-.47-3.06Z"/>
      <path class="cls-13" d="M14.23,23.58c-.86-.84-1.75-1.02-2.76-1.82-.69-.76-.61-3.2-1.23-.77-.81-1.1.17-2.43-.46-3.56-1.87,2.84-1.42-4.14-2.31-.2-1.38,6.06,5.58,3.49.55,6.55-.53.32,1.12-.45,1.73-.49,1.41-.09,3.14.03,4.48.3Z"/>
      <path class="cls-13" d="M44.89,22.74c.68-.99,1.72-.99,2.56-1.98.53-.88-.02-3.25,1.06-.99.58-1.24-.64-2.35-.23-3.58,2.38,2.42,1.14-4.01,2.23-.65,1.92,5.9-4.81,4.52.71,6.53.58.21-1.19-.22-1.79-.14-1.41.19-3.27.3-4.54.82Z"/>
      <path class="cls-13" d="M5.86,19.71c-.45-.08-.67.41-1.14.27-.88-.55-.36-.48.34-.45-.21-.95.58-1.25,1.05-.47-.19.16-.4.38-.25.65Z"/>
      <path class="cls-13" d="M26.93,29.46l-.37.38-.21-.18c.17-.24.34-.35.59-.43l.11-.05s.02-.12,0-.13c-.04-.01-.14,0-.17.03-.19.18-.5.32-.7.03.73-.67,1.27-.55,1.18-.44l-.18.22c.31.12.59.15.74.56l-.63.29-.35-.28Z"/>
      <path class="cls-13" d="M15.65,23.73c.95.83,1.97,1.47,3.12,1.76-.5-.35-1.26-.46-1.6-.99,1.91.61-1.33-1.33-1.64-2.06-2.18-2.52-1.38-7.89,2.38-8.24-.57-1-1.9-.82-2.7-.09.03-.45-.21-1.51-.64-.84.33-1.67,1.64-2.6,2.82-2.81-.69.72.57.23.91.02-.17-.06.22-.81.25-.93-.9.37-1.59.07-2.47.51,1.68-2.56-.77-2.81-1.55-.37-.14-.49-.49-.81-.79-1.18-.34.16-.34,2.2-.04,1.41.35.69.19,1.53,1.02.55-.56,1.04-.89,2.21-1.1,3.37-.12-.25-.52-.07-.55-.41,1.48-.92-2.18-2.61-3.16-1.6,2.67.27,3.1,4.23,3.49,2.37-1,3.04-.21,7.25,2.24,9.52Z"/>
      <path class="cls-13" d="M43.07,23.21c-1.17,1.27-4.17,3.11-1.44.93-1.84.8,1.19-1.46,1.43-2.22,1.92-2.73.59-7.99-3.18-7.96.47-1.05,1.81-1.01,2.68-.36-.07-.45.06-1.53.55-.9-.49-1.63-1.89-2.42-3.09-2.51.76.65-.55.29-.9.12.16-.08-.3-.79-.35-.9.93.27,1.59-.09,2.51.26-1.92-2.38.49-2.87,1.5-.52.09-.5.4-.86.67-1.25.36.13.56,2.16.18,1.4-.28.72-.03,1.54-.96.65.66.98,1.11,2.11,1.42,3.25.1-.26.51-.12.5-.47-1.56-.76,1.91-2.81,2.99-1.91-6.09,3.25.24,7.31-4.52,12.41Z"/>
      <path class="cls-17" d="M4.12,19.57s-.09-.04-.15-.06c.06.02.1.04.15.06Z"/>
      <path class="cls-8" d="M40.31,44.21s-.01.03-.02.04c-.01.02-.03.04-.05.06.02-.02.04-.04.05-.06,0-.01.01-.03.02-.04Z"/>
      <path class="cls-1" d="M40.29,44.25s.01-.03.02-.04c0,.01-.01.03-.02.04-.01.02-.03.04-.05.06.02-.02.04-.04.05-.06Z"/>
      <path class="cls-13" d="M12.31,28.65l-.38.46c-.26.32-.64.67-1.02.84-.53.23-1.21.09-1.49-.43,1.11.37,1.94-.25,2.78-1.02.05-.04.14.1.1.16Z"/>
      <path class="cls-13" d="M47.15,28l.45.38c.31.26.75.54,1.15.63.56.13,1.21-.14,1.38-.7-1.02.58-1.96.12-2.92-.48-.05-.03-.12.13-.07.17Z"/>
      <path class="cls-13" d="M44.29,27.38l.07,1.75c.01.3-.16.75-.44.84l-.93.09s.18.73,1.37.42c0,0,.98-.14.46,1.14,0,0-.63,1.13.23.68,0,0,2-.87,1.84-2.34-.16-1.47-.99-2.7-.99-2.7,0,0,.27,1.68-1.61.12Z"/>
      <path class="cls-13" d="M15.1,28l-.02,1.76c0,.3.18.74.46.83l.94.07s-.17.74-1.36.46c0,0-.99-.12-.43,1.15,0,0,.66,1.12-.22.68,0,0-2.02-.82-1.9-2.29s.92-2.73.92-2.73c0,0-.23,1.68,1.61.07Z"/>
      <g>
        <path class="cls-2" d="M84.83,38.84c6.07,1.45,15.01,5.24,18.04-.29,1.03,1.36.11,3.12-1.17,4.15-5.12,4.12-12.56,1.04-18.69-.92-2.89,3.89-6.6,6.97-11.23,8.17-3.14.82-6.27.86-9.11-.59-2.5-1.27-3.37-4.05-1.91-6.47,2.91-4.85,10.54-6.3,16.38-5.55l3.16.4,3.51-7.37c-5.24,3.97-11.2,6.19-17.32,3.84-3.91-1.5-6.13-5.16-5.52-9.38.45-3.12,1.82-5.86,3.89-8.33,5.34-6.4,13.13-10.52,21.44-11.19,2.52-.2,4.88.15,7,1.18,2.94,1.43,3.86,4.75,2.16,7.59-3.55,5.93-13.86,8.93-17.85,5.95-.21-.16.2-1.14.49-1.05,5.37,1.61,11.76-1.49,13.87-6.42.42-.98.5-2.34,0-3.3-1.32-2.51-5.84-2.29-9.19-1.01-6.01,2.29-11,6.67-14.24,12.26-1.1,1.9-1.8,3.96-1.96,6.07-.25,3.3,2.01,5.71,5.18,6.03,6.44.64,12.66-4.77,16.15-10.27,1.68-1.15,4.19-1.45,6.21-1.18-1.08,1.38-1.99,2.35-2.6,3.64l-6.69,14.03ZM78.65,40.35c-4.96-1.46-11.87-1.31-14.6,2.66-.7,1.01-.95,2.26-.45,3.46.3.73,1.32,1.56,2.36,1.84,4.9,1.33,9.93-3.61,12.69-7.96Z"/>
        <g>
          <path class="cls-2" d="M94.9,34.26c0-1.73,3.83-8.55,5.08-9.85-1.54.38-3.04.59-4.45,1.3l-.83-.34c.54-1.14.71-1.64.71-2.95,0-1.39.29-3.03,1.29-4.08.54-.59,1.5-1.35,2.33-1.35.58,0,.79.42.79.97,0,1.05-.21,1.43-.5,2.32h.12c1.46,0,3.75-.59,5.04-1.26.04.34.04.63.04.97,0,.88-.08,1.85-.29,2.74-2.16,1.85-4.16,4.8-4.16,7.79,0,.17-.04.5.21.5,1.17,0,5.37-5.81,6.16-6.69l.71.93c-2,2.57-7.37,10.19-10.91,10.19-.79,0-1.33-.34-1.33-1.18Z"/>
          <path class="cls-2" d="M103.6,31.32c0-1.01.12-2.02.33-3.03.87-4.13,5.99-10.27,10.45-10.27,1.75,0,3.37.97,3.37,2.91,0,.97-.33,1.94-.79,2.78-1.79,3.49-4.79,5.43-8.74,5.14-.17.46-.29.97-.29,1.47,0,1.26.83,2.11,2.08,2.11,3.62,0,7.78-5.94,9.74-8.63l.33,1.47c-2,3.28-8.41,10.36-12.45,10.36-2.58,0-4.04-1.77-4.04-4.29ZM108.97,27.4c2.75,0,5.41-2.91,5.41-5.6,0-.5-.21-.97-.75-.97-1.83,0-4.37,5.05-4.87,6.57h.21Z"/>
          <path class="cls-2" d="M116.67,31.32c0-1.01.12-2.02.33-3.03.87-4.13,5.99-10.27,10.45-10.27,1.75,0,3.37.97,3.37,2.91,0,.97-.33,1.94-.79,2.78-1.79,3.49-4.79,5.43-8.74,5.14-.17.46-.29.97-.29,1.47,0,1.26.83,2.11,2.08,2.11,3.62,0,7.78-5.94,9.74-8.63l.33,1.47c-2,3.28-8.41,10.36-12.45,10.36-2.58,0-4.04-1.77-4.04-4.29ZM122.04,27.4c2.75,0,5.41-2.91,5.41-5.6,0-.5-.21-.97-.75-.97-1.83,0-4.37,5.05-4.87,6.57h.21Z"/>
          <path class="cls-2" d="M135.95,33.5c0-2.61,2.5-5.64,2.5-7.45,0-.17-.04-.38-.25-.38-.29,0-.58.25-.79.38-2.5,1.64-4.95,5.43-6.33,8.04-1.12.5-2.37.84-3.62.88,2.21-5.26,4.5-10.48,6.74-15.7,1.62-.34,3.29-.59,4.95-.63-1,1.94-1.96,3.87-3,5.81l.12.08c1.58-1.56,5.87-5.47,8.12-5.47.5,0,.75.25.75.76,0,1.85-3.95,7.7-3.95,10.69,0,.13.04.34.21.34,1,0,5.29-5.56,6.08-6.61l.62,1.01c-1.54,2.27-7.91,10.15-10.66,10.15-1.08,0-1.5-.93-1.5-1.89Z"/>
          <path class="cls-2" d="M144.65,31.32c0-1.01.12-2.02.33-3.03.87-4.13,5.99-10.27,10.45-10.27,1.75,0,3.37.97,3.37,2.91,0,.97-.33,1.94-.79,2.78-1.79,3.49-4.79,5.43-8.74,5.14-.17.46-.29.97-.29,1.47,0,1.26.83,2.11,2.08,2.11,3.62,0,7.78-5.94,9.74-8.63l.33,1.47c-2,3.28-8.41,10.36-12.45,10.36-2.58,0-4.04-1.77-4.04-4.29ZM150.02,27.4c2.75,0,5.41-2.91,5.41-5.6,0-.5-.21-.97-.75-.97-1.83,0-4.37,5.05-4.87,6.57h.21Z"/>
        </g>
      </g>
    </g>
  </g>
</svg>