<?xml version="1.0" encoding="UTF-8"?><svg id="Layer_2" xmlns="http://www.w3.org/2000/svg" viewBox="0 0 97.79 38.95"><g id="Layer_2-2"><path d="M56.98,29.38l-4.91-1.86,2.82-6.18c.43-.94.89-1.7,1.74-2.54-1.32-.59-2.56.07-3.21,1.28-1.09,2.01-3.19,4.42-5.42,4.58-1.04.08-1.83-.63-1.94-1.63-.15-1.44.28-2.93,1.07-4.15,3.76-.25,9.55-1.78,10.62-5.01.35-1.05-.16-2.04-1.25-2.28-4.03-.88-9.03,2.54-11.24,6.28-2.24-.07-4.6-1.42-4.31-3.2.12-.75.58-1.22,1.21-1.65-1.33-.18-2.34.74-2.64,1.82-.65,2.34,2.27,3.63,5.07,4.05-.76,2.25-1.37,4.38.2,5.97.7.71,1.76.95,2.78.92,1.79-.06,2.94-1.11,4.34-2.21l-1.75,3.5c-1.94-.19-3.72-.28-5.59.23-2.23.61-4.34,2.4-3.7,4.26.64,1.86,3.82,1.93,6.15.8,1.82-.89,3.14-2.14,4.41-3.81,2.23.67,4.13,2.25,6.3,2.18,1.16-.04,2.4-.5,2.53-1.77-1.05.58-2.18.85-3.27.44ZM52.6,12.98c1.4-.77,3.25-1.09,3.73-.28.12.2.15.76.05.97-1.31,2.73-5.41,4-8.73,4.2,1.2-2.08,2.9-3.75,4.96-4.89ZM43.24,32.17c-.18-.02-.4-.09-.6-.18-.04-.02-.09-.04-.13-.06-.03-.01-.05-.03-.08-.05-.04-.02-.08-.05-.11-.07-.12-.08-.22-.17-.29-.25-.23-.29-.25-1.24-.04-1.56,1.38-2.11,4.75-2.56,7.5-1.96-1.47,2.29-3.71,4.39-6.25,4.14Z" style="fill:#468920;"/><path d="M63.2,26.82c-1.09-1.66-.92-3.61-2-5.28,2.23-.57,3.83-2.64,3.11-4.11-.78-1.61-3.95-1.11-6.5-1.04.3.39.7.89.61,1.17-.31.98-.73,2.14-1.25,2.91-.34.52-.31.52-.4,1.12-.15.99-.65,2.18-1.11,3.16-.14.31-.74.6-1.21,1.1l3.76.03-.62-1.03,1.21-3.17c2.17.31.54,5.31,3.92,6.61,1.1.43,2.27.41,3.12-.51-1.1.28-2.02.02-2.65-.94ZM59.25,20.87c.26-1.14.62-2.39,1.21-3.46.38-.69,1.84-.26,2.06.45-.06,1.69-1.26,3.14-3.27,3.01Z" style="fill:#468920;"/><path d="M90.15,16.42c-.88.71-1.28,1.07-1.58,1.87l-2.79,7.5-1.1.03-1.82-6.92-2.05,5.1c-.27.67-.15,1.07.41,1.79l-3,.03c.72-.64,1.21-.95,1.45-1.6.35-.93.71-1.82.93-2.71.12-.49.13-.61.45-1.13.42-.71.92-2.18,1.1-2.92.05-.21-.29-.67-.51-1.06l2.69-.12,1.6,6.1,1.95-4.95-.59-1.05c1.05-.07,1.95-.07,2.87.03Z" style="fill:#468920;"/><path d="M72.79,16.31c-.19.99-.35,1.6-.63,2.51l-.69-1.4c-.75-.33-1.69-.36-2.54-.22l-1.23,3.05c1.11.45,1.6-.15,2.63-.89-.31,1.1-.65,2.03-1.08,3.11l-.54-1.05c-.11-.22-1.1-.16-1.36-.01-.47,1.05-.94,2.34-1.35,3.58,1.04.15,2.26.27,3.02-.34l1.85-1.49-.98,2.7h-7.05c.84-.73,1.3-1.04,1.6-1.89l.85-2.35c.04-.11-.36-.49-.28-.57.11-.11.49-.36.59-.53.5-.81,1.08-2.38,1.29-3.38-.31-.27-.46-.52-.43-.79l6.33-.04Z" style="fill:#468920;"/><path d="M97.21,16.31c-.11.9-.25,1.51-.58,2.52l-.74-1.51c-.86-.14-1.55-.17-2.48-.15l-1.21,3.21c1.33.25,1.5-.37,2.61-.98l-1.11,3.13c-.34-.72-.4-.96-.61-1.16-.21-.2-1.24-.07-1.35.22l-1.29,3.34c.99.3,2.35.25,3.19-.36l1.64-1.47c-.25,1.06-.54,1.78-.99,2.78l-7.1-.02c.77-.61,1.26-.82,1.52-1.49l1.04-2.72c-.04-.15-.29-.6-.19-.68l.56-.44c.83-1.55,1.68-3.18.72-4.16l6.37-.04Z" style="fill:#468920;"/><path d="M80.44,16.32c-.19,1.06-.28,1.46-.61,2.56l-.72-1.45c-.66-.34-1.82-.46-2.62-.18l-1.14,3.01c1.07.45,1.6-.25,2.63-.89l-.97,2.85c-.02.07-.4.12-.42.05l-.1-.65c-.06-.39-1.41-.47-1.57-.11-.54,1.22-.87,2.19-1.31,3.47.98.13,2.15.23,2.99-.27.71-.42,1.09-1,1.88-1.58l-.99,2.74-6.92-.02,1.11-.95,1.24-3.15c-.27-.57-.13-1,.43-1.27l1.19-3.03-.56-1.11h6.45Z" style="fill:#468920;"/><path d="M53.59,5.08l-.82.47v5.92s-2.64,1.23-2.64,1.23c0-.4.25-.67.87-.81.05-1.61.06-3.07-.04-4.92l-1.91,3.6c-.27.07-.89.09-1.27.07l-2.01-3.73v5.01c.36.05.92.14.93.33l.06.83-3.29-.02c-.02-.33-.06-.77.08-.83l.8-.4v-6.31s-.91-.39-.91-.39c-.18-.08.05-.81.25-.81l2.75-.04,2.2,4.34,2.18-4.32,2.55-.03c.19.01.41.75.23.85Z" style="fill:#275b0c;"/><path d="M97.79,4.29l-.03.82c0,.17-.39.24-.83.32l-.02,7.61-1.81.04-3.9-6.15v4.95s.96.27.96.27c.2.06.04.83-.11.89h-3.09c-.08-.15-.15-.69.01-.79l.77-.47.04-6.24-.79-.41c-.16-.09-.13-.59-.07-.83l2.74-.05,3.75,5.97.08-4.73-.88-.28c-.22-.07-.05-.87.16-.93h3.04Z" style="fill:#275b0c;"/><path d="M68.36,4.29l-4.34-.02c-.13.11-.31.68-.16.8.14.12.42.22.92.38v6.35c-.71.13-1.11.7-.86,1.23h4.21c2.68,0,3.96-2.18,3.97-4.55,0-2.23-1.3-4.19-3.73-4.2ZM68.91,11.58c-.57.37-1.61.31-2.34.22v-6.3c.99-.12,1.97-.14,2.67.43,1.19.97,1.34,4.56-.33,5.64Z" style="fill:#275b0c;"/><path d="M79.79,10.71l-.09,2.33h-6.5c-.03-.32-.11-.81.03-.88l.86-.38-.02-6.24-.68-.32c-.17-.08-.2-.44-.23-.94l6.39-.02v2.06c-.06.13-.77.33-.84.18l-.4-.95-2.41-.14v2.44s2.59-.01,2.59-.01l-.06,1.25-2.55-.02v2.81s2.67-.06,2.67-.06c.07-.5.16-.96.33-1.12.17-.15.72-.1.91,0Z" style="fill:#275b0c;"/><path d="M63.18,12.09l-.7-.3-2.88-7.52-1.83.02-2.45,6.73c1.03.14,1.3-.02,1.98-.28.75-.17,1.9-.09,2.74-.05l.44,1.22-.72.25c-.16.06-.08.87.11.87l3.44.03c.09-.32.06-.89-.13-.97ZM57.35,9.51l1.18-3.16,1.2,3.17h-2.37Z" style="fill:#275b0c;"/><path d="M87.7,13.04l-3.33.02c-.16-.01-.4-.72-.26-.79l.9-.44v-6.32s-.8-.3-.8-.3c-.19-.07-.08-.73.04-.9l3.5-.06v.84c0,.21-.46.31-.89.41l-.03,6.3.78.25c.2.06.19.68.08.98Z" style="fill:#275b0c;"/><path d="M35.72,24.83l-.3-.36-.55-.64-.31-.37-.47-.56-.38-.44-.11-.14-.41-.48-.16-.19-.25-.3-.25-.3-.22-.26c.08-.08.15-.21.14-.3,0-.03-.02-.06-.04-.1-.03-.05-.07-.1-.11-.13l-.18-.16-.08-.07-.15.12-.08.07v-.08s.03-.91.03-.91v-.03s.02-.6.02-.6v-.07s0-.03,0-.03v-.16s0-.17,0-.17v-.07s0-.22,0-.22h-.23s-.08,0-.08,0c.03-.05.06-.1.09-.15,0-.01.01-.02.02-.04.01-.02.03-.05.04-.07,0,0,0-.02.01-.03.05-.1.09-.19.12-.29,0-.01,0-.02.01-.04.05-.16.08-.32.09-.48.01-.15,0-.3-.02-.45,0-.01,0-.02,0-.04,0-.04-.01-.07-.02-.11-.05.02-.16.04-.15.01l.04-.1.06-.19.02-.07h0s0-.02,0-.02h-.02s0-.01,0-.01l-.23-.11h.13s.02-.01.02-.01h0s.21-.02.21-.02l.05-.74v-.04s.01-.13.01-.13v-.22s.01,0,.01,0v-.14s.02-.14.02-.14v-.03s0-.01,0-.01v-.02s0-.1,0-.1v-.05s0-.08,0-.08l.02-.34v-.05s0-.09,0-.09v-.22s.04-.44.04-.44v-.08s.01-.1.01-.1h0s.03-.55.03-.55l.02-.31v-.02s.06-.95.06-.95v-.06s.02-.32.02-.32h0s0-.04,0-.04l.02-.42h0s0-.05,0-.05h0s.01-.21.01-.21l.05-.72.05-.9.03-.46.03-.54.06-.99.05-.87.1-1.7.04-.82.06-.95c.02-.33.05-.64,0-.97,0-.04-.03-.14-.06-.15l-.19-.03.03-.4-4.17.58c-.13.02-.29.16-.38.24l-.46.38-.31-.11c-.27-.09-.49,0-.68.17l-.65.62-.49.48c-.17.16-.37.25-.6.28,0,0-.01,0-.02,0-.56.06-.76-.01-1.09-.52-.52.76-1.19,1.37-1.96,1.86-.01,0-.02.02-.04.02,0,0-.01,0-.02.01-.14-.14-.28-.26-.45-.32-.18-.07-.35.03-.48.13-.14-.09-.28-.14-.44-.17-.43-.39-.57.25-1.06.58-.04-.13-.09-.23-.16-.27-.06-.03-.23.03-.26.09-.24.48-.57.3-.77.71-.62-.03-1,.21-1.3.52-.25.25-.44.56-.67.8l-.37.39c-.18.2-.26-.04-.53-.09-.03,0-.06,0-.09,0,0,0-.02,0-.03,0-.04-.06-.14-.16-.2-.15-.07,0-.17.06-.24.11-.07-.08-.19-.18-.27-.18-.04,0-.09,0-.14.02-.07.02-.13.04-.17.08-.09.08-.17.16-.26.24-.02.02-.04.04-.06.06h0c-.18.18-.35.37-.53.56-.03.03-.05.06-.08.09-.12.13-.25.28-.42.33-.05.02-.11.01-.16.01h-.04s-.02,0-.03,0c-.08,0-.15.02-.2.11,0,0,0,0,0,0h0s-.07.23-.07.23h0s-.02.05-.02.05l-.03.1-.02.06-.03.09-.15.18-.11.13h0s-.06.08-.06.08h0s-.05.06-.05.06c-.03.04-.06.08-.08.12-.04.06-.08.13-.12.19-.05.08-.1.15-.17.21l-.34.28-.29.24-.07.06s0,0,0,0l-.2.17-.03.03-.05.04-.19.16-.02.02-.1.09h0s-.12.1-.12.1l-.03.02-.03.03-.43.35-.04.04-.14-.07-.13-.07h0c-.18-.1-.32-.17-.48-.33-.05.04-.1.08-.15.13,0,0-.01.01-.02.02,0,0-.01.01-.02.02,0,0-.01,0-.02.01-.02.02-.04.04-.06.06h0c-.07.07-.13.14-.19.21-.04.05-.08.09-.11.14-.03.04-.06.07-.08.11h-.03s-.02,0-.02,0l-.23.03h0s0,0-.01,0c-.02,0-.05.02-.08.04-.02.02-.04.03-.05.05,0,0,0,0,0,0-.06.12.09.33-.06.51,0,0-.01.02-.02.02-.06.06-.12.11-.18.16-.07.06-.14.11-.22.17-.08.05-.16.11-.24.16l-.02.11-.04.23c-.07,0-.14.01-.2.03h0c-.21.06-.35.19-.53.32-.02.02-.05.03-.07.05,0,0-.02,0-.03-.01-.28-.11-.55.02-.74.26,0,0-.01.01-.02.02-.08.11-.15.24-.19.38h-.14s-.06-.02-.06-.02h-.07c-.1.18-.22.33-.36.47-.07.06-.14.12-.21.18l-.32.24-.03.02h-.02c-.32.5-.57,1-.83,1.51l-.4.11c-.11.03-.29.14-.31.25l-.08.46-.6.28c-.16.08-.79-.12-1.01.51,0,0,0,0,0,.01-.06.14-.11.28-.14.42-.01.06-.02.12-.03.19-.01.11-.01.22,0,.33-.05.08-.09.16-.12.24-.03.08-.05.16-.06.24-.01.1,0,.2.02.3.02.05.05.09.08.14.07.11.17.2.28.27l.79.46h0c.34.21.57.49.7.86.02.05.04.1.07.15.07.12.15.24.26.33.14.13.31.22.5.27.06.01.11.02.17.03h.17s.27.04.27.04l-.05.4-.03.28s0,.02.02.03c.02.02.04.04.07.06.13.08.34.1.43.02,0,0,.02-.02.02-.03,0,0,.01-.02.02-.02.1-.13.18-.26.26-.38,0,0,0,0,0-.01.07-.11.16-.2.28-.24.06.25.17.45.34.62.01.02.03.03.05.04.07.07.15.13.24.18.49.29.75.53.95.95.03.07.07.15.1.23.03.08.06.17.09.26.04-.03.08-.05.12-.08h0s.01,0,.02-.01c.07-.06.14-.12.21-.2.02-.02.03-.03.05-.05.01.02.03.03.04.04.05.05.11.1.17.14.09.06.2.11.34.11-.03.27,0,.51.11.72.05.1.12.2.21.29l.43.45,1.19,1.24.16.16.4.39.2.2.24.24.14.14.6.59.21.21.26.26.44.43.5.49.07.07.13.13.08.08.46.49.03.03h0s.03.04.03.04l.12.14.02.02.14.16.89,1,.12.13.09.1.06.07.64.72.03.03.13.15,1.05,1.19.22.25c.07.03.19.04.29.02.06-.01.12-.03.16-.06l.29-.22.22-.08.28-.1.37-.13s.03.03.05.04c.33.26.75.36,1.14.22.02,0,.03-.01.05-.02l.16.19.23.26s.04.04.06.06c.09.1.19.2.29.3.13.12.26.23.41.32.26.16.27.41.41.63h0s.04.06.06.09c.05.06.12.12.21.18.03-.03.07-.06.11-.08.01,0,.02-.01.03-.02.21-.15.43-.25.67-.32.07-.02.13-.04.2-.05.04,0,.09-.02.13-.02.04,0,.09-.01.13-.02.01,0,.03,0,.04,0l-.02-.04v-.02s-.12-.23-.12-.23l-.05-.11c-.08-.16-.08-.31-.02-.45.03-.07.07-.14.13-.21.03-.03.06-.06.09-.09l.3-.28.13-.12.24-.23.02-.02c.18-.17.22-.41.27-.64.01-.07.02-.13.04-.2.03-.01.05-.03.08-.04.02-.01.05-.03.07-.05.08-.05.14-.12.2-.19.01-.02.02-.03.04-.05.11-.17.16-.39.09-.6,0,0,0,0,0,0l-.21-.04-.26-.04h-.01s0-.11,0-.11l-.02-.67.17-.15.06-.06c.08-.07.09-.19.12-.31,0-.04.02-.07.04-.1,0-.02.02-.04.03-.06,0-.01.02-.03.03-.04.02-.02.04-.03.06-.05.01,0,.03-.02.04-.02.01,0,.02-.01.03-.02h.02s.12-.05.12-.05l.06-.03.07-.03h.02s.32-.13.32-.13l.06-.02c.1-.04.3.01.5-.06.12-.04.24-.13.33-.32.02,0,.04-.02.06-.03.12-.05.25-.11.36-.18.02-.01.04-.03.06-.04.03-.02.05-.04.08-.06.24-.2.5-.29.79-.37.01,0,.02,0,.03-.01.06-.02.12-.04.17-.07.09-.04.17-.1.24-.17.04-.03.07-.07.1-.1.08-.1.14-.21.17-.34,0-.02.01-.04.01-.06.29-.1.55-.23.81-.39.12-.07.23-.15.35-.23.17-.02.32-.08.43-.19.06-.06.11-.12.15-.2.04-.08.06-.17.07-.26.51-.19.94-.6,1.47-.74.33-.09.66-.04.86-.42l.5-.29.47.36.47.36-.04.64c.24.02.45.04.59.21l.41.52.21-.39.06-.11.37-.67.04-.07.06-.11.11-.19.22-.39.22-.4.45-.81v-.02s-.31-.37-.31-.37Z" style="fill:#8eaf3e;"/><path d="M32.55,20.81c.06-.1.1-.21.08-.32,0-.05-.03-.11-.07-.17-.04-.06-.09-.13-.15-.18l-.38-.34-.04.03.04-1.2.02-.94h-.16s0,0,0,0c.05-.11.09-.21.13-.31,0-.02.01-.03.02-.05.05-.17.09-.35.1-.52.01-.16,0-.33-.02-.49,0-.01,0-.03,0-.04,0-.04-.02-.08-.03-.12l-.05-.19.04-.11h.1s.3-5.02.3-5.02l.05-.84.06-.98.32-5.46.04-.82.06-.95c0-.05,0-.1,0-.15.02-.28.04-.56-.01-.86-.01-.07-.05-.28-.23-.3h0s.03-.46.03-.46l-4.41.62c-.17.02-.33.16-.44.25l-.41.34-.21-.07c-.31-.11-.62-.04-.88.21l-.65.62-.49.48c-.13.13-.29.2-.49.23h-.02c-.48.06-.61.02-.9-.43l-.16-.24-.16.24c-.47.69-1.09,1.28-1.83,1.76-.14-.12-.27-.21-.41-.26-.18-.06-.36-.04-.55.08-.11-.06-.22-.1-.34-.12-.12-.1-.24-.14-.37-.13-.22.01-.36.19-.51.37-.06.07-.12.15-.19.21-.04-.05-.08-.1-.15-.13-.15-.07-.44.02-.51.17-.09.19-.2.24-.33.3-.12.06-.26.13-.38.3-.69,0-1.09.33-1.33.58-.14.15-.27.3-.39.46-.1.13-.19.24-.29.35l-.37.39s0,0,0,0c-.01,0-.03-.02-.04-.03-.07-.04-.17-.1-.31-.13-.02,0-.04,0-.06,0-.07-.07-.18-.16-.3-.16-.06,0-.13.02-.21.06-.1-.09-.2-.13-.29-.13-.06,0-.13,0-.19.02-.11.03-.19.07-.26.12-.09.08-.18.17-.26.25h0s-.02.02-.02.02c0,0-.01.01-.02.02l-.02.02c-.13.13-.26.27-.39.41-.05.05-.09.1-.14.16-.03.03-.05.06-.08.09h0c-.09.11-.21.25-.33.28-.02,0-.06,0-.11,0h-.04s-.03,0-.04,0c-.06,0-.24.01-.35.2h0s-.18.55-.18.55l-.35.42s-.07.09-.1.14c-.02.03-.04.07-.06.1-.02.03-.04.06-.06.09-.03.05-.08.12-.13.17l-.65.54h-.12v.1l-1.1.91-.18-.09c-.16-.08-.28-.15-.41-.28l-.12-.12-.13.1c-.05.04-.11.08-.16.13-.01,0-.02.02-.02.02,0,0-.01.01-.02.02,0,0-.01.01-.02.02-.02.02-.05.04-.07.07h-.01c-.07.08-.13.15-.2.22-.04.05-.08.1-.12.15-.01.02-.03.03-.04.05l-.19.03h-.02s-.02,0-.03.01c-.04.01-.09.03-.13.06-.04.03-.08.06-.1.09h-.01s-.01.04-.01.04c-.05.1-.03.21-.02.29.02.11.02.14-.02.18h0c-.05.06-.11.11-.17.16-.06.05-.13.11-.21.16-.06.05-.13.09-.2.14l-.09.06-.05.28s-.06.01-.08.02h-.01c-.21.06-.36.17-.5.28-.03.02-.05.04-.08.06-.32-.09-.64.04-.88.35,0,.01-.02.02-.02.03-.06.09-.12.19-.16.29l-.25-.02-.06.1c-.1.17-.21.31-.33.43-.06.06-.12.11-.19.16l-.4.29-.02.03c-.3.46-.54.93-.8,1.44l-.32.09c-.16.04-.41.19-.45.41l-.07.37-.5.24s-.08,0-.13,0c-.25,0-.78.02-.99.61,0,0,0,0,0,0-.07.15-.12.31-.15.46-.01.06-.02.13-.03.21,0,.1-.01.2,0,.3-.04.07-.08.15-.11.22-.04.09-.06.19-.07.29-.01.12,0,.24.02.36v.04c.04.06.07.12.11.17.09.14.21.25.34.33l.79.47h0c.3.18.5.42.61.76.02.06.05.12.08.18.08.15.18.27.3.38.17.15.37.26.58.31.06.02.13.03.2.03l.24.02-.06.54.02.05s.02.05.04.07c.03.04.07.07.12.1.17.11.5.16.67-.02l.05-.06c.07-.09.13-.18.19-.27.03-.04.05-.08.08-.12,0,0,0-.01.01-.02,0-.01.02-.02.03-.04.07.17.17.32.3.44.02.02.04.04.05.05.08.08.18.14.28.2.47.28.69.5.87.87.03.07.07.15.09.22.03.08.06.16.09.25l.08.24.21-.13s.09-.06.13-.09h.01s0-.01,0-.01l.06-.04h0s.05-.05.08-.08c.03.03.06.05.09.07.08.05.16.09.24.11,0,.24.04.45.14.64.06.12.14.23.24.34l1.63,1.7,3.16,3.11.72.77.03.04.15.17.02.02.13.15,1.8,2.02.87.98.43.49.15.17.04.02c.07.03.17.05.26.05.12,0,.24-.03.34-.08.02,0,.03-.02.04-.03l.27-.2.74-.26c.37.28.8.37,1.22.25l.37.42c.11.12.21.22.3.31.15.14.29.25.44.34.13.08.17.19.23.33,0,.01.01.03.02.04.04.1.09.21.17.31h0c.07.09.16.16.26.22l.12.07.1-.09s0,0,0,0c.03-.03.06-.05.09-.07.04-.03.08-.06.12-.08.16-.1.33-.17.52-.23.04-.01.08-.02.12-.03,0-.07.01-.14.03-.2.04,0,.09-.02.13-.02.04,0,.09-.01.13-.02.01,0,.03,0,.04,0l-.02-.04c.03-.07.07-.13.12-.19l-.11-.23v-.02c-.06-.1-.06-.19-.02-.29.02-.05.05-.1.1-.16.02-.02.04-.05.07-.08l.05-.05.35-.33.28-.26c.1-.09.16-.2.21-.3.07-.15.09-.32.12-.47,0-.03,0-.05.01-.08,0,0,0,0,0,0s0,0,0,0c.06-.04.12-.08.17-.12.08-.07.14-.14.2-.23.01-.02.02-.04.03-.06.12-.21.15-.45.08-.68v-.02s-.06-.13-.06-.13h-.02s-.11-.02-.11-.02l-.24-.04h-.06s-.02-.55-.02-.55h0s.16-.15.16-.15c.02-.02.03-.03.05-.05.02-.03.04-.06.06-.09.03-.07.05-.14.06-.2.02-.07.03-.13.06-.17,0,0,0,0,0,0,0,0,0-.01.01-.01,0,0,.02-.02.03-.02.01,0,.02-.01.04-.02l.67-.26s.07,0,.11,0c.1,0,.24,0,.38-.05.17-.06.3-.18.4-.35.13-.05.26-.11.38-.19.02-.01.04-.03.06-.04h0s.06-.05.09-.08c.22-.18.45-.26.72-.33.02,0,.03,0,.04-.01.07-.02.14-.05.21-.08.11-.05.2-.12.29-.19.04-.04.08-.08.12-.13.09-.11.16-.24.2-.38.25-.09.49-.21.74-.37.11-.07.22-.14.32-.21.19-.03.36-.11.49-.23.08-.07.14-.16.19-.26.03-.06.05-.13.07-.21.21-.09.41-.21.6-.33.25-.15.49-.3.75-.37.07-.02.14-.03.21-.04.24-.04.54-.09.74-.42l.35-.2.76.59-.04.73.19.02c.23.02.37.04.45.14l.59.75.78-1.42,1.09-1.96.07-.14-3.72-4.37ZM22.07,36.2c-.29.08-.54.2-.76.36-.02-.02-.04-.04-.05-.05-.06-.07-.1-.16-.13-.26-.07-.16-.15-.37-.38-.51-.13-.08-.25-.18-.38-.3-.09-.08-.18-.18-.28-.29l-.54-.61-.17.06c-.32.11-.67.04-.96-.19-.02-.01-.03-.02-.04-.04l-.08-.07-1.01.36-.32.23s-.15.05-.22.03l-1.24-1.4-1.98-2.22-.14-.16h-.01s-.11-.14-.11-.14l-.05-.05-.74-.79-3.17-3.11-1.63-1.69c-.07-.08-.13-.16-.18-.24-.09-.17-.12-.37-.09-.61l.03-.21h-.22c-.08,0-.16-.03-.23-.08-.04-.03-.09-.07-.14-.12-.01-.01-.02-.02-.03-.04l-.15-.17-.14.17s-.03.03-.04.05c-.04.04-.07.07-.1.11,0,0,0-.01,0-.02-.03-.08-.07-.16-.11-.25-.21-.45-.48-.72-1.03-1.03-.08-.05-.15-.1-.21-.16-.01-.01-.02-.02-.04-.04-.14-.14-.24-.32-.29-.54l-.05-.21-.2.08c-.19.07-.3.21-.37.31h0c-.03.05-.06.1-.09.15-.05.08-.1.16-.16.23l-.03.03s-.11,0-.17-.03l.09-.79-.64-.05s-.1-.01-.14-.02c-.15-.04-.29-.11-.42-.22-.09-.08-.16-.17-.22-.27-.02-.04-.04-.08-.06-.13-.15-.42-.4-.74-.78-.96l-.79-.47c-.08-.05-.16-.12-.22-.21-.02-.03-.04-.06-.05-.09-.01-.08-.02-.15,0-.22,0-.07.02-.13.05-.2.02-.07.06-.14.1-.2l.03-.05v-.06c-.01-.11-.01-.2,0-.3,0-.06.01-.12.02-.17.03-.13.07-.26.12-.38v-.03c.12-.32.35-.35.65-.36.11,0,.2,0,.27-.04l.69-.32.1-.55s.1-.09.18-.11l.49-.14.04-.07c.26-.52.51-.99.8-1.45l.35-.25c.08-.06.16-.13.23-.2.12-.12.23-.25.33-.41h.16s.16.01.16.01l.04-.14c.03-.12.09-.23.16-.32v-.02c.09-.09.28-.3.54-.2l.12.05.09-.06s.05-.03.07-.05c.03-.02.07-.05.1-.07.13-.1.23-.18.37-.21.05-.01.1-.02.16-.02h.16s.08-.42.08-.42c.06-.04.12-.08.17-.12.08-.06.16-.12.23-.17.07-.06.13-.12.19-.18.01-.01.02-.03.03-.03.15-.18.12-.37.1-.49,0-.01,0-.03,0-.05,0,0,0,0,0,0l.36-.05.05-.07s.05-.07.08-.11c.03-.05.07-.09.11-.13.06-.07.12-.13.18-.19h.01s.04-.05.05-.06c0,0,0,0,.01-.01l.05-.04s.01,0,.01-.01c.13.1.25.16.37.23l.41.21,2.07-1.71c.1-.08.16-.18.21-.26.02-.03.04-.07.06-.1.02-.03.04-.06.06-.09.02-.04.05-.07.07-.1l.39-.48.18-.54s.02,0,.04-.01h.05c.06,0,.14,0,.22-.02.16-.04.29-.16.4-.27l.54-.6s.07-.08.11-.12l.06-.06s.03-.04.05-.05c.08-.08.16-.16.25-.24,0,0,.03-.02.09-.04.03,0,.05-.01.08-.01.02,0,.07.05.14.12l.12.13.14-.1s.09-.06.11-.07c.02.02.04.04.05.06l.06.09h.11s0,0,0,0c.02,0,.04,0,.06,0,.07.01.12.04.17.08.1.06.31.19.53-.05l.37-.39c.11-.12.21-.25.31-.37.11-.14.23-.29.36-.42.33-.34.68-.48,1.16-.46h.13s.05-.11.05-.11c.06-.14.14-.17.26-.23.15-.07.34-.16.49-.45,0,0,.01,0,.02,0,.01.02.03.06.05.13l.08.25.22-.14c.19-.13.34-.3.45-.44.09-.1.19-.23.25-.23.02,0,.06.02.12.07l.04.04h.06c.13.03.26.08.37.15l.12.08.11-.09c.18-.14.26-.11.29-.1.12.04.24.13.38.27l.1.1.13-.06s.03-.02.04-.03l.03-.02c.74-.46,1.36-1.03,1.85-1.69.31.38.59.43,1.11.38.01,0,.02,0,.03,0,.28-.04.51-.15.71-.34l.49-.48.65-.62c.2-.2.37-.17.48-.13l.41.15.58-.48c.06-.05.19-.16.25-.16l3.93-.55-.03.34.27.04c.04.25.02.5,0,.77,0,.05,0,.1-.01.16l-.06.95-.04.82-.1,1.7-.14,2.4-.13,2.08-.04.68-.31,5.1-.92.08.75.35-.12.34.09.09s.05.05.13.06c.02.12.02.25.01.37,0,.14-.04.29-.08.43,0,0,0,.02-.01.03-.03.09-.07.18-.11.27,0,0,0,0,0,.01h0s-.02.05-.03.07l-.02.04s-.06.1-.09.14l-.2.3h.47s-.08,2.56-.08,2.56l.44-.35.13.12s.05.05.08.09c0,.01.01.02.01.03,0,.02-.03.08-.08.13l-.12.13,3.76,4.42-.83,1.5-.7,1.28-.23-.29c-.14-.18-.34-.24-.54-.27l.03-.56-1.13-.87-.66.38-.03.05c-.1.2-.24.23-.49.27-.08.01-.16.03-.24.05-.31.08-.59.25-.85.41-.21.13-.42.26-.63.33l-.11.04v.12c-.02.08-.04.14-.07.2-.03.06-.06.11-.1.15-.08.08-.19.12-.32.14h-.05s-.04.03-.04.03c-.11.08-.22.15-.34.22-.26.16-.51.28-.77.37l-.11.04-.02.11s0,.03-.01.05c-.02.1-.07.19-.13.27-.03.03-.05.06-.08.08-.06.05-.12.1-.2.14-.04.02-.09.04-.15.06,0,0-.01,0-.02,0-.3.08-.59.17-.87.41-.02.02-.04.03-.06.05h0s-.03.02-.05.04c-.1.06-.22.12-.34.17h0s-.03.02-.05.03l-.07.03-.03.07c-.07.16-.16.2-.22.22-.08.03-.17.03-.25.03s-.17,0-.25.03l-.66.26h-.01s-.08.04-.11.06c-.02.01-.04.03-.06.05-.01.01-.02.02-.03.03h0s-.03.04-.05.06c-.07.1-.09.21-.12.3,0,.02,0,.04-.01.06-.01.04-.02.07-.03.08l-.3.27.04,1.03.19.03h.05s.27.05.27.05c.01.14-.04.25-.09.33-.03.05-.06.09-.11.13-.04.04-.09.07-.14.11-.02.01-.04.02-.06.03l-.09.04-.02.09c-.01.06-.02.12-.03.18-.04.22-.07.43-.21.56l-.11.11-.57.54s-.08.07-.1.11c-.07.08-.13.17-.16.26-.08.2-.07.41.02.61l.08.16c-.09.02-.18.04-.27.06Z" style="fill:#174932;"/><path d="M29.97,21.99c-.16,0-.39-.03-.52-.17-.07-.08-.11-.17-.11-.28,0-.14.08-.26.15-.37.1-.16.14-.24.1-.29-.02,0-.16-.02-.28-.03-.18-.02-.39-.05-.55-.15-.2-.09-.47-.36-.5-.62-.02-.15.04-.29.17-.39.11-.07.22-.09.34-.11.11-.02.22-.04.3-.09.15-.11.22-.26.21-.47-.02-.33-.27-.71-.56-.87-.31-.18-.66-.28-1.07-.28-.45,0-.94.1-1.57.32-.81.29-1.61.75-2.44,1.4-.27.21-.74.32-1.42.32h-.16c-.5-.01-.77-.08-.88-.24-.06-.08-.07-.17-.05-.27.06-.22.09-.35.11-.44.03-.12.04-.2.11-.35.1-.23.12-.46.04-.72-.04-.15-.11-.28-.18-.41-.09-.17-.17-.35-.22-.56-.07-.32-.19-1.11.27-1.61.14-.11.24-.15.33-.15.26,0,.32.27.39.53.1.4.2.72.58.8.61.1.6.42.6.82,0,.15.02.15.06.15.14,0,.38-.13.55-.26.7-.52,1.08-1.24.96-1.83-.1-.46-.49-.79-1.13-.94-.26-.11-.4-.24-.44-.39-.06-.21.08-.4.19-.56.05-.06.13-.18.12-.21-.02-.04-.12-.11-.19-.17-.06-.05-.13-.1-.19-.15-.24-.21-.4-.45-.47-.71-.06-.31-.05-.49.05-.62.07-.09.18-.13.32-.13.09,0,.21.02.33.04.08.02.17.03.26.04h0c.16,0,.22-.11.32-.35.03-.08.06-.16.1-.23.13-.18.3-.27.5-.27.36,0,.76.31,1,.57.07.07.13.16.18.24.06.08.12.17.17.21.03.02.06.03.11.03.08,0,.18-.03.29-.06.13-.04.27-.08.41-.08.06,0,.11,0,.16.02.18.02.34.11.43.24.07.11.09.24.06.37-.03.1-.07.18-.1.26-.1.24-.19.46-.13.74.21.94.18,1.7-.09,2.37-.01.04-.03.09-.05.13,1.14-.58,1.91-1.73,2.04-2.97.11-1.1-.29-2.05-1.12-2.69-.23-.16-.49-.28-.79-.35-.18-.04-.65-.16-.6-.57.12-.57.74-.79,1.23-.81.12,0,.15-.03.15-.03-.01-.05-.24-.29-.42-.38l-.19-.1c-.5-.26-1.01-.53-1.33-1.03-.21-.37-.2-.7.04-.87.11-.06.22-.08.37-.08.06,0,.35.01.35.01.22,0,.25-.05.26-.2,0-.09-.01-.19-.03-.29-.04-.2-.08-.42.03-.62.13-.15.28-.21.46-.21.36,0,.77.24.93.34.2.16.33.24.4.24.02,0,.05-.01.1-.04.1-.05.23-.11.46-.12.77.25,1.04,1.13.98,1.85,0,.07-.01.14-.02.19.03-.01.07-.03.12-.06.24-.13.6-.27,1.01-.27.16,0,.31.02.45.07.34.1.52.33.46.59-.03.15-.12.28-.2.39-.2.29-.33.54-.45.79l-.11.22h.14c.15,0,.27,0,.37.04.31.08.42.26.44.39.04.21-.07.43-.32.64-.23.22-.42.47-.55.76-.16.36-.24.82-.33,1.27-.04.21-.08.42-.12.61-.08.39-.15.71-.29,1.1-.07.2-.15.39-.24.58.87-.58.84-.99.81-1.3-.04-.4.06-.61.69-.67-.03-.02-.06-.16-.07-.23-.02-.09-.03-.17-.03-.25v-.1c-.02-.36-.03-.85.29-1.03.08-.03.13-.04.19-.04.08,0,.16.02.24.03.06.01.12.03.17.03s.07-.01.1-.05c.08-.09.1-.27.12-.43.03-.27.07-.6.38-.66h0c.3,0,.51.2.65.33.28.28.53.67.66,1.03.05.14.08.21.1.23.17-.07.26-.09.36-.09.27,0,.46.18.64.35.07.07.15.09.23.12.13.05.3.1.4.27.19.35.1.75-.05,1.01-.4.71-1.21,1-1.93,1.26l-.06.02s.03.01.04.02c.05.02.1.05.13.06.57.28,1,.86,1.11,1.5.1.55-.05,1.07-.42,1.45-.17.19-.46.39-.72.39h-.12c-.27-.11-.25-.41-.24-.57,0-.04,0-.08,0-.12,0-.08,0-.1,0-.11,0,.03-.09.08-.15.11-.14.07-.32.16-.5.16-.09,0-.17-.02-.24-.06-.24-.14-.23-.41-.22-.6,0-.09,0-.18-.01-.24-.09-.25-.35-.39-.79-.39s-.96.14-1.26.27c-.31.12-.75.3-1.07.43.07.01.14.02.2.04l.45.1c.08.02.15.03.21.03.17,0,.3-.07.44-.14.14-.07.28-.15.46-.15h.11c.17.08.26.2.31.37.07.26.01.62-.14.82-.04.09-.14.19-.23.27-.14.13-.18.18-.16.23.18.28.58.54.75.64.12.08.24.11.41.11.12,0,.24-.02.35-.04.1-.02.2-.03.28-.03.29,0,.37.19.39.31.01.31-.09.59-.31.81-.3.32-.82.54-1.32.55-.23,0-.33.05-.38.15-.31.86-.96,1.46-1.71,1.56-.06.01-.14.02-.22.02Z" style="fill:#fff;"/><path d="M27.43,4.71c.28,0,.63.18.84.31.25.2.38.26.48.26.15,0,.23-.15.57-.16.64.22.86,1.04.82,1.68-.03.26-.04.4.06.4.05,0,.14-.04.28-.11.29-.15.61-.25.93-.25.14,0,.27.02.4.06.18.05.4.19.35.41-.03.15-.14.27-.22.39-.21.3-.36.64-.52.96-.11.23.08.23.28.23,0,0,.01,0,.02,0,.1,0,.21,0,.28.03.48.13.44.47.09.76-.25.23-.45.51-.59.82-.24.55-.31,1.3-.46,1.92-.07.38-.15.7-.28,1.08-.07.21-.16.42-.25.62-.07.15-.11.29-.02.29.04,0,.09-.02.17-.07,1.91-1.2.22-1.88,1.52-2,.2-.1.03-.45.04-.63,0-.31-.06-.85.21-1.01.03-.01.07-.02.1-.02.13,0,.28.06.41.06.09,0,.17-.03.23-.12.23-.26.06-.95.4-1.02h0c.2,0,.37.16.51.29.27.27.51.65.63.97.04.09.07.22.14.29.03.03.07.04.11.04.05,0,.1-.02.15-.03.08-.03.15-.05.22-.05.21,0,.36.15.54.32.17.17.46.13.59.34.14.26.09.6-.05.85-.42.74-1.35,1.01-2.08,1.28h0c-.17.13.22.24.32.31,1.01.51,1.44,1.89.66,2.71-.14.15-.39.34-.61.34-.02,0-.04,0-.07,0-.2-.07-.12-.35-.12-.52,0-.18-.04-.24-.12-.24-.16,0-.45.24-.7.24-.06,0-.11-.01-.16-.04-.25-.14-.09-.52-.16-.75-.13-.37-.51-.5-.94-.5-.47,0-.99.14-1.32.28-.38.14-.95.37-1.26.52-.06.03-.14.06-.17.11-.02.07.3.09.59.15.15.03.3.07.45.1.09.03.17.04.25.04.39,0,.6-.29.89-.29.03,0,.05,0,.08,0,.28.13.25.69.07.93-.11.24-.52.38-.41.66.18.3.54.56.82.73.16.1.33.13.49.13.24,0,.47-.07.63-.07.12,0,.21.04.23.17.03.73-.8,1.16-1.48,1.18-.21,0-.42.04-.52.24-.26.71-.81,1.37-1.6,1.48-.06,0-.12.02-.2.02-.22,0-.47-.06-.47-.29.02-.24.39-.51.22-.76-.18-.14-.63-.07-.88-.23-.24-.11-.61-.52-.32-.75.15-.09.44-.07.63-.2.58-.41.17-1.33-.36-1.61-.35-.21-.75-.3-1.15-.3-.55,0-1.12.15-1.62.33-.92.33-1.73.83-2.49,1.42-.31.25-.9.28-1.32.28-.06,0-.11,0-.16,0-.25,0-.86-.03-.78-.3.15-.51.1-.53.21-.77.12-.27.14-.54.05-.83-.1-.34-.32-.62-.39-.96-.11-.47-.11-1.09.24-1.46.09-.07.16-.1.22-.1.33,0,.1,1.15.94,1.32.5.08.47.28.47.71,0,.2.09.27.22.27.21,0,.5-.18.65-.29,1.33-.98,1.54-2.64-.23-3.05-.8-.35.14-.77-.02-1.08-.05-.11-.26-.22-.41-.36-.19-.17-.36-.38-.42-.64-.09-.44.02-.55.22-.55.15,0,.36.06.57.08.01,0,.03,0,.04,0,.35,0,.4-.41.54-.66.1-.14.22-.19.36-.19.32,0,.69.31.88.52.15.16.25.38.38.47.06.04.13.06.2.06.22,0,.46-.14.7-.14.04,0,.08,0,.12.02.25.03.43.18.37.42-.12.35-.32.64-.23,1.06.17.77.21,1.55-.08,2.28-.05.15-.16.4,0,.4.03,0,.08-.01.14-.04,2.24-1.07,3.08-4.36.99-5.96-.25-.18-.54-.31-.84-.38-.21-.05-.51-.14-.48-.4.09-.46.63-.65,1.08-.67.64-.03.06-.59-.21-.72-.53-.28-1.12-.54-1.45-1.07-.11-.19-.21-.5,0-.66.08-.04.18-.05.28-.05.11,0,.24.01.35.01.22,0,.41-.05.42-.36.02-.27-.16-.59-.02-.84.08-.09.2-.12.32-.12M27.43,4.39c-.22,0-.41.08-.55.22l-.03.03-.02.04c-.14.26-.09.52-.05.73.02.09.03.18.03.24,0,.03,0,.05,0,.06,0,0,0,0-.01,0-.01,0-.04,0-.08,0-.05,0-.1,0-.16,0-.07,0-.13,0-.19,0-.11,0-.28,0-.43.09-.35.24-.38.66-.13,1.1.34.55.9.84,1.39,1.09l.18.1c.06.03.12.08.18.13-.52.06-1.09.33-1.21.91-.05.4.19.65.71.78.27.06.52.18.73.33.78.6,1.16,1.5,1.05,2.54-.11,1.07-.72,2.06-1.59,2.64.19-.65.19-1.35,0-2.2-.05-.23.03-.4.13-.64.03-.08.07-.16.1-.25.05-.21.02-.39-.07-.53-.11-.17-.31-.28-.56-.31-.03,0-.09-.02-.17-.02-.17,0-.32.05-.45.09-.09.03-.18.06-.24.06-.04-.02-.1-.11-.14-.16-.06-.09-.12-.18-.2-.26-.09-.1-.59-.63-1.12-.63-.25,0-.47.12-.62.33-.06.11-.1.19-.13.28-.03.07-.09.23-.13.25-.11,0-.2-.02-.28-.04-.13-.02-.25-.04-.36-.04-.19,0-.35.06-.45.19-.17.21-.14.51-.09.74.08.3.26.58.52.81.06.05.13.11.2.16.03.02.06.05.09.07-.02.03-.04.06-.06.09-.12.17-.29.4-.22.69.06.2.22.36.5.49h.03s.03.02.03.02c.4.09.9.31,1.01.81.11.52-.25,1.19-.9,1.66-.13.09-.26.16-.35.2,0-.39,0-.82-.74-.94-.28-.06-.36-.3-.45-.67-.06-.26-.16-.65-.54-.65-.13,0-.26.05-.41.17l-.02.02-.02.02c-.51.55-.39,1.41-.31,1.75.05.22.14.41.23.59.07.13.13.26.17.39.06.22.05.41-.03.6-.08.17-.09.26-.12.38-.02.09-.04.21-.11.43-.04.15-.02.29.07.41.15.21.44.29,1.01.3h.17c.73,0,1.21-.11,1.52-.35.82-.64,1.6-1.09,2.4-1.37.6-.21,1.08-.31,1.51-.31.38,0,.7.08.98.25.26.14.47.47.49.75.01.19-.08.28-.15.33-.04.03-.14.05-.23.06-.13.02-.26.05-.38.12-.2.15-.28.34-.26.55.04.35.36.64.59.75.19.12.41.14.6.17.03,0,.07,0,.11.01-.01.02-.03.05-.04.07-.08.13-.17.27-.18.44,0,.16.05.3.15.41.17.18.44.22.64.22.09,0,.18,0,.25-.02.8-.11,1.5-.74,1.84-1.69,0,0,0,0,0,0,.01,0,.06-.02.23-.03.55-.01,1.1-.25,1.44-.6.24-.26.36-.57.35-.91-.05-.32-.26-.48-.55-.48-.09,0-.19.01-.3.03-.1.02-.21.03-.33.03-.13,0-.23-.03-.31-.08-.29-.17-.53-.37-.66-.54.03-.03.06-.06.09-.08.09-.08.2-.18.27-.32.16-.25.22-.63.14-.93-.06-.21-.18-.38-.36-.46l-.04-.02h-.04s-.1-.02-.14-.02c-.22,0-.38.09-.53.17-.13.07-.23.12-.36.12-.05,0-.1,0-.16-.02-.07-.02-.12-.03-.18-.04.2-.08.41-.16.59-.23.29-.12.78-.26,1.2-.26.36,0,.57.09.64.28,0,.03,0,.11,0,.18,0,.21-.02.56.3.75.1.06.21.08.32.08.18,0,.35-.07.49-.14,0,.2.01.52.35.64.08.02.12.02.17.02.4,0,.75-.34.84-.44.4-.42.56-.99.46-1.59-.11-.63-.5-1.2-1.04-1.53.64-.24,1.36-.57,1.74-1.23.17-.3.27-.76.06-1.16-.14-.23-.35-.3-.5-.36-.06-.02-.13-.04-.15-.07-.21-.2-.43-.41-.77-.41-.09,0-.18.02-.27.05,0,0,0,0,0,0l-.04-.09c-.14-.38-.4-.78-.69-1.08-.15-.15-.4-.39-.74-.39h-.06c-.42.09-.48.52-.51.8-.01.1-.03.28-.07.33,0,0,0,0-.01,0-.02,0-.06,0-.1-.02-.08-.02-.17-.04-.28-.04-.07,0-.14.01-.21.03h-.03s-.03.03-.03.03c-.4.24-.38.8-.37,1.18v.11c0,.07.02.17.04.27,0,.02,0,.04.01.06-.33.06-.5.19-.58.37.04-.17.07-.35.11-.54.08-.44.17-.9.31-1.24.12-.26.29-.5.51-.71.28-.23.41-.51.36-.78-.03-.14-.15-.4-.58-.52-.07-.03-.17-.04-.27-.04.12-.25.24-.48.38-.69l.04-.06c.08-.12.19-.27.23-.45.07-.34-.16-.65-.58-.78-.15-.05-.32-.07-.49-.07-.37,0-.71.11-.95.22.02-.77-.28-1.66-1.04-1.92l-.06-.02h-.06c-.27.01-.43.09-.53.14-.02,0-.03.02-.05.02.01,0-.06-.04-.27-.19-.23-.15-.65-.38-1.04-.38h0ZM31.07,13.62s0-.01,0-.02c.12-.33.19-.63.26-.94,0,.06,0,.12,0,.19.02.2.04.44-.27.77h0Z" style="fill:#fff;"/><path d="M10.06,22.36c-.73-.01-1.45-.43-1.82-1.06l-.06-.1c-.07-.13-.14-.25-.24-.31-.11-.07-.26-.07-.42-.07h-.15c-.45-.02-.89-.21-1.2-.52-.15-.15-.29-.43-.24-.67.03-.14.11-.25.24-.3.06-.02.12-.04.2-.04h.22c.46,0,.91-.19,1.21-.53.08-.08.12-.15.13-.21.04-.19-.14-.39-.32-.58-.2-.21-.36-.49-.33-.75.01-.14.07-.26.18-.35.09-.07.2-.11.33-.11.15,0,.3.05.43.09.22.07.37.09.52.09.27,0,.55-.07.78-.2-.59-.25-1.21-.42-1.84-.5-.14-.02-.29-.04-.43-.04-.17,0-.31.02-.44.07-.22.08-.46.28-.48.54,0,.05,0,.11,0,.16,0,.19.02.44-.19.58-.07.05-.16.08-.27.08-.12,0-.25-.04-.36-.07-.08-.02-.17-.05-.23-.05-.05.05-.03.13-.01.19.03.13.08.33-.1.46-.06.04-.13.06-.22.06-.42-.04-.74-.23-.98-.53-.28-.36-.42-.83-.36-1.27.08-.61.46-1.18,1.05-1.61-.42-.13-.83-.27-1.23-.47-.59-.29-.92-.67-.97-1.1-.07-.7.63-1.24,1.35-1.36.13-.02.23-.04.28-.08.07-.06.1-.18.13-.31.12-.51.39-.91.74-1.17.08-.06.19-.13.32-.13.35,0,.44.34.5.59.05.19.09.38.21.42.02,0,.04,0,.06,0,.06,0,.1,0,.14-.02.07-.01.14-.03.22-.03.49.06.62.53.6.95-.01.28,0,.61.2.69.11.03.16.05.2.07.26.12.32.42.36.65l.02.11c.09.42.41.79.82.94l-.59-1.69c-.3-.85-.63-1.82-1.31-2.49-.14-.14-.47-.47-.29-.8.12-.22.37-.25.57-.27.09,0,.18-.02.24-.04l-.75-1.15c-.06-.09-.14-.21-.13-.37.01-.22.2-.39.5-.46.2-.05.41-.07.61-.07.28,0,.55.04.82.13-.04-.46.04-.93.22-1.36.18-.42.47-.67.79-.67h0c.09,0,.17.02.24.03.05.01.1.02.15.02h0c.21,0,.39-.15.58-.3l.17-.14c.18-.13.41-.21.61-.21.23,0,.41.1.5.28.1.19.06.4.03.58-.03.19-.05.3.02.37.02.02.05.04.13.04.07,0,.16-.02.25-.04.1-.02.21-.04.32-.04.14,0,.26.04.35.13.11.1.16.25.16.43,0,.42-.29.83-.82,1.18l-.24.15c-.3.18-.58.36-.76.62-.04.05-.04.09-.04.1.15.02.26.03.36.03.19.01.39.02.58.1.21.08.39.27.46.48.05.16.03.32-.05.45-.12.18-.32.25-.48.31-.87.3-1.5,1.13-1.64,2.07-.12.85.14,1.8.72,2.62.45.64,1.02,1.07,1.61,1.22-.28-.59-.41-1.26-.38-1.91l.02-.22c.03-.39.06-.76-.14-1.02-.12-.14-.2-.24-.22-.37-.02-.12.02-.25.1-.35.12-.14.32-.23.52-.23.1,0,.2.02.3.03.08.01.17.03.25.03.04,0,.08,0,.11-.01.24-.05.4-.28.56-.53l.1-.14c.17-.23.48-.5.81-.5.11,0,.22.03.32.09.15.1.24.26.31.4.09.16.15.26.24.28,0,0,.02,0,.03,0,.11,0,.2-.03.28-.06.11-.04.22-.08.34-.08.11,0,.2.03.28.1.13.11.19.3.15.53-.05.37-.24.72-.52.97-.09.08-.2.18-.19.23,0,.03.06.07.11.1.06.04.12.09.17.15.08.1.11.23.09.36-.03.18-.14.36-.3.47-.12.09-.25.14-.38.19-.09.03-.18.07-.26.12-.46.27-.57.9-.41,1.37.16.45.53.85,1.1,1.19.11.07.26.11.37.11.13,0,.15-.06.16-.08.02-.04,0-.11,0-.18-.02-.11-.04-.25.03-.39.09-.17.27-.22.42-.27.36-.12.57-.39.59-.69,0-.28.02-.65.34-.71.02,0,.04,0,.06,0,.09,0,.14.01.2.04.47.19.65.76.61,1.2-.02.29-.11.55-.2.81-.05.14-.09.27-.13.41-.15.58,0,.92.33,1.33,0,0,.16.25.16.25.15.21.31.49.21.73-.09.24-.37.34-.79.43-.12.03-.25.04-.38.04-.41,0-.84-.13-1.3-.38-.27-.15-.52-.32-.77-.5-.2-.14-.4-.27-.6-.4-.8-.48-1.73-.73-2.67-.73-.17,0-.34,0-.51.03-.65.07-1.1.27-1.34.62-.14.21-.17.51-.07.76.04.1.15.29.36.33.17.02.27.03.36.08.14.08.23.22.24.39.01.23-.1.48-.29.61-.17.12-.36.18-.55.23-.1.03-.2.06-.29.09-.07.03-.09.05-.09.06-.01.03.06.11.12.17.1.1.22.23.24.4.01.12-.02.23-.1.32-.14.16-.39.22-.57.22h-.01Z" style="fill:#fff;"/><path d="M11.08,4.9c.15,0,.29.06.36.19.16.31-.17.76.08.99.07.06.15.08.24.08.18,0,.39-.08.57-.08.09,0,.18.02.24.09.08.08.11.2.11.31,0,.45-.38.8-.75,1.05-.37.24-.8.45-1.05.82-.06.09-.1.21-.04.29.04.04.09.06.15.07.29.05.59.02.86.12.27.11.49.44.34.69-.1.15-.29.2-.46.26-.91.32-1.55,1.23-1.69,2.18-.13.96.19,1.94.74,2.73.48.69,1.2,1.27,2.03,1.34-.37-.63-.55-1.38-.51-2.11.03-.46.12-.98-.16-1.35-.07-.1-.17-.18-.19-.3-.04-.23.23-.38.46-.38h0c.18,0,.36.06.54.06.05,0,.09,0,.14-.01.35-.07.55-.44.76-.73.16-.22.43-.43.68-.43.08,0,.16.02.23.07.26.17.3.62.61.7.03,0,.06.01.09.01.2,0,.42-.14.6-.14.06,0,.12.02.17.06.11.09.12.25.1.39-.05.33-.22.65-.47.87-.12.11-.27.23-.23.39.04.14.22.19.31.31.14.18.02.46-.17.6-.19.13-.43.18-.63.3-.51.29-.67,1-.48,1.56s.66.98,1.17,1.28c.13.08.3.13.45.13.14,0,.27-.05.31-.19.06-.17-.07-.38.02-.55.07-.14.26-.16.41-.21.34-.11.6-.45.61-.81,0-.22,0-.52.21-.56.01,0,.03,0,.04,0,.04,0,.09.01.13.03.38.16.55.63.51,1.04s-.22.8-.32,1.2c-.16.62,0,1.01.36,1.47,0,.01.14.23.15.24.42.6.19.78-.48.92-.11.02-.23.04-.34.04-.42,0-.85-.15-1.22-.36-.48-.26-.9-.61-1.37-.89-.83-.49-1.79-.76-2.75-.76-.18,0-.35,0-.53.03-.55.06-1.14.23-1.45.68-.31.46-.15,1.24.39,1.35.11.02.22.02.31.07.25.14.17.55-.07.72-.23.17-.54.19-.81.31-.07.03-.14.07-.17.14-.11.24.32.39.35.65.03.23-.27.35-.51.35,0,0,0,0-.01,0-.68-.01-1.34-.39-1.69-.98-.1-.17-.18-.36-.35-.46-.19-.12-.43-.09-.65-.09-.41-.02-.81-.19-1.1-.48-.2-.2-.31-.6-.05-.7.04-.02.09-.02.14-.02.04,0,.08,0,.12,0,.03,0,.07,0,.1,0,.5,0,1-.22,1.33-.6.07-.08.14-.18.17-.29.07-.3-.2-.55-.41-.78-.21-.23-.36-.61-.12-.8.07-.05.15-.07.23-.07.15,0,.32.06.46.11.16.05.32.07.48.07.4,0,.8-.14,1.11-.39-.68-.31-1.41-.53-2.15-.63-.15-.02-.3-.04-.45-.04-.17,0-.34.02-.5.08-.3.11-.57.37-.59.69-.01.22.07.49-.11.62-.05.04-.11.05-.17.05-.19,0-.42-.12-.59-.12-.08,0-.14.03-.18.11-.08.18.13.45-.03.57-.04.03-.08.03-.12.03-.02,0-.04,0-.05,0-.73-.07-1.22-.88-1.12-1.61.09-.72.64-1.32,1.27-1.69-.52-.16-1.05-.32-1.54-.56-.41-.2-.83-.52-.88-.98-.06-.62.6-1.08,1.22-1.18.13-.02.26-.04.36-.12.14-.11.16-.3.2-.47.09-.4.34-.76.67-1,.07-.05.15-.1.23-.1,0,0,0,0,0,0,.42,0,.24.87.64,1,.03.01.07.02.11.02.12,0,.25-.05.37-.05.02,0,.04,0,.05,0,.32.04.4.46.39.78-.01.32,0,.72.3.84.06.03.13.03.19.06.22.11.24.41.29.65.12.58.63,1.06,1.22,1.14-.23-.66-.46-1.31-.69-1.97-.32-.92-.66-1.86-1.35-2.55-.17-.17-.37-.4-.26-.61.16-.29.69-.09.88-.35-.28-.42-.56-.85-.83-1.27-.05-.08-.11-.17-.1-.27.01-.18.21-.27.38-.31.19-.05.38-.07.58-.07.35,0,.69.07,1.01.21-.09-.52-.03-1.06.17-1.54.12-.28.34-.57.64-.57,0,0,0,0,0,0,.13,0,.25.05.38.06,0,0,.02,0,.02,0,.32,0,.57-.28.84-.47.14-.11.34-.18.52-.18M11.08,4.58c-.24,0-.5.09-.71.25-.06.04-.12.09-.18.14-.17.14-.33.27-.46.27-.05,0-.09-.01-.14-.02-.08-.02-.17-.04-.27-.04-.4,0-.74.29-.94.77-.16.38-.24.79-.24,1.21-.21-.05-.43-.08-.65-.08s-.44.03-.65.08c-.37.09-.6.32-.62.6-.01.21.09.37.16.47l.4.61.21.33c-.21.02-.52.06-.68.35-.24.44.16.84.31.99.65.65.98,1.59,1.27,2.43l.44,1.26c-.18-.16-.31-.37-.36-.6l-.02-.1c-.04-.24-.11-.61-.45-.77-.05-.02-.1-.04-.16-.05-.02,0-.03,0-.05-.02-.04-.01-.12-.1-.1-.53.02-.61-.24-1.05-.66-1.11-.03,0-.07,0-.1,0-.1,0-.18.02-.26.03-.04,0-.09.02-.12.02-.04-.03-.08-.21-.1-.3-.06-.25-.18-.72-.65-.72-.19,0-.33.09-.43.16-.39.29-.68.72-.79,1.19l-.02.08c-.02.08-.04.2-.07.22-.02.02-.11.03-.17.04-.83.14-1.6.75-1.52,1.54.05.49.42.92,1.06,1.23.32.16.64.28.97.38-.49.43-.8.97-.88,1.53-.06.48.08,1,.39,1.39.27.34.63.54,1.02.58.03,0,.06,0,.09,0,.12,0,.23-.03.31-.1.24-.17.2-.43.17-.59,0,0,.02,0,.03,0,.12.04.26.08.41.08.14,0,.26-.04.36-.11.28-.19.26-.52.25-.72,0-.05,0-.1,0-.15.01-.18.19-.34.37-.4.11-.04.24-.06.39-.06.14,0,.27.01.41.03.48.07.96.18,1.42.35-.11.03-.22.04-.34.04-.13,0-.26-.02-.39-.06l-.08-.02c-.14-.05-.31-.1-.48-.1s-.31.05-.43.14c-.14.11-.23.27-.24.46-.02.31.15.63.33.81l.05.06c.13.14.3.32.28.43,0,.03-.04.08-.09.14-.27.3-.68.49-1.09.49-.03,0-.06,0-.08,0-.06,0-.1,0-.14,0-.1,0-.18.02-.26.05-.18.07-.3.23-.34.42-.06.31.11.64.29.81.35.34.82.55,1.31.57.05,0,.1,0,.16,0,.14,0,.27,0,.34.04.06.04.12.14.18.25l.06.1c.4.68,1.17,1.12,1.96,1.14h0c.23,0,.52-.07.7-.27.11-.12.16-.28.14-.44-.03-.23-.18-.38-.29-.49,0,0,0,0,0,0,.07-.01.13-.03.19-.05.19-.05.41-.11.6-.25.23-.17.37-.47.35-.75-.01-.23-.13-.41-.32-.52-.12-.06-.23-.08-.33-.09-.03,0-.05,0-.08-.01-.14-.03-.21-.14-.25-.23-.08-.2-.06-.45.05-.61.21-.3.62-.49,1.22-.55.17-.02.33-.03.5-.03.92,0,1.81.25,2.59.71.2.12.4.26.59.39.25.17.51.35.78.5.48.26.94.4,1.38.4.14,0,.28-.01.41-.04.37-.08.78-.19.91-.53.12-.32-.06-.64-.23-.89l-.05-.08c-.05-.08-.11-.17-.12-.18-.3-.38-.43-.67-.3-1.19.03-.13.08-.27.12-.4.09-.27.18-.55.21-.85.04-.5-.16-1.15-.71-1.37-.09-.04-.17-.05-.25-.05h-.1c-.45.1-.46.58-.46.81v.07c-.01.22-.18.45-.39.52l-.08.02c-.16.04-.39.11-.52.34-.1.18-.07.36-.05.48,0,.04.01.09.01.11-.09-.03-.21-.07-.3-.12-.54-.32-.89-.69-1.03-1.11-.14-.39-.05-.95.34-1.18.08-.04.16-.07.24-.11.13-.05.28-.11.42-.21.19-.13.33-.35.36-.57.03-.18-.02-.35-.12-.48-.07-.08-.14-.14-.21-.18.02-.02.05-.05.07-.07.33-.29.53-.67.59-1.08.04-.29-.03-.53-.21-.68-.11-.09-.24-.14-.38-.14s-.28.05-.39.09c-.08.03-.16.06-.21.06-.05,0-.11-.13-.15-.21-.08-.15-.18-.33-.37-.45-.12-.08-.26-.12-.4-.12-.39,0-.74.29-.94.56l-.1.15c-.15.22-.29.42-.46.46-.02,0-.05,0-.08,0-.07,0-.15-.01-.22-.02-.1-.02-.21-.03-.32-.03-.25,0-.5.11-.65.28-.12.14-.17.31-.14.47.03.18.13.3.21.39l.05.06c.16.22.14.55.11.91,0,.08-.01.15-.02.22-.03.55.06,1.12.25,1.64-.43-.2-.85-.56-1.19-1.04-.55-.78-.8-1.7-.69-2.5.12-.89.72-1.66,1.48-1.92l.05-.02c.18-.06.42-.14.57-.37.11-.17.13-.38.07-.58-.08-.25-.3-.48-.56-.58-.22-.08-.44-.1-.63-.11-.03,0-.06,0-.1,0,.17-.18.39-.32.61-.46.08-.05.16-.1.24-.15.58-.38.89-.83.9-1.31,0-.23-.07-.42-.21-.55-.12-.12-.28-.17-.46-.17-.12,0-.24.03-.35.05-.08.02-.16.03-.22.03-.03-.02,0-.15,0-.22.03-.2.08-.45-.05-.68-.12-.23-.36-.37-.65-.37h0Z" style="fill:#fff;"/><path d="M22.62,27.97v.87s-.07-.25-.07-.25c-.02-.02-.1.02-.15.05,0-.19,0-.41.04-.61l.05.06.05.07.08-.19Z"/><path d="M22.62,27.97v.87s-.07-.25-.07-.25c-.02-.02-.1.02-.15.05,0-.19,0-.41.04-.61l.05.06.05.07.08-.19Z" style="fill:#fff;"/><path d="M33.29,19.54s-.02.02-.04.03c-.01.01-.03.02-.04.04.03-.02.05-.04.08-.07Z" style="fill:#edf2e9;"/><path d="M29.36,29.64s-.02.02-.03.03c.01-.01.02-.02.03-.03,0,0,0-.01.01-.02,0,0,0,.02-.01.02Z" style="fill:#fff;"/><path d="M29.34,29.66s.01-.01.01-.02c0,0,0,0,0,0,0,0,0,0,0-.01M29.37,29.61s0,0,0,.01c0,0,0,0,0,.01s0,0,0,0c0,0,0,.01-.01.02,0,0,0,0,0,0M29.36,29.64s0,0,0,0c0,0,0,0,0,0s0,0,0-.01c0,0,0,0,0,.01ZM29.11,29.47l.54.54s.07-.07.1-.11l.02-.02v-.03s.02-.02.03-.04l-.68-.34Z" style="fill:none;"/><path d="M22.91,35.77s-.03.07-.04.12c.02-.02.04-.04.06-.06l.03-.14-.05.07ZM26.42,18.93s-.03,0-.04,0c-.02,0-.04,0-.07,0-.02,0-.05,0-.07,0,0,0-.01,0-.02,0-.04,0-.07,0-.11,0,0,0,0,0,0,0-.02,0-.04,0-.06,0-.01,0-.02,0-.03,0-.04,0-.07,0-.11,0-.03,0-.07,0-.1.01-.03,0-.07,0-.1.01-.03,0-.06,0-.1.01-.03,0-.06.01-.1.02-.03,0-.07.01-.11.02-.02,0-.04.01-.07.02-.02,0-.04.01-.06.02-.06.01-.12.03-.18.05-.03.01-.06.02-.1.03-.06.02-.13.05-.19.08l-.34.15c-.53.23-1.04.49-1.4.94l-.37.21h0s-.03-.44-.03-.44v-.03s-.01,0-.02,0c0,0,0,0,0,0-.22-.05-.44-.12-.65-.21-.18-.08-.42-.26-.61-.3-.25-.04-.37.14-.59.31-.04.03-.08.07-.13.09-.05.02-.09.03-.14.04-.17.02-.34.02-.5-.03-.31-.08-.53-.37-.84-.41,0,0-.01,0-.02,0,0,0-.01,0-.02,0,0,0,0,0,0,0-.05,0-.1,0-.15,0-.01,0-.02,0-.03,0,0,0-.01,0-.02,0,0,0,0,0,0,0,0,0,0,0-.01,0,0,0-.01,0-.01,0-.02,0-.04.01-.05.02-.01,0-.02,0-.03.02-.02.02-.03.05-.05.07,0,0,0,0,0,0-.02.02-.03.04-.05.06h0s-.03.03-.04.04c-.21.2-.5.34-.81.42-.02,0-.04.01-.06.02-.07.02-.13.03-.2.04,0,0,0,0,0,0,0,0,0,0,0,0,0,0,0,0,0,0v.49s-.48-.41-.48-.41l-.32-.29c-.32-.29-.76-.53-1.18-.67-.07-.02-.13-.05-.2-.07-.11-.04-.22-.07-.33-.1-.09-.03-.18-.05-.27-.08-.03,0-.07-.02-.1-.03-.03,0-.07-.02-.1-.03-.07-.02-.14-.03-.2-.05-.07-.02-.14-.03-.2-.05-.07-.01-.14-.03-.21-.04-.05,0-.09-.02-.14-.03-.14-.03-.29-.05-.44-.07l.08.75s0,0,0,.01c.14.68.45,1.35.94,1.88l.42.35c.16.13.36.21.57.29.67.25,1.3.03,1.48.87h0s0,.37,0,.37l-.07.02-.67,1.7s-.41,1.32-.41,1.32l-.21.88c-.18.77-.36,1.52-.82,2.18-.19.27-.79,1.04-1.37,1.68-.04.05-.09.1-.13.14-.04.05-.09.1-.13.14l.02.02.13.15,1.8,2.02.87.98.43.49.45.24c.12,0,.24-.03.34-.08.02,0,.03-.02.04-.03l.27-.2.74-.26c.37.28.8.37,1.22.25l.37.42c.11.12.21.22.3.31.15.14.29.25.44.34.13.08.17.19.23.33,0,.01.01.03.02.04.04.1.09.21.17.31.2.07.36.14.49.2.03-.03.06-.05.09-.07.04-.03.08-.06.12-.08.16-.1.33-.17.52-.23.04-.01.08-.02.12-.03,0-.07.01-.14.03-.2.04,0,.09-.02.13-.02.04,0,.09-.01.13-.02,0-.02.01-.03.02-.05.03-.07.07-.13.12-.19l-.11-.23s.05-.06.08-.08l.02-.02s0,0,0,0l.1-.49.35-.33c.03-.06.07-.12.11-.18l.02-.2v-.13s.02-.1.02-.1l.23-.63v.03s.03.17.03.17l.02.14.02.1h0s.04.24.04.24c.07-.15.09-.32.12-.47,0-.03,0-.05.01-.08,0,0,0,0,0,0s0,0,0,0c.06-.04.12-.08.17-.12.08-.07.14-.14.2-.23.01-.02.02-.04.03-.06v-.64c-.06-.09-.09-.15-.1-.15v-.03s0-.02,0-.02l-.24-.04v-.03s-.07-.52-.07-.52l.16-.15s.03-.03.05-.05h0s-.05-.41-.05-.41l-.04-.33-.12-.95v-.03s-.39-.7-.39-.7l-.57-.98-.03-.08c-.12-.3-.23-.62-.28-.92,0-.02,0-.05-.01-.07,0,0,0,0,0,0-.02-.15-.03-.29-.02-.42,0-.02,0-.03,0-.05,0-.03,0-.05.02-.08,0-.01,0-.02,0-.04,0-.03.02-.06.03-.08,0-.01.01-.02.02-.03,0-.02.02-.03.03-.05.01-.01.02-.03.03-.04,0,0,.01-.01.02-.02,0,0,.02-.02.03-.02,0,0,.01-.01.02-.02.01-.01.02-.02.04-.03.01,0,.02-.01.03-.02.01,0,.02-.01.04-.02,0,0,.01,0,.01,0,0,0,0,0,.02,0,0,0,.01,0,.02,0,0,0,.01,0,.02,0s.01,0,.02,0c0,0,.01,0,.01,0,.01,0,.03,0,.04,0,0,0,.01,0,.02,0h.02s.01,0,.02,0c0,0,.02,0,.02,0h.8s.04-.01.06-.01c.01,0,.02,0,.03,0,.04,0,.07-.01.11-.03.02,0,.04-.01.06-.02.01,0,.03-.01.04-.02.06-.02.12-.05.17-.08.01,0,.02-.01.03-.02.01,0,.02-.02.04-.02.01,0,.02-.02.03-.02.01,0,.02-.02.04-.03,0,0,0,0,.01,0,.02-.02.04-.04.06-.06.01-.01.02-.02.03-.03.05-.05.09-.11.12-.17.01-.02.03-.05.04-.08.02-.04.03-.08.05-.12,0,0,0-.02,0-.03,0,0,0-.02,0-.03,0-.02.01-.05.02-.08.02-.01.03-.03.05-.05.02-.02.03-.03.05-.05.02-.02.03-.04.05-.06.01-.02.03-.03.04-.05,0,0,.01-.02.02-.03,0-.01.01-.02.02-.03,0,0,0-.01.01-.02.01-.02.02-.04.03-.05,0-.01.01-.02.02-.03,0,0,0,0,0,0,0-.01.01-.03.02-.04.02-.04.03-.08.04-.11.01-.04.02-.07.03-.11,0-.02,0-.04,0-.06,0-.02,0-.04,0-.06,0-.02,0-.03,0-.05,0-.09,0-.19,0-.29,0-.01,0-.02,0-.04,0-.01,0-.02,0-.03,0-.05,0-.11,0-.16-.02-.13-.08-.26-.18-.34l-1.46-1.12s0-.02,0-.04v-.02c-.03-.16,0-.41.07-.51.03,0,.06,0,.08,0,.04,0,.07,0,.11,0,0,0,.01,0,.02,0,.03,0,.07,0,.1-.01.03,0,.07-.01.1-.01.03,0,.06-.01.09-.02.02,0,.04,0,.06-.01.02,0,.04-.01.06-.01.02,0,.04,0,.06-.01.02,0,.05-.01.07-.02.02,0,.05-.01.08-.02.03,0,.05-.01.07-.02.02,0,.04-.01.06-.02.05-.02.11-.04.16-.06.04-.02.09-.04.13-.06.02-.01.04-.02.06-.03.02,0,.03-.02.05-.03.02-.01.05-.03.07-.04.02-.01.04-.02.06-.04.02-.01.04-.03.06-.04.02-.01.03-.02.05-.04.01,0,.02-.02.03-.02.02-.02.04-.03.06-.05.01-.01.03-.02.04-.03,0,0,0,0,0,0,.01-.01.02-.02.03-.03,0,0,0,0,0,0,.01-.01.03-.03.04-.04.02-.02.05-.04.07-.07,0,0,.02-.02.03-.03l.04-.04s0,0,.01-.01c0,0,0-.01.01-.01,0,0,.01-.01.02-.02.02-.03.05-.05.07-.08.03-.03.05-.06.07-.1.03-.04.05-.07.08-.11,0,0,0-.01.01-.02.02-.03.05-.07.07-.1.02-.04.04-.07.07-.11,0,0,0-.02.01-.02.02-.03.03-.06.05-.09,0,0,0-.01,0-.02,0-.01.01-.02.02-.04.01-.02.02-.05.04-.08,0-.02.02-.04.03-.06.02-.04.04-.08.06-.13.02-.04.03-.09.05-.13.03-.09.06-.18.09-.27.03-.1.06-.2.08-.3.05-.19.08-.4.11-.61,0-.01,0-.02,0-.03-.03,0-.06,0-.09,0ZM16.63,28.87s0,.01,0,.02c-.01-.07-.02-.16-.02-.21v-.14s0,.04,0,.1c0,.07,0,.17,0,.23ZM16,30.66s0,0,0,.01c0,0,0,.01,0,.02,0-.03,0-.06-.01-.09,0,.02,0,.04,0,.05ZM24.2,32.72v-.18h0" style="fill:none;"/><path d="M16.23,30.64h0s0-.04,0-.05l-.23.02-.23.02s0,.07.01.11l.23-.02.23-.02s0-.04,0-.06ZM16.86,28.85s0-.14,0-.21c0-.05,0-.1,0-.1h-.23s0-.01,0-.01h-.23s-.01.13-.01.13h0c0,.08,0,.19.02.27l.23-.03.23-.03v-.02ZM26.47,18.7s-.04,0-.06,0c0,0-.02,0-.02,0h-.01s-.05,0-.07,0h-.06s-.02,0-.02,0c-.03,0-.07,0-.11,0,0,0-.01,0-.02,0-.02,0-.04,0-.06,0-.01,0-.02,0-.03,0-.04,0-.07,0-.11.01-.04,0-.07,0-.1.01-.03,0-.06,0-.09.01h-.03s-.06.01-.09.02l-.1.02s-.07.02-.12.02c-.01,0-.02,0-.04,0h-.03s-.04.02-.06.02c-.06.02-.13.03-.2.06-.04.01-.07.02-.1.04-.06.02-.13.05-.21.08l-.34.15c-.52.23-1.06.5-1.46.97h-.02s-.02-.26-.02-.26l-.15-.05s-.02,0-.03,0h-.03s0,0,0,0c-.2-.04-.4-.11-.6-.19-.19-.08-.37-.17-.55-.27l-.03-.06h-.08s0,0,0,0c-.01,0-.02-.01-.03-.02l-.15-.08-.12.12s-.01.01-.02.02c-.04.04-.1.08-.17.13-.03.02-.07.05-.1.07-.08.06-.17.13-.24.22-.21.02-.38.02-.5,0-.04,0-.08-.02-.11-.03-.01-.01-.02-.02-.04-.03-.03-.02-.06-.05-.09-.07-.03-.02-.05-.04-.08-.06h-.02s-.07-.06-.11-.08c-.01,0-.03-.02-.04-.03,0,0-.02-.01-.03-.01-.07-.04-.14-.07-.2-.09-.02,0-.03-.01-.05-.01-.02,0-.06-.02-.1-.02,0,0-.01,0-.01,0,0,0-.01,0-.02,0h-.02s-.02,0-.02,0c-.07,0-.13,0-.2,0-.01,0-.03,0-.04,0h-.04s-.02.01-.02.02c0,0,0,0-.01,0-.03,0-.06.02-.08.03-.02,0-.04.02-.05.03l-.04.02-.03.04s-.03.03-.04.05h0s-.03.04-.04.05h0s-.01.02-.02.03h-.01c-.17.17-.41.3-.71.38,0,0-.02,0-.02,0h-.03c-.05.02-.1.03-.16.04h-.22s0,.23,0,.23l-.42-.38c-.32-.29-.78-.56-1.26-.72-.07-.02-.14-.05-.2-.07-.11-.04-.22-.07-.34-.11-.09-.03-.18-.05-.27-.08-.03,0-.06-.02-.09-.02h-.04s-.05-.02-.07-.03c-.07-.02-.14-.04-.2-.05-.07-.02-.14-.03-.21-.05h-.06c-.05-.02-.11-.04-.16-.04l-.14-.03c-.15-.03-.3-.05-.44-.07l-.27-.04v.27l.08.77v.03c.17.77.51,1.46,1.01,1.99l.44.37c.19.16.43.25.63.33.22.08.43.12.61.15.41.07.62.11.72.52v.16s-.72,1.81-.72,1.81l-.42,1.34-.21.9c-.16.68-.34,1.46-.78,2.1-.2.28-1.09,1.31-1.34,1.66l.15.15-.1.46s.09-.09.13-.14c.04-.05.09-.09.13-.14.61-.67,1.23-1.46,1.41-1.72.49-.71.68-1.53.85-2.26l.2-.88.41-1.3.63-1.58.13-.03v-.55s0-.03,0-.03v-.02c-.16-.74-.66-.83-1.1-.91-.17-.03-.35-.06-.52-.13-.21-.08-.38-.15-.5-.25l-.41-.34c-.43-.47-.74-1.07-.88-1.76l-.05-.43s.08.01.13.02c.03,0,.05.01.08.01h.07s.1.03.15.04h.06c.07.03.13.04.2.06.06.02.13.03.2.05h0s.04.01.06.02h.04s.07.03.1.04c.09.02.17.05.26.07.11.03.22.07.32.1.06.02.13.04.2.07.42.15.82.38,1.1.63l.33.29.85.74v-.81s.03,0,.04,0h0s.05-.01.07-.02c.37-.1.68-.26.91-.48h.01s.02-.03.03-.04c.02-.02.04-.04.05-.06l.03-.02v-.02s.01,0,.02,0h.05s.05-.02.08-.02h.03s0,0,0,0h.01s.02,0,.04.01h.02s.08.04.13.06c0,0,.01,0,.02.01.01,0,.02.01.03.02h0s.05.04.08.05h.01s.05.04.07.06h0s.06.05.09.07c.01,0,.02.02.03.02h.02s.02.02.02.02c.08.04.17.08.28.09.19.03.44.03.75-.01l.14-.02.05-.13s.03-.05.15-.14c.03-.02.06-.04.09-.06.04-.02.07-.05.11-.07h.02c.2.11.4.21.6.29.18.07.36.13.54.18l.06.7.32-.21.4-.22.03-.03c.33-.42.83-.66,1.31-.87l.34-.15c.06-.03.12-.05.18-.07.03-.01.06-.02.09-.03.06-.02.11-.04.16-.05h.01s.03-.01.05-.02h.02s.03-.01.04-.01c.03,0,.07-.01.1-.02l.09-.02s.05,0,.07-.01h.03s.05-.01.09-.02c.03,0,.05,0,.08,0h.01s.06,0,.09,0h.05s.03,0,.04,0h.03s0,0,0,0c.02,0,.05,0,.07,0h0c-.02.12-.04.24-.07.35-.02.1-.05.19-.07.28-.03.1-.06.18-.09.26l-.02.06s-.02.05-.03.07c-.02.04-.03.08-.05.12h0s-.01.03-.02.05h0s-.01.03-.02.04c0,.01-.01.02-.02.03h0s0,.03,0,.03c0,0-.01.02-.02.03-.01.03-.03.05-.04.07v.02s-.05.07-.07.11c-.02.03-.04.06-.06.09h0s0,.02,0,.02c-.02.03-.05.07-.07.1-.02.03-.04.06-.07.09-.02.02-.04.04-.06.07v.02s-.02.01-.03.01c0,0,0,0-.01.01l-.07.07s-.04.04-.06.06h-.01s-.01.02-.02.03l-.03.03s-.01,0-.02.01l-.02.02s-.01.01-.02.02h0s-.03.03-.04.04h0s-.09.07-.09.07c-.01,0-.02.02-.04.02l-.06.04s-.04.02-.06.03h-.01s-.02.02-.03.02h-.02s-.03.03-.04.03h0s-.08.04-.12.06c-.05.02-.1.04-.14.06h-.01s-.02.01-.03.02h-.02s-.04.02-.06.02h-.02s-.04.02-.06.02l-.08.02s-.02,0-.04,0h-.06s-.03.02-.04.02h-.01s-.05.01-.08.02h-.04s-.04.01-.06.01c-.03,0-.05,0-.08,0,0,0-.02,0-.03,0-.03,0-.06,0-.09,0h0s-.05,0-.07,0h-.12s-.07.11-.07.11c-.1.17-.13.47-.1.67v.03s.01.04.02.06l.02.07,1.52,1.17s.08.11.09.18c0,.03,0,.07,0,.1v.04s0,.04,0,.04c0,0,0,0,0,.01v.04c.02.09.02.17.01.24,0,.02,0,.03,0,.05,0,0,0,.01,0,.02v.04s-.01.02-.01.03c0,.04-.01.06-.02.09,0,.02-.01.04-.02.07l-.03.07v.02s-.02.02-.03.03c0,.01-.01.02-.02.03,0,0-.01.01-.01.02,0,0,0,.01-.01.02h0s-.02.03-.02.04c0,.01-.02.02-.03.03,0,0-.01.01-.02.02l-.04.04s-.03.03-.04.04l-.06.05-.02.08s0,.04-.01.06h0s0,.04-.01.05c-.01.03-.02.06-.03.09v.02s-.02.03-.03.04c-.02.04-.06.08-.09.13h0s0,.01-.01.02h0s-.02.03-.04.04c0,0-.01.01-.02.02l-.02.02s-.02.01-.02.02c0,0-.01.01-.03.02h0s-.02.02-.03.02c-.04.02-.09.05-.13.06h-.02s-.01.01-.02.02c-.01,0-.03,0-.04.01h-.01s-.06.02-.09.02l-.84.02s-.02,0-.04,0c0,0,0,0-.01,0h-.05s-.01,0-.02,0h-.03s-.01,0-.02,0c0,0-.02,0-.03,0,0,0-.02,0-.03,0h-.04s0,.01-.01.01c0,0-.01,0-.02,0h-.03s-.03.02-.04.03c-.02,0-.04.02-.06.03-.02.01-.04.02-.06.04-.02.01-.03.02-.04.03-.01.01-.03.02-.04.03-.01.01-.02.02-.03.04-.02.02-.04.05-.05.06h0s-.03.05-.04.09c0,.01-.01.02-.01.03-.02.03-.03.07-.04.11,0,.01,0,.03-.01.04,0,.03-.01.06-.02.1,0,.02,0,.04,0,.06-.01.14,0,.29.02.48h0s0,.02,0,.02c0,.02,0,.05.01.07,0,.02,0,.04.01.07h0c.04.18.09.36.16.57h0c.03.11.07.22.12.33l.03.08.58,1,.36.67.24,1.84.16-.15s.03-.03.05-.05c.02-.03-.23-.11-.21-.14.03-.07.14-.56.15-.62.02-.07.2-.11.23-.15l-.16-.81v-.07s-.42-.75-.42-.75l-.56-.96-.03-.07c-.13-.33-.22-.62-.27-.88,0-.02,0-.03,0-.05h0s0-.04,0-.04h0c-.02-.13-.02-.24-.01-.33,0-.01,0-.02,0-.03,0-.02,0-.03,0-.05v-.02s0-.01,0-.01c0-.02.01-.03.02-.05h0s0-.02,0-.03c0,0,0,0,0-.01h0s0-.01.01-.02l.05-.04h.03s0-.02.01-.02l.08-.02s.01,0,.02,0h.03s.01,0,.01,0h.81s.13-.03.13-.03c.04,0,.08-.02.13-.03.02,0,.05-.01.07-.02h.03s.02-.02.03-.02c.07-.03.14-.06.2-.1.01,0,.02-.01.04-.02.01,0,.03-.02.04-.03h0s.03-.03.04-.03c.01-.01.03-.02.04-.03l.03-.02s.05-.04.07-.06c0,0,.01-.02.02-.02l.02-.02c.06-.07.11-.14.15-.2.01-.02.03-.05.04-.08v-.02s.05-.09.07-.15v-.02s0,0,0-.01h0s0-.03,0-.04c0,0,0-.01,0-.02,0,0,0,0,0,0l.06-.06s.02-.02.03-.03l.02-.03s.02-.03.03-.04l.05-.07s0-.01.01-.02l.02-.02s.01-.02.02-.03h0s.06-.12.06-.12c.02-.05.04-.1.05-.14.02-.05.03-.09.04-.14,0-.02,0-.04.01-.07,0-.03,0-.05.01-.07h0s0-.04,0-.05h0c0-.11,0-.22,0-.34,0-.01,0-.02,0-.04h0c0-.06,0-.13,0-.19-.02-.2-.12-.38-.27-.49l-1.39-1.07c0-.07,0-.15.01-.22.02,0,.03,0,.05,0h.02s.07,0,.11-.01c.02,0,.04,0,.07,0h.03s.07-.02.1-.02c.02,0,.04,0,.06-.01l.07-.02s.05-.01.08-.02l.07-.02s.05-.02.08-.02c.03,0,.06-.02.08-.03h.02s.04-.02.06-.03c.05-.02.11-.04.17-.07.05-.02.09-.04.14-.07.02-.01.05-.02.07-.04h0s.03-.02.05-.03c.03-.01.05-.03.07-.04l.06-.04s.03-.02.05-.03l.03-.02s.02-.02.03-.02h.01s.02-.03.03-.03l.02-.02s.03-.03.05-.04c.02-.01.03-.03.05-.04,0,0,.01-.01.02-.02.02-.01.02-.02.03-.03.01-.01.02-.02.04-.04.02-.02.05-.04.07-.07.01-.01.02-.02.03-.04l.03-.04s.01,0,.01-.01l.02-.02s.01-.02.02-.02c.02-.03.05-.05.07-.08.03-.03.06-.07.08-.1.03-.04.06-.08.09-.12h0s0-.02,0-.02c.02-.04.05-.07.07-.11.02-.04.05-.08.07-.11,0-.01.01-.02.02-.04.02-.03.03-.06.05-.09v-.02s.01,0,.01,0c0-.01.01-.02.02-.03,0-.01.01-.03.02-.04l.02-.05s.02-.03.02-.05c.02-.04.04-.09.06-.13.01-.03.02-.05.03-.08l.02-.06c.03-.09.06-.18.1-.29.03-.1.06-.21.08-.31.04-.19.08-.4.11-.62,0-.01,0-.02,0-.03l.04-.27h-.3ZM24.29,32.68v-.02s-.06-.13-.06-.13h-.02s-.11-.02-.11-.02l-.24-.04.03.2.02.13h.07v.84c.08-.07.14-.14.2-.23.01-.02.02-.04.03-.06.12-.21.15-.45.08-.68ZM22.73,36.05l-.11-.23s-.09.11-.13.17c-.07.1-.13.21-.16.34.04,0,.09-.02.13-.02.04,0,.09-.01.13-.02.01,0,.03,0,.04,0l-.02-.04c.03-.07.07-.13.12-.19ZM22.96,35.7l-.05.07s-.03.07-.04.12c0,.01,0,.03,0,.04.03-.02.05-.05.07-.07l.04-.19-.02.02ZM23.77,33.56l-.03-.22-.08-.5-.02-.11-.04.1-.51,1.4-.02.23-.02.18c-.05.07-.09.15-.12.22-.04.09-.08.2-.1.31v.06s.34-.33.34-.33l.28-.26c.1-.09.16-.2.21-.3.07-.15.09-.32.12-.47,0-.03,0-.05.01-.08,0,0,0,0,0,0s0,0,0,0l-.03-.21ZM21.45,36.7c-.1-.04-.24-.1-.41-.16h0c-.08-.03-.16-.06-.26-.1.04.1.09.21.17.31h0c.07.09.16.16.26.22l.12.07.1-.09s0,0,0,0c.03-.03.06-.05.09-.07.04-.03.08-.06.12-.08-.05-.03-.12-.06-.2-.1ZM16.91,35.11l-.51-.27-.48-.25.43.49.15.17.04.02c.07.03.17.05.26.05.12,0,.24-.03.34-.08l-.23-.12ZM16.23,30.64h0s0-.04,0-.05l-.23.02-.23.02s0,.07.01.11l.23-.02.23-.02s0-.04,0-.06ZM16.86,28.85s0-.14,0-.21c0-.05,0-.1,0-.1h-.23s0-.01,0-.01h-.23s-.01.13-.01.13h0c0,.08,0,.19.02.27l.23-.03.23-.03v-.02ZM23.64,32.73l-.04.1h.05s-.02-.1-.02-.1ZM16.23,30.64h0s0-.04,0-.05l-.23.02-.23.02s0,.07.01.11l.23-.02.23-.02s0-.04,0-.06ZM16.86,28.85s0-.14,0-.21c0-.05,0-.1,0-.1h-.23s0-.01,0-.01h-.23s-.01.13-.01.13h0c0,.08,0,.19.02.27l.23-.03.23-.03v-.02Z" style="fill:#fff;"/><path d="M21.16,34.92v.09s-.03-.11-.03-.11c0,0,.02,0,.03.01Z" style="fill:#2a6844;"/><path d="M17.82,33.54s0-.02,0-.03c0,0,0,0,0-.01,0,0,0-.01,0-.02,0,0,0,0,0,0,0,0,0,0,0-.01,0-.03-.02-.07-.03-.1,0-.02-.01-.04-.02-.05,0-.02-.01-.04-.02-.05-.01-.04-.03-.08-.04-.12-.02-.04-.04-.09-.06-.13,0-.01-.01-.02-.02-.04-.02-.04-.03-.07-.05-.11-.02-.05-.05-.09-.07-.14-.03-.06-.07-.11-.11-.17,0,0,0-.01-.01-.02-.01-.02-.03-.05-.04-.07-.02-.02-.03-.04-.05-.07-.02-.03-.04-.06-.06-.08-.02-.03-.04-.05-.06-.08,0,0-.01-.02-.02-.03-.01-.02-.02-.03-.04-.05,0-.01-.02-.02-.03-.04h0c-.04-.06-.08-.11-.12-.16-.02-.03-.05-.07-.07-.1,0,0-.01-.02-.02-.02,0,0-.01-.02-.01-.02,0,0,0,0,0-.01-.01-.02-.02-.04-.03-.05,0,0,0,0,0-.01,0-.01-.01-.02-.02-.04,0-.01-.01-.02-.02-.04l-.37-.77s0,0,0-.01c0,0,0,0,0-.01,0,0,0-.01,0-.02,0,0,0,0,0-.01,0,0,0,0,0-.01,0-.01,0-.02-.01-.03,0-.02-.01-.04-.02-.06,0,0,0,0,0,0,0,0,0-.01,0-.02,0-.02-.01-.04-.02-.06-.02-.07-.03-.13-.04-.2,0-.02,0-.04,0-.07,0-.02,0-.04,0-.05,0-.02,0-.04,0-.05,0-.02,0-.04,0-.05v-.12s-.19,0-.19,0c0,0,0,0-.01,0,0,0,0,0,0,0h0s0,0,0,0c0,0,0,0,0,0,0,0,0,0,0,.01,0,0,0,0,0,0s0,0,0,0,0,0,0,0c0,0,0,.01,0,.01,0,0,0,.01,0,.02,0,0,0,0,0,.01,0,0,0,0,0,0,0,0,0,0,0,0,0,0,0,0,0,.01t0,0s0,0,0,0h0s0,0,0,.01c0,.01,0,.02,0,.03,0,0,0,.02,0,.02,0,0,0,.02,0,.03,0,.02,0,.04,0,.05,0,.01,0,.02,0,.03,0,.03,0,.06,0,.09,0,.02,0,.05,0,.07,0,0,0,.01,0,.02,0,.01,0,.02,0,.03,0,.01,0,.03,0,.04,0,0,0,.01,0,.02,0,0,0,.01,0,.02,0,0,0,.01,0,.02,0,0,0,0,0,.01,0,0,0,0,0,.01h0s0,0,0,.01c0,0,0,.01,0,.02,0,.02,0,.04.01.06,0,.05.02.1.03.15,0,0,0,.01,0,.02,0,0,0,0,0,0,0,.01,0,.03,0,.04,0,.01,0,.02,0,.03,0,0,0,.01,0,.02,0,.01,0,.03.01.04,0,.02,0,.03.01.05,0,.01,0,.02.01.03.01.03.02.07.03.1,0,.01.01.02.02.04,0,.02.01.04.02.06,0,.02.02.04.02.06l.12.24.13.28s0,0,0,0c0,0,0,0,0,0,0,0,0,0,0,.01,0,0,0,0,0,.01,0,0,0,.02.01.02.01.02.02.04.03.06.07.11.16.21.25.31l.47.53.57.61h0s0-.01,0-.02ZM21.16,34.92s-.01,0-.01,0c0,0,0,0,0,0,0,0,0,0,0,0,0,0,0,0,0,0h0s.02.11.02.11v-.09s0,0,0,0ZM21.58,34.98h0s0,0,0,0l.05-.12-.05.12ZM21.34,34.79h0s.03,0,.05,0c-.02,0-.03,0-.05,0ZM20.84,31.95h0s.02.01.02.02c0,0-.02-.01-.02-.02ZM17.06,23.73s0,0,0,0h0s0,0,0,0ZM17.06,23.73s0,0,0,0h0s0,0,0,0ZM16.63,28.57h0s0,0,0,0v-.04.04ZM16.65,28.98s0-.02,0-.02c0,0,0,.02,0,.02,0,0,0,0,0,0,0,0,0,0,0,0ZM17.17,21.86s-.01-.04-.02-.06c0-.02-.01-.04-.02-.06,0,0,0-.01,0-.02,0,0,0,0,0-.01,0,0,0,0,0-.01,0,0,0-.01,0-.02,0,0,0,0,0,0,0-.02,0-.03-.01-.05-.01-.04-.02-.07-.03-.11,0-.02-.01-.03-.02-.05,0-.03-.02-.06-.03-.08,0,0,0-.02-.01-.03-.02-.06-.05-.11-.08-.16,0,0,0,0,0-.01,0,0,0,0-.01-.01,0,0,0,0,0-.01,0,0,0-.01-.01-.02h0s-.5-.68-.5-.68c-.05-.03-.1-.07-.15-.1-.03-.02-.05-.03-.08-.05-.01,0-.02-.02-.04-.02-.01,0-.03-.02-.04-.02,0,0-.01,0-.01,0,0,0-.02-.01-.02-.02,0,0-.01,0-.02-.01-.03-.02-.07-.04-.1-.06,0,0-.01,0-.02-.01,0,0-.01,0-.02-.01-.04-.02-.08-.05-.12-.07-.03-.02-.06-.03-.1-.05-.02,0-.03-.02-.05-.02-.1-.05-.2-.09-.31-.13-.04-.01-.07-.03-.11-.04s-.07-.03-.11-.04c-.04-.01-.07-.02-.11-.03-.04-.01-.07-.02-.11-.03-.01,0-.02,0-.03,0-.02,0-.03,0-.05-.01-.01,0-.02,0-.03,0-.01,0-.03,0-.04,0-.02,0-.04,0-.05-.01-.03,0-.05-.01-.08-.01-.06-.01-.13-.02-.19-.03,0,0,0,0-.01,0-.03,0-.06,0-.1,0h0c.09.05.17.11.25.16.33.2.63.39.93.59.06.04.13.09.19.13.04.03.07.05.11.08.04.03.08.06.12.08.03.02.06.04.08.06,0,0,0,0,0,0,.03.02.06.05.09.07.03.02.06.05.09.07h0s-.58-.05-.58-.05l.09.18h0s.78.44.78.44l-.45.09.26.1.56.22.39.09h0s-.02-.08-.03-.12ZM17.41,22.73l-.1.05s0,0,0,0c0,0,0,0,0,0,0,0,0,0,0,.01,0,0,0,0,0,0,0,0,0,0,0,0,0,0,0,0,0,.01,0,.01.02.03.04.03,0,0,.01,0,.02,0,0,0,.02,0,.03,0,0,0,0,0,0,0,0,0,0,0,0,0,0,0,0,0,0,0,0,0,.02,0,.02,0,0,0,.02,0,.02.01l-.05-.16ZM17.63,26.75h-.02s0,0,0,0h.05s-.04,0-.04,0ZM18.23,24.24h0c.01.08.02.16.04.22-.02-.07-.03-.14-.04-.22ZM21.07,23.3s0-.01,0-.02c0,0,0-.02,0-.02s0-.02,0-.03c0-.02,0-.04,0-.07,0,0,0,0,0,0,0,0,0,0,0,0v-.02s0-.02,0-.03c0,0,0-.02,0-.03,0,0,0-.01,0-.01,0,0,0-.01,0-.01,0,0,0-.02,0-.03h0s0-.01,0-.02v-.02s0,0,0-.01c0,0,0,0,0-.01,0-.01,0-.02,0-.03,0,0,0-.02,0-.02,0,0,0,0,0,0,0-.02,0-.03-.01-.05,0,0,0-.01,0-.02,0,0,0,0,0,0s0,0,0,0l-.32-.08s0,0,0,0c0,0,0,0,0,0s0,0,0,0c0,0,0,0,0,0,0,0,0,0,0-.01,0,0,0-.02,0-.03,0,0,0-.01,0-.02,0-.01,0-.03.01-.04,0-.02.01-.03.02-.05,0-.02.02-.04.02-.05,0-.02,0-.05,0-.07,0,0,0-.01,0-.02,0-.02,0-.04-.01-.05,0-.02,0-.03-.01-.05,0,0,0-.01,0-.02,0,0,0,0,0-.01,0-.02-.01-.04-.02-.06,0-.03-.02-.05-.03-.08-.01-.02-.02-.04-.03-.07-.02-.05-.04-.09-.07-.14-.01-.02-.03-.04-.04-.07,0,0-.01-.02-.02-.03,0-.01-.02-.02-.03-.04,0,0,0-.01-.01-.01,0,0-.01-.01-.02-.02,0,0-.01-.02-.02-.02,0,0,0,0,0-.01,0,0,0,0,0,0,0,0,0,0,0,0,0,0,0-.01-.01-.02,0,0-.01-.01-.02-.02,0-.01-.02-.02-.03-.03-.02-.02-.03-.03-.05-.05-.02-.01-.03-.03-.05-.04-.02-.01-.03-.02-.05-.03,0,0-.02-.01-.03-.02,0,0-.01,0-.02-.01-.01,0-.02-.01-.03-.02,0,0,0,0,0,0,0,0-.01,0-.02,0,0,0,0,0-.01,0,0,0-.02,0-.02-.01,0,0,0,0,0,0,0,0,0,0,0,0,0,0,0,0,0,0-.02,0-.04-.01-.06-.02,0,0-.01,0-.02,0,0,0,0,0,0,0,0,0-.02,0-.03,0,0,0-.01,0-.01,0,0,0-.01,0-.02,0,0,0,0,0-.01,0,0,0,0,0-.01,0,0,0-.02,0-.03,0s-.02,0-.03,0c0,0,0,0,0,0,0,0,0,0,0,0,0,0,0,0,0,0,0,0,0,0,0,0,0,0-.01,0-.02,0,0,0,0,0-.01,0,0,0,0,0,0,0-.02,0-.04,0-.05,0-.02,0-.05,0-.07,0h-.03s-.04,0-.06,0c-.01,0-.02,0-.04,0-.02,0-.04,0-.06,0-.02,0-.04,0-.05.01h-.01s0,0-.01,0h0s0,0,0,0c-.01,0-.02,0-.03,0,0,0,0,0,0,0,0,0-.01,0-.02,0-.02,0-.05.01-.07.02-.02,0-.04.02-.07.02-.01,0-.02.01-.03.02,0,0-.01,0-.02,0-.01,0-.02.01-.04.02-.02,0-.03.02-.05.03-.01,0-.02.01-.03.02-.02.01-.04.03-.06.04,0,0,0,0,0,0-.04.03-.07.05-.1.08,0,0-.01.01-.02.02-.02.01-.03.03-.04.04,0,0-.02.02-.02.03-.01.02-.02.04-.03.05,0,0,0,0,0,0,0,0,0,.01,0,.02h0s0,.02,0,.03l.08.12.05.07.09.13.02.04.12.18h0s-.2.1-.2.1c0,.01,0,.02,0,.03,0,0,0,.01,0,.02,0,.02,0,.04.01.06,0,0,0,.01,0,.02,0,0,0,.01,0,.02,0,.03.01.05.02.07h0s0,.03,0,.04c0,0,0,.01,0,.02,0,0,0,0,0,.01,0,0,0,.01.01.02,0,0,0,.01.01.02.02.03.03.06.06.09,0,.01.01.02.02.03.01.02.03.04.05.06,0,0,0,0,0,0,.02.02.03.04.05.05.02.02.04.03.06.05s.04.03.06.04c.02,0,.03.02.05.03,0,0,.01,0,.02,0,0,0,.02,0,.02.01,0,0,0,0,.01,0,.01,0,.02.01.04.01.01,0,.02,0,.04.01h0s.02,0,.03,0c0,0,0,0,.01,0,.01,0,.03,0,.04,0,.02,0,.03,0,.05,0,0,0,.02,0,.03,0,0,0,.02,0,.03,0,0,0,.02,0,.02,0,.01,0,.02,0,.03,0h.03s.01,0,.02,0c0,0,0,0,0,0,0,0,0,0,.01,0,0,0,0,0,.01,0,0,0,.01,0,.02,0,0,0,.02,0,.03,0,0,0,0,0,.01,0,.02,0,.03,0,.05-.01.02,0,.04-.01.06-.02.01,0,.02,0,.03-.01.02,0,.05,0,.07,0,.01,0,.03,0,.04,0,.02,0,.03,0,.05,0,0,0,.01,0,.02,0,0,0,.02,0,.03,0,0,0,.01,0,.02,0,.01,0,.02,0,.03,0,0,0,0,0,.01,0,.02,0,.03,0,.05,0,0,0,.01,0,.02,0,.01,0,.02,0,.03,0,.02,0,.04.01.06.02,0,0,.02,0,.03,0,0,0,0,0,0,0,0,0,.01,0,.02,0,0,0,0,0,.01,0,.01,0,.02,0,.03.01.01,0,.02,0,.03.01,0,0,0,0,0,0,0,0,.01,0,.02,0,0,0,.01,0,.02,0l.59.22h0l-.07-.3ZM22.14,25.31l-.29-.16s0,.02,0,.03c0,0,0,.01,0,.02,0,0,0,0,0,0h0s0,0,0,0c0,0,0,0,0,0,0,0,0,0,0,0,0,0,0,0,0,.01,0,0,0,0,0,0,0,0,0,0,0,0h0s0,0,0,.01h0s0,.01,0,.01c0,0,0,0,0,0,0,.02.01.04.02.05,0,0,0,0,0,0,0,0,0,0,0,0,0,0,0,0,0,.01h0s.01.01.02.02c0,0,.02,0,.02,0h.16s.05,0,.05,0h.1s-.13-.07-.13-.07ZM21.83,26.81s0,0,0,0h0s0,0,0,0h0s0,0,0,0h0ZM21.83,26.81h0s0,0,0,0h0ZM21.83,27.11s0-.06,0-.09c0-.01,0-.02,0-.04,0,.04,0,.09,0,.13ZM21.84,26.8s0,0,0,0h0s0,0,0,0h0s0,.05,0,.08c0,0,0,0,0,0,0-.02,0-.05,0-.07h0ZM21.83,26.82h0s0,0,0,0h0ZM19.91,27.39h0s0,0,0,0h0s0,0,0,0ZM19.91,27.39v.08s0,0,0,0h0s.01-.08.01-.08h0s0,0,0,0ZM19.85,27.88s0,.02,0,.03c0,.01,0,.02,0,.03,0,0,0,.01,0,.02,0,0,0,.01,0,.02,0,0,0,0,0,0s0,0,0,0c0,0,0,0,0,0,0,0,0,0,0,0,0,0,0,0,0,0,0,0,0,0,0,0,0,0,0,0,.01,0h0l-.04-.15ZM19.22,26.73l.14.49h0l-.14-.49ZM19.4,27.21s0,0,0,0c0,0,0,0,0,0,0,0,0,0,.01,0,0,0,0,0,0,0ZM18.01,24.81h0s-.11.57-.11.57l-.06.56.06-.56.11-.57h0ZM23.14,21.83s0-.03,0-.05c0-.02,0-.03,0-.05,0,0,0-.01,0-.02,0,0,0-.02,0-.02,0-.01,0-.02,0-.03,0,0,0-.02,0-.02,0,0,0-.01,0-.02,0,0,0,0,0,0,0-.01-.01-.03-.02-.04,0,0,0,0,0-.01s0,0,0-.01c0,0,0,0,0,0,0-.01-.01-.02-.02-.04,0,0,0,0,0-.01h-.1s-.01,0-.02.02c0,0,0,.02-.01.03,0,0,0,0,0,0,0,.01-.01.02-.02.04,0,.01-.01.03-.01.04,0,.01-.01.03-.01.04,0,.01,0,.03-.01.04,0,0,0,0,0,.01-.01.05-.02.1-.02.15,0,.02,0,.03,0,.05,0,0,0,0,0,.01s0,0,0,.01c0,0,0,0,0,0h0s0,0,0,0c0,0,0,0,0,0,0,0,0,0,0,0h0l.12.23.06.11h0s.04-.07.05-.11c0-.01.01-.03.01-.04,0,0,0-.02,0-.03,0,0,0,0,0,0,0-.01,0-.02.01-.03,0-.01,0-.02,0-.03,0,0,0,0,0-.01,0-.02,0-.03,0-.05,0-.02,0-.04,0-.06,0-.03,0-.06,0-.08h0s0-.02,0-.02ZM24.65,23.95s-.07-.05-.1-.07c-.02-.01-.03-.02-.05-.03-.02-.01-.03-.02-.05-.03-.04-.03-.08-.05-.11-.08h0c-.07-.05-.13-.09-.19-.13-.02-.01-.04-.02-.06-.03-.02-.01-.04-.02-.06-.03h0s-.06-.03-.09-.04c0,0-.02,0-.03-.01,0,0-.02,0-.03,0,0,0-.02,0-.03,0,0,0-.01,0-.02,0-.01,0-.03,0-.04-.01-.02,0-.04,0-.06-.01-.06-.01-.13-.01-.2,0,0,0-.02,0-.02,0,0,0,0,0-.01,0,0,0-.02,0-.03,0,0,0,0,0,0,0,0,0-.02,0-.03,0,0,0,0,0,0,0-.01,0-.02,0-.03,0-.02,0-.05,0-.07.01,0,0-.01,0-.02,0-.01,0-.02,0-.03,0-.04.01-.09.02-.13.04h0s-.03,0-.04.01h0s-.03.01-.04.02c-.01,0-.03.01-.04.02-.01,0-.03.01-.04.02-.01,0-.03.01-.04.02h0s-.01,0-.01,0c0,0,0,0,0,0,0,0,0,0,0,0,0,0,0,0,0,0,0,0,0,0-.01,0,0,0,0,0,0,0,0,0,0,0,0,0,0,0,0,0,0,0h0s0,0,0,0h0s0,0,0,.01c-.01,0-.02.02-.04.03-.01.01-.03.02-.04.03,0,0,0,0,0,0,0,0-.01.01-.02.02h0s-.02.03-.04.04c-.02.02-.04.04-.06.07-.01.01-.02.02-.03.03-.01.01-.02.02-.03.04,0,.01-.02.02-.03.04,0,.01-.02.03-.03.04-.02.03-.03.05-.05.08,0,.01-.01.03-.02.04s-.01.03-.02.04c0,0,0,0,0,.01,0,0,0,.01,0,.02,0,0,0,0,0,0,0,.02-.01.03-.02.05,0,.01-.01.03-.02.04,0,.01,0,.03-.01.04,0,0,0,0,0,0,0,.01,0,.03-.01.04t0,0s0,0,0,.01c0,0,0,0,0,.01,0,.01,0,.03,0,.04,0,.01,0,.03,0,.04,0,0,0,0,0,0,0,0,0,.02,0,.02h0s0,.03,0,.05c0,.03,0,.06,0,.09,0,.02,0,.04,0,.06h0s-.34.12-.34.12c-.02,0-.03.02-.05.03-.02.01-.03.03-.05.04,0,0-.01.01-.02.02,0,0,0,0,0,0,0,0-.01.01-.02.02,0,0-.01.01-.01.02,0,0,0,0,0,.01,0,.01,0,.02-.01.03h0s0,0,0,0c0,0,0,0,0,0h0s0,.01,0,.02c.17.08.39.13.61.16.03,0,.07,0,.1.01.02,0,.05,0,.07,0,.02,0,.05,0,.07,0,.05,0,.1,0,.15,0,.04,0,.08,0,.12,0,.02,0,.03,0,.05,0h0s.05,0,.08,0c.02,0,.04,0,.05,0,.02,0,.04,0,.05,0,0,0,.02,0,.03,0,.02,0,.04,0,.06,0,.01,0,.02,0,.04,0h0s.05-.01.07-.01c.03,0,.07-.02.1-.02.02,0,.04-.01.06-.02.04-.02.08-.03.12-.05,0,0,.02,0,.02-.01.01,0,.02-.01.03-.02.02-.01.04-.03.06-.04,0,0,.01-.01.02-.02,0,0,0,0,0-.01,0,0,0,0,0-.01,0,0,0,0,0-.01.04-.06.04-.21.02-.32,0,0,0,0,0-.01,0,0,0,0,0-.01,0,0,0-.01,0-.02,0,0,0,0,0,0h0s0,0,0,0c0,0,0,0,0-.01,0,0,0,0,0,0h0s0,0,0,0c0,0,0,0,0-.01,0,0,0,0,0,0,0,0,0,0,0,0,0,0,0,0,0,0-.06.04-.14.09-.21.13,0,0,0,0-.01,0,0,0,0,0-.01,0-.02,0-.03.01-.05.01,0,0-.01,0-.02,0,0,0-.01,0-.02,0,0,0,0,0,0,0,0,0,0,0,0,0l-.22-.2h0s-.01-.01-.01-.02c0,0,0,0,0-.01,0,0,0-.01-.01-.02,0,0,0-.01-.01-.02,0,0,0-.01-.01-.02,0,0,0,0,0,0,0,0,0-.01,0-.02,0-.02-.01-.03-.02-.05,0,0,0-.02,0-.02,0-.03-.01-.06-.01-.09,0,0,0,0,0-.01,0-.01,0-.03,0-.04,0-.02,0-.04,0-.06,0,0,0,0,0,0,0,0,0,0,0-.01t0,0s0,0,0-.01h0s0,0,0,0c0,0,0,0,0,0,0,0,0,0,0,0,0,0,0,0,0,0,0,0,0,0,0,0,0,0,0,0,0-.01,0-.01.02-.02.02-.04h0s0,0,.01-.01c0,0,.01-.01.02-.02.01-.01.02-.02.04-.02,0,0,.01,0,.02,0,0,0,0,0,.01,0,0,0,.01,0,.02,0,.01,0,.02,0,.03,0,.02,0,.05,0,.08,0,0,0,.02,0,.03,0,0,0,0,0,0,0,0,0,.01,0,.02,0,0,0,.02,0,.03,0,0,0,0,0,0,0,.01,0,.03,0,.04,0,.02,0,.03,0,.05.01.01,0,.03,0,.04.01.02,0,.04,0,.06.01.02,0,.04.01.06.01,0,0,.02,0,.03,0,0,0,.02,0,.03,0,.06.01.13.03.19.04.02,0,.03,0,.05,0,.01,0,.02,0,.03,0,0,0,0,0,.01,0,0,0,.01,0,.02,0,0,0,0,0,.01,0t0,0s0,0,0,0t0,0s.01,0,.02,0h.01s.03,0,.04,0c.03,0,.06,0,.09,0,0,0,.02,0,.03,0h0s.02,0,.03,0h0s.01,0,.02,0c.03,0,.06-.01.08-.02.02,0,.04-.01.05-.02.02,0,.04-.01.05-.02.02,0,.03-.02.05-.03,0,0,0,0,0,0ZM25.54,19.7s-.05,0-.08,0c-.02,0-.04,0-.06,0-.01,0-.02,0-.03,0-.01,0-.02,0-.03,0-.02,0-.04,0-.06,0-.02,0-.04,0-.06.01-.02,0-.05.01-.07.02,0,0,0,0-.01,0-.02,0-.03.01-.05.01-.05.02-.11.04-.16.06,0,0-.01,0-.02,0-.05.02-.09.04-.14.05-.04.02-.08.03-.11.05,0,0-.01,0-.02,0-.02,0-.03.01-.04.02,0,0-.01,0-.02,0-.02.01-.04.02-.06.03,0,0,0,0-.01,0-.04.02-.09.05-.13.07-.02.01-.04.02-.06.04-.02.01-.05.03-.07.05-.03.02-.05.03-.08.05-.02.01-.04.03-.06.04-.05.04-.11.08-.16.12-.06.05-.12.1-.17.16-.02.02-.04.04-.06.06h0s-.08.09-.12.14c-.02.02-.04.05-.06.07l-.28.35s0,.02,0,.04c0,0,0,.02,0,.03,0,.02.01.03.02.05,0,0,0,0,0,.01,0,0,0,.01.01.02,0,0,.01.02.02.03,0,0,.01.02.02.03,0,.01.02.03.03.04,0,.01.02.02.03.03,0,0,0,0,0,.01,0,0,.01.01.02.02,0,0,.02.01.02.02.01,0,.02.02.03.02,0,0,0,0,0,0,0,0,.02,0,.03.01,0,0,.02,0,.03,0,0,0,.01,0,.02,0,0,0,.01,0,.02,0h0s.01,0,.02,0h.02s0,0,0,0h.03s0,0,.01,0c.02,0,.03,0,.05,0,0,0,.01,0,.02,0,0,0,0,0,.01,0,.01,0,.03,0,.04-.01,0,0,.01,0,.01,0,0,0,0,0,0,0h0c.06-.02.12-.05.17-.08l-.28-.11.76-.42-.44-.06s.06-.06.08-.09c0,0,.02-.02.03-.03.04-.04.07-.07.11-.11.02-.02.04-.03.06-.05.1-.09.2-.17.31-.25.04-.03.09-.07.14-.1.01,0,.03-.02.04-.03.02-.02.05-.03.08-.05,0,0,.02-.01.02-.02.04-.03.08-.05.12-.08.03-.02.05-.03.08-.05.03-.02.05-.03.08-.05.12-.08.25-.15.38-.23,0,0,.01,0,.02-.01h0ZM24.4,25.47s0,0,0,0t0,0s0-.01,0-.02c0,0,0,0,0,0,0,0,0-.02,0-.02,0,0,0-.01,0-.02h0s-.04,0-.07,0c-.03,0-.05,0-.08,0-.02,0-.04,0-.07,0h-.03s-.03,0-.04,0h-.01s-.02,0-.03,0-.02,0-.03,0c-.02,0-.04,0-.06,0-.07,0-.13,0-.2.02-.05,0-.11.01-.16.02-.05,0-.11.01-.16.02-.07.01-.15.02-.22.04,0,0-.01,0-.02,0-.01,0-.03,0-.04,0-.01,0-.03,0-.04,0,0,0-.02,0-.03,0-.02,0-.04.01-.07.02-.03,0-.06.01-.08.02-.01,0-.03,0-.04,0-.02,0-.04.01-.06.02-.02,0-.03,0-.05.01-.02,0-.03,0-.05.01,0,.01.02.02.03.03.01.01.02.02.03.03.01.01.03.02.05.04,0,0,.02.01.03.02,0,0,0,0,0,0,.01,0,.02.01.03.02,0,0,.01,0,.02.01.01,0,.02.01.04.02.01,0,.02.01.04.02.01,0,.03.01.04.02,0,0,0,0,0,0,0,0,0,0,.01,0,0,0,0,0,.01,0,.02,0,.05.02.07.02,0,0,.01,0,.02,0,.02,0,.03,0,.05.01.01,0,.02,0,.03,0,0,0,0,0,.01,0,0,0,.02,0,.02,0,.01,0,.03,0,.04,0,0,0,.01,0,.02,0,.02,0,.04,0,.06,0,0,0,.01,0,.02,0,.03,0,.06,0,.08,0h0s.05,0,.07,0c.03,0,.05,0,.08,0,.02,0,.05,0,.07,0,.01,0,.02,0,.04,0,.02,0,.04,0,.05,0,.02,0,.03,0,.05,0,.03,0,.05-.01.07-.02.01,0,.02,0,.04,0,0,0,0,0,0,0,0,0,.01,0,.02,0,0,0,.01,0,.02,0,.07-.02.14-.05.19-.08,0,0,.01,0,.02-.01,0,0,.01,0,.02-.01.02-.02.04-.03.06-.05.02-.02.03-.04.05-.06,0-.01.01-.02.02-.03,0-.01,0-.02.01-.03h0s0-.01,0-.02c0,0,0,0,0-.01h0s0,0,0-.01c0,0,0-.02,0-.02s0-.02,0-.03ZM22.82,28.37l-.03-.08h0l.03.08.57.97-.57-.97ZM19.88,19.97s.07.02.1.03c-.04,0-.07-.02-.1-.03ZM19.84,19.94s-.03-.02-.05-.03c.02.01.03.02.05.04.01,0,.03.02.04.02-.02,0-.03-.01-.04-.02ZM17.59,20.29h0c.07-.01.14-.02.2-.04-.07.02-.14.03-.2.04ZM17.11,20.37l.48.41h0s-.48-.41-.48-.41ZM13.41,18.86h0c.07.01.15.02.22.04-.07-.01-.15-.02-.22-.04Z" style="fill:#fcfdfc;"/><path d="M23.32,29.9l-.02.27.02-.27h0ZM22.84,21.94h0l.13.23-.12-.23ZM24.81,25.45h0s0,0,.01-.01c0,0,0,0-.01.01ZM24.79,25.48h0s0,0,.01-.01c0,0,0,0-.01.01ZM29.36,29.67s0,0,0,0c0,0,0,0,0,0Z" style="fill:#10482f;"/><path d="M22.77,36.46s0,.01,0,.02l.02-.02h-.01ZM26.5,18.96s-.05,0-.08,0h-.04s-.04,0-.07,0c-.02,0-.05,0-.07,0,0,0-.01,0-.02,0-.04,0-.07,0-.11,0,0,0,0,0,0,0-.02,0-.04,0-.06,0-.01,0-.02,0-.03,0-.03,0-.07,0-.11,0-.03,0-.07,0-.1.01-.03,0-.07,0-.1.01-.03,0-.06.01-.1.01-.04,0-.09.02-.13.02-.02,0-.05.01-.07.02-.02,0-.04.01-.07.02-.02,0-.04.01-.06.02-.06.02-.12.03-.18.05-.03.01-.06.02-.09.03-.06.02-.13.05-.19.08l-.34.15c-.53.23-1.04.49-1.4.94l-.37.21v-.03s-.04-.44-.04-.44h0c-.12-.03-.24-.06-.36-.1,0,0,0,0,0,0-.13-.04-.25-.09-.38-.14,0,0,0,0,0,0-.22-.09-.64-.33-.64-.33,0,0-.01,0-.01,0,0,0,0,0-.01.01-.07.07-.17.13-.27.2-.11.08-.22.16-.26.26-.18.02-.46.05-.68.02-.02,0-.04,0-.06-.01-.04,0-.07-.02-.1-.03-.02,0-.03-.01-.04-.02-.02-.01-.03-.02-.05-.04-.03-.02-.06-.05-.09-.07-.03-.02-.06-.04-.09-.07-.03-.02-.06-.04-.1-.06-.01,0-.03-.02-.04-.02-.06-.04-.13-.06-.19-.09,0,0-.02,0-.03,0-.02,0-.11-.05-.11-.05l-1.55.72v.51s0,0,0,0l-.48-.41-.32-.29c-.32-.29-.76-.53-1.18-.67-.07-.02-.13-.04-.2-.07-.11-.04-.22-.07-.33-.1-.09-.03-.18-.05-.27-.08-.03,0-.07-.02-.1-.03-.03,0-.07-.02-.1-.03-.07-.02-.14-.03-.2-.05-.07-.02-.14-.03-.2-.05-.07-.02-.14-.03-.21-.04-.05,0-.09-.02-.14-.03-.07-.01-.14-.03-.22-.04-.07-.01-.15-.02-.22-.03l.08.73v.02c.14.69.45,1.36.95,1.89l.42.35c.16.13.36.21.57.29.66.25,1.29.04,1.47.85,0,0,0,.01,0,.02v.37s-.06.01-.06.01l-.67,1.7-.41,1.32h0s-.21.88-.21.88c-.18.77-.36,1.52-.82,2.18-.16.24-.78.97-1.37,1.66-.04.05-.08.1-.13.15-.04.05-.09.1-.13.15l.13.15,1.8,2.02.87.98.43.49.15.17.04.02c.07.03.17.05.26.05.12,0,.24-.03.34-.08.02,0,.03-.02.04-.03l.27-.2.74-.26c.37.28.8.37,1.22.25l.37.42c.11.12.21.22.3.31.15.14.29.25.44.34.13.08.17.19.23.33,0,.01.01.03.02.04.04.1.09.21.17.31h0c.07.09.16.16.26.22l.12.07.1-.09s0,0,0,0c.03-.03.06-.05.09-.07.04-.03.08-.06.12-.08.16-.1.33-.17.52-.23.04-.01.08-.02.12-.03,0-.07.01-.14.03-.2.04,0,.09-.02.13-.02.04,0,.09-.01.13-.02.01,0,.03,0,.04,0l-.02-.04c.03-.07.07-.13.12-.19l-.11-.23s.05-.06.08-.08l.02-.02s0,0,0,0l.1-.49.35-.33.28-.26c.1-.09.16-.2.21-.3.07-.15.09-.32.12-.47,0-.03,0-.05.01-.08,0,0,0,0,0,0s0,0,0,0c.06-.04.12-.08.17-.12.08-.07.14-.14.2-.23.01-.02.02-.04.03-.06v-.82s0,0,0,0c0,0,0,0,0,0l-.11-.02-.24-.04v-.03s-.07-.52-.07-.52l.16-.15s.03-.03.05-.05c.02-.03.04-.06.06-.09-.02-.14-.05-.28-.07-.42-.01-.09-.03-.18-.04-.26-.08-.49-.16-.91-.16-.91h0s-.38-.71-.38-.71l-.57-.97-.03-.08h0c-.12-.31-.23-.65-.29-.95,0-.02,0-.05-.01-.07,0,0,0,0,0,0-.02-.14-.03-.27-.02-.39,0-.02,0-.03,0-.05,0-.03,0-.05.02-.08,0-.01,0-.02,0-.04,0-.03.02-.05.03-.08,0-.01.01-.02.02-.03,0-.02.02-.03.03-.05,0-.01.02-.03.03-.04,0,0,.01-.01.02-.02,0,0,.02-.02.03-.02,0,0,.02-.01.02-.02.01,0,.03-.02.04-.03.01,0,.02-.01.03-.02.01,0,.02-.01.04-.02,0,0,.01,0,.01,0,0,0,0,0,.02,0,0,0,.01,0,.02,0,0,0,.01,0,.02,0,0,0,.01,0,.02,0,0,0,.01,0,.01,0,.01,0,.03,0,.04,0,0,0,.01,0,.02,0h.02s.01,0,.02,0c0,0,.02,0,.02,0h.8s.04-.01.06-.02c.01,0,.02,0,.03,0,.04,0,.07-.02.11-.03.02,0,.04-.01.06-.02.01,0,.03-.01.04-.02.06-.02.12-.05.17-.08.01,0,.02-.01.03-.02.01,0,.02-.02.04-.02.01,0,.02-.02.04-.03.01,0,.02-.02.03-.03,0,0,0,0,.01,0,.02-.02.04-.04.06-.06.01,0,.02-.02.03-.03.05-.05.09-.11.12-.17.01-.02.03-.05.04-.07.02-.04.03-.08.05-.12,0,0,0-.02,0-.03,0,0,0-.02,0-.02,0-.02.01-.05.02-.08h0s0,0,.01-.01c0,0,0,0,.01-.01h0s0,0,.01-.01c0,0,0,0,.01-.01.02-.02.03-.03.05-.05.02-.02.03-.04.05-.06.01-.02.03-.03.04-.05,0,0,.01-.02.02-.03,0-.01.02-.02.02-.03,0,0,0-.01.01-.02.01-.02.02-.04.03-.05,0-.01.01-.02.02-.03,0,0,0,0,0,0,0-.01.01-.03.02-.04.02-.04.03-.07.04-.11.01-.04.02-.07.03-.11,0-.02,0-.04,0-.06,0-.02,0-.04,0-.06,0-.02,0-.03,0-.05,0-.1,0-.21-.01-.32,0-.01,0-.02,0-.04.01-.06.01-.13,0-.19-.02-.12-.08-.23-.17-.31l-1.46-1.12s-.01-.04-.01-.07v-.02s0-.06,0-.1c0-.14.03-.3.08-.39.03,0,.06,0,.08,0,.04,0,.07,0,.11,0,0,0,.01,0,.02,0,.03,0,.07,0,.1-.01.03,0,.07,0,.1-.01.03,0,.06-.01.09-.02.02,0,.04,0,.06-.01.02,0,.04,0,.06-.01.02,0,.04,0,.06-.01.02,0,.05-.01.07-.02.03,0,.05-.01.08-.02.03,0,.05-.01.07-.02.02,0,.04-.02.06-.02.05-.02.11-.04.16-.06.04-.02.09-.04.13-.06.02,0,.04-.02.06-.03.02,0,.03-.02.05-.03.02-.01.05-.03.07-.04.02-.01.04-.02.06-.04.02-.01.04-.03.06-.04.02-.01.03-.02.05-.04.01,0,.02-.02.03-.02.02-.01.04-.03.06-.05.01-.01.03-.02.04-.03h0s.02-.02.03-.03c0,0,0,0,0,0,.01-.01.03-.02.04-.04.02-.02.05-.04.07-.07.01,0,.02-.02.03-.03l.04-.04s0,0,.01-.01c0,0,0-.01.01-.02,0,0,.01-.01.02-.02.02-.03.04-.05.07-.08.02-.03.04-.05.07-.08.03-.04.06-.08.09-.13,0,0,0-.01.01-.02.02-.03.05-.07.07-.1.02-.03.04-.07.07-.11,0,0,0-.02.01-.02.02-.03.03-.06.05-.09,0,0,0,0,0-.02,0-.01.01-.02.02-.03.01-.03.02-.05.04-.08,0-.02.02-.04.03-.06.02-.04.04-.08.06-.13.02-.04.03-.09.05-.13.03-.09.06-.18.09-.27.03-.1.06-.2.08-.3.05-.2.09-.42.11-.64h0ZM19.4,27.21s0,0-.01,0c0,0,0,0,0,0,0,0,0,0,0,0,0,0,0,0,0,0ZM17.06,23.73h0s0,0,0,0t0,0h0s0,0,0,0t0,0h0ZM21.14,34.9s0,0,0,0c0,0,0,0,0,0,0,0,0,0,0,0h.01s0,0,0,0v.09s-.03-.11-.03-.11h0Z" style="fill:#174932;"/><path d="M31.37,31.15s0,0-.01,0c0,0,0,0,0,0,0,0,0,0,0,0,0,0,0,0,0,0Z" style="fill:none;"/><path d="M33.13,38.85v.09s-.03-.11-.03-.11h0s0,0,0,0c0,0,0,0,0,0,0,0,0,0,0,0h.01s0,0,0,0Z" style="fill:none;"/><polygon points="29.03 27.67 29.03 27.67 29.03 27.67 29.03 27.67 29.03 27.67" style="fill:none;"/><polygon points="29.03 27.67 29.03 27.67 29.03 27.67 29.03 27.67" style="fill:none;"/><path d="M36.51,38.27c.08-.1.14-.16.14-.16-.04.03-.08.05-.12.07,0,.03-.01.06-.02.09Z" style="fill:#174932;"/><path d="M16.01,30.22s0,.05-.01.09c0-.03,0-.06.01-.09Z" style="fill:#10482f;"/><path d="M16.1,31.19c-.02-.06-.03-.12-.05-.17.01.06.03.12.05.17Z" style="fill:#10482f;"/><path d="M16.47,32.01s0,0,0,0c0,0,0,0,0,0l-.25-.52.25.52s0,0,0,.01Z" style="fill:#10482f;"/><path d="M24.84,25.43s-.03.03-.05.05h0s.03-.03.05-.05Z" style="fill:#edf2e9;"/><path d="M17.63,26.75h-.02s0,0,0,0h.05s-.04,0-.04,0ZM17.9,25.38l-.06.56.06-.56h0Z" style="fill:#2f6d46;"/><path d="M17.82,33.56l-.57-.61-.47-.53c-.09-.1-.18-.2-.25-.31-.01-.02-.02-.04-.03-.06,0-.01-.02-.03-.02-.05,0,0,0,0,0,0,0,0,0,0,0,0l-.25-.52s-.03-.07-.05-.11c0-.01-.01-.02-.02-.04-.01-.03-.02-.07-.03-.1,0-.01,0-.02-.01-.03-.02-.06-.03-.12-.05-.17,0,0,0-.02,0-.03-.01-.05-.02-.1-.03-.15,0-.04-.01-.07-.02-.11,0-.03,0-.07-.01-.1,0-.02,0-.03,0-.05,0-.03,0-.05,0-.07,0-.03,0-.07,0-.1,0,0,0-.02,0-.03,0-.02,0-.04,0-.06,0,0,0-.02,0-.03,0-.03,0-.06.01-.09,0,0,0,0,0,0,0-.01,0-.02,0-.03,0-.01,0-.02,0-.03,0,0,0-.01.01-.02,0,0,0,0,0,0,0,0,0,0,.01,0h.18s0,.12,0,.12c.01.14.03.29.07.43,0,.03.02.06.03.08.02.06.04.11.06.16l.37.77s.02.05.04.07c.01.03.03.05.05.08,0,.01.02.03.03.05.02.03.04.06.07.1.04.05.08.1.12.16.03.04.06.08.09.11.04.05.08.11.12.16.03.04.06.09.09.13.04.06.08.12.12.19.05.09.1.18.14.28.02.04.04.09.06.13.02.04.03.08.04.12.01.04.02.07.03.11,0,.03.02.07.03.1,0,.01,0,.02,0,.03,0,.02,0,.04.01.06Z" style="fill:#2a6844;"/><path d="M24.24,25.4s-.04,0-.07,0c.05,0,.1,0,.15,0-.03,0-.05,0-.08,0ZM21.83,26.81s0,0,0,0h0s0,0,0,0h0s0,0,0,0h0ZM21.83,26.81h0s0,0,0,0h0ZM21.84,26.81h0s0,0,0,0h0s0,0,0,0ZM21.83,26.82h0s0,0,0,0h0ZM19.91,27.39v.08s0,0,0,0h0s.01-.08.01-.08h0s0,0,0,0Z" style="fill:#10472f;"/><path d="M19.4,27.21s0,0,0,0c0,0,0,0,0,0,0,0,0,0,.01,0,0,0,0,0,0,0Z" style="fill:#10482f;"/><polygon points="17.06 23.73 17.06 23.73 17.06 23.73 17.06 23.73" style="fill:#113e28;"/><polygon points="17.06 23.73 17.06 23.73 17.06 23.73 17.06 23.73" style="fill:#113e28;"/><path d="M18.01,24.81h0s-.11.57-.11.57h0l.11-.57h0ZM19.07,22.45l-.2.1.21-.1h0s0,0,0,0ZM22.84,21.94s0,0,0,0h0s0,0,0,0Z" style="fill:#327149;"/><path d="M22.87,31.81s0,.09,0,.14c0,.16-.03.32-.05.48l-.07-.25-.29-.65c-.12.15-.14.27-.14.45l-.02.72c-.02.78-.29,1.49-.66,2.16,0-.86,0-1.71-.34-2.52-.21-.49-.42-.99-.75-1.41l-1.31-1.66-.07.46c.14.16.23.38.08.61-.42-.45-.69-1.02-.8-1.64l-.2-1.12-.26.88c-.09-.08-.15-.34-.16-.51l-.05-1.2.14-1.37.11-.57s0-.01,0-.02c0-.01,0-.02.01-.03,0-.02.02-.04.03-.04h.06c-.1.42.04.89.26,1.24l.34.53.33.82.17-.58.14.49.1.26-.02.06.3.66h.14s.01-.18.01-.18l-.04-.15.02-.14v-.13s.04-.22.04-.22l.14.36s0,.02.01.03c.01.04.03.08.05.11,0,.02.01.03.02.05,0,.01,0,.02.02.03,0,0,0,.02.01.03.03.05.05.11.08.16.02.03.04.07.06.1.01.02.03.04.04.06.03.04.05.08.08.12.01.02.03.04.04.06.06.08.12.15.18.23.04.05.08.09.12.13.04.04.08.09.12.13.09.08.17.17.27.25-.14-.57-.13-1.13.07-1.62.02-.04.03-.07.05-.11.02-.04.03-.07.05-.1.03-.05.06-.1.09-.15.03-.05.07-.1.11-.14.04-.05.08-.09.12-.13.05-.04.09-.09.14-.13.02-.01.03-.03.05-.04,0,.1,0,.2-.01.3,0,.23-.01.44.01.65,0,.04.01.09.02.13.01.06.03.12.05.18l.37,1.1c.08.17.15.35.21.53.1.28.18.56.25.85.02.08.03.16.05.25.01.08.03.17.04.25,0,.08.02.17.03.25t0,0c.01.17.02.34.01.51Z" style="fill:#f3f7f4;"/><path d="M18.03,24.75s-.01.04-.02.06l-.11.57-.14,1.37.14-1.37.11-.57s0-.04.02-.06Z" style="fill:#f3f7f4;"/><path d="M21.85,26.8h0s-.03.03-.05.04c.02-.01.03-.03.05-.04Z" style="fill:#f3f7f4;"/><path d="M24.65,23.95s-.07.04-.11.05c-.02,0-.04.01-.05.02-.03.01-.07.02-.1.03h0s-.04,0-.05,0c-.04,0-.09,0-.13,0h0s-.03,0-.04,0c0,0-.01,0-.02,0-.02,0-.03,0-.05,0-.02,0-.03,0-.05,0-.07,0-.13-.02-.19-.04-.02,0-.03,0-.05-.01-.02,0-.04,0-.06-.01-.22-.06-.39-.1-.5.01,0,0,0,0-.01.01-.01.01-.02.03-.03.05,0,.01-.01.03-.02.05-.02.12.02.31.1.38l.22.2c.06.05.21-.07.33-.14,0,0,0,0,0,0,0,0,0,0,0,0,0,0,0,0,0,.01h0s0,.01,0,.02c0,0,0,0,0,.01,0,.01,0,.03.01.05.02.1.02.26-.02.32-.23.31-1.36.37-1.99.08,0-.03.01-.06.04-.09.01-.02.02-.03.04-.04.03-.03.07-.06.1-.07l.34-.12c-.03-.53.33-1.05.78-1.18h0c.39-.12.63-.1.88.03.04.02.08.04.12.07.06.04.13.08.19.13h0s.07.05.11.08c.06.04.12.09.19.13Z" style="fill:#edf2e9;"/><path d="M24.44,20.9l-.76.42.28.11c-.15.09-.37.15-.48.08-.1-.06-.23-.27-.22-.35l.28-.35c.08-.1.16-.19.24-.27.06-.06.11-.11.17-.16.33-.27.7-.46,1.14-.61.12-.04.32-.06.45-.06-.56.34-1.03.62-1.46,1.05-.03.03-.06.06-.09.09h0l.44.06Z" style="fill:#edf2e9;"/><polygon points="18.23 24.24 18.23 24.24 18.12 24.72 18.23 24.24" style="fill:#05381e;"/><path d="M24.37,25.63s-.03.04-.05.06c-.02.02-.04.04-.06.05-.33.24-1.14.26-1.5-.13.05-.02.11-.03.16-.04.01,0,.03,0,.04,0,.08-.02.17-.04.26-.06.08-.02.16-.03.24-.04.11-.02.21-.03.32-.04.07,0,.13-.01.2-.02.02,0,.04,0,.06,0,.12,0,.24,0,.36,0h0s0,0,0,0c0,.03.02.05.02.07,0,.06,0,.11-.04.16Z" style="fill:#edf2e9;"/><path d="M23.02,22.29l-.18-.34s0-.01,0-.02c0,0,0-.01,0-.02-.02-.12.05-.33.11-.42h.1c.02.06.04.1.06.15.01.03.02.06.03.1,0,.03.01.07.01.1.01.14-.02.3-.12.46Z" style="fill:#edf2e9;"/><path d="M22.27,25.38h-.31s-.02,0-.03-.01c0,0-.01-.01-.02-.02,0,0,0,0,0-.01,0,0,0,0,0-.01,0-.02-.02-.03-.02-.05,0,0,0-.01,0-.02,0-.01,0-.03,0-.04,0-.02,0-.05,0-.06l.42.23Z" style="fill:#10482f;"/><polygon points="19.92 27.39 19.89 27.61 19.91 27.39 19.92 27.39" style="fill:#edf2e9;"/><path d="M19.4,27.21s-.01,0-.02,0c0,0,0,0,0,0,0,0,0,0,0,0,0,0,0,0,0,0Z" style="fill:#113e28;"/><path d="M17.63,26.75h-.02s0,0,0,0h.05s-.04,0-.04,0Z" style="fill:#2a6844;"/><path d="M22.98,22.63c-.17-.16-.32-.34-.37-.57l.23-.12s0,0,0,0c0,0,0,0,0,0,0,0,0,0,0,0h0s0,0,0,0c0,0,0,0,0-.01s0,0,0-.01c0-.02,0-.03,0-.05,0-.04,0-.1.02-.15,0,0,0,0,0-.01,0-.01,0-.03.01-.04,0-.01,0-.03.01-.04,0-.01.01-.03.01-.04,0-.01.01-.03.02-.04,0,0,0,0,0,0,0,0,0-.02.01-.03,0-.01.01-.02.02-.03.07-.15-.2-.19-.26-.27-.39-.47-.5-.98-1.3-1.07l-.32.38c.2.11.38.2.54.38-.41-.04-.79-.09-1.1-.22l-.58-.26-.58-.2-.07-.04-.13-.08s-.11.09-.16.15c0,.01-.02.02-.03.03l-.7.39c.09.22.16.36.16.47,0,.1-.21.26-.3.23l-.81-.25c-.15-.05-.29-.05-.42.02h0s0,.01.01.02c0,0,0,0,0,.01,0,0,0,0,.01.01,0,0,0,0,0,.01.03.05.06.11.08.16,0,0,0,.02.01.03.01.03.02.05.03.08,0,.02.01.03.02.05.01.03.02.07.03.11,0,.02,0,.03.01.05,0,0,0,0,0,0,0,0,0,.01,0,.02,0,0,0,0,0,.01,0,0,0,0,0,.01,0,0,0,.01,0,.02,0,.02.01.04.02.06,0,.02.01.04.02.06.01.04.02.08.03.12h0l-.39-.09h0s0,0,0,0c.05.06.15.15.24.22l.36.55v.08s.04.16.04.16c.15.14.31.59.17.75-.19.11-.28.17-.35.38-.2.6-.41,1.16-.52,1.75-.12.63-.17,1.33-.21,1.96,0,0,0,0,0,0,0,0,0,0,0,.01,0,.05.02.21.01.21l.08.48v.05s0,.02,0,.02v.04s0,.04,0,.04c0,0,0,.23,0,.33,0,0,0,0,0,.01,0,0,0,.01,0,.02,0,.01,0,.02,0,.03,0,0,0,.02,0,.02,0,0,0,0,0,0s0,0,0,0t0,0s0,0,0,0c0,0,0,0,0,0h0s0,0,0,0h0s0,0,0,0,0,0,0,0c0,0,0,0,0,0,0,0,0,0,0,0h0s0,0,0,0c.04.03.17.25.17.25,0,0,.15.31.15.31.04.14.11.38.17.5l.38.65s.01-.02.02-.03c.01-.02.03-.04.04-.06,0,0,.01-.02.02-.03,0,0,.01-.02.01-.03,0-.01,0-.02.01-.03v-.03s.02-.03.02-.04c0-.01,0-.02,0-.04,0-.01,0-.03,0-.04,0-.03,0-.07.01-.1,0-.02,0-.05,0-.07.01,0,.02,0,.03,0,0,0,.01,0,.02,0,.01,0,.02,0,.04,0,0,0,.01,0,.02,0,0,0,.01,0,.02,0,.01,0,.02,0,.03.01.01,0,.02,0,.03.01,0,0,.02.01.02.02,0,0,.02.01.03.02.02.01.04.03.05.05,0,0,.01.02.02.03h0s.01.02.02.03c0,0,0,.01.01.01,0,.01.01.02.02.04,0,.01.01.02.02.03,0,0,0,0,0,.01.01.02.02.04.03.07.03.07.05.14.08.21.02.04.04.08.06.12,0,0,0,0,0,0,.02.04.04.07.06.11,0,.01.02.03.02.04.01.02.02.04.03.05,0,0,0,.02.02.03.02.03.04.07.06.1,0,0,.01.02.02.03.03.04.06.09.09.13.01.02.03.04.05.07.03.04.06.08.09.13.02.02.04.04.05.07.01.02.03.03.04.05.02.02.04.04.06.06.02.02.03.04.05.06l.28.3s.02.02.03.03c0,0,.01.02.02.03,0,0,0,0,0,0,0,.01.01.02.02.03.01.02.02.03.03.05,0,.01.01.02.02.03.04.07.07.15.11.22,0,.02.02.03.03.04,0,0,0,.01.01.02,0,0,0,.01.01.02.01.01.02.03.03.04,0,0,.01.01.02.02,0,0,.02.02.03.02.02.01.03.03.05.04,0,0,0,0,.01,0,0,0,.02,0,.02.01,0,0,0,0,0,0l.06-.51h0s.02-.21.02-.21v-.08c.5.49.66,1.03.99,1.55.12.19.25.37.31.6l.14.56.12.15c.08.11.16.22.28.27l.08-.12h0s.05-.12.05-.12h0c0-.22,0-.43,0-.65,0-.05,0-.09,0-.14,0-.04,0-.08,0-.13,0,0,0-.01,0-.02,0-.04,0-.07,0-.11,0-.09-.01-.17-.02-.26,0-.04,0-.09-.02-.13,0-.04-.01-.09-.02-.13,0-.02,0-.04-.01-.06,0-.03-.01-.06-.02-.09,0-.04-.02-.08-.02-.12,0-.03-.02-.07-.02-.1,0-.03-.02-.07-.03-.1-.01-.05-.03-.09-.04-.14-.01-.05-.03-.09-.05-.14-.02-.07-.05-.14-.08-.2-.01-.03-.03-.06-.04-.09,0-.02-.01-.03-.02-.05-.02-.05-.04-.09-.06-.14-.02-.05-.04-.09-.06-.14-.02-.05-.04-.09-.06-.14-.03-.06-.06-.12-.09-.18-.12-.24-.26-.47-.42-.68l-1.31-1.66-.07.46s.01.01.02.02c0,0,.01.02.02.03,0,0,.01.02.02.03,0,0,.01.02.02.03,0,0,.01.02.02.03,0,.01.01.02.02.03,0,.01.01.02.02.03h0s.01.03.02.05c0,.01,0,.02,0,.03,0,.02,0,.04,0,.06,0,.01,0,.02,0,.03h0s0,.02,0,.02c0,0,0,0,0,.01,0,.01,0,.02,0,.03,0,.02,0,.03,0,.04,0,.02,0,.03-.01.05-.01.03-.03.06-.05.09-.42-.45-.69-1.02-.81-1.64l-.2-1.12-.26.88s-.02-.02-.03-.04c0,0-.01-.01-.01-.02,0,0,0-.02-.01-.03,0,0,0-.02-.01-.03,0,0,0-.02-.01-.03,0-.01,0-.02-.01-.03,0-.01,0-.02-.01-.03,0-.01,0-.02-.01-.04,0-.01,0-.02,0-.03,0-.02,0-.04-.01-.06,0,0,0-.01,0-.02h0s0-.02,0-.03c0-.01,0-.02,0-.03,0-.01,0-.02,0-.03,0-.01,0-.02,0-.03h0s0-.02,0-.03l-.05-1.2h0s.01-.13.01-.13l.02-.19.02-.17v-.04s0,0,0,0h0s0-.04,0-.04v-.04s.02-.17.02-.17h0s0-.01,0-.01v-.03s0,0,0,0l.06-.56.11-.57h0s0,0,0,0h0s0,0,0,0c0,0,0,0,0,0,0,0,0,0,0,0,0,0,0,0,0,0h0s0,0,0,0c0,0,0,0,0,0,0,0,0,0,0,0,0,0,0,0,0,0,0,0,0,0,0,0,0,0,0,0,0,0,0,0,0,0,0,0,0-.01,0-.02.01-.03,0,0,0,0,0,0s0,0,0,0h.06s0,0,0,0l.04-.16v-.03s0,0,0,0v-.04s.07-.24.07-.24h0s0,0,0,0c.01.08.02.16.04.22,0,.02.01.05.02.07,0,.02,0,.04.01.05.01.03.02.06.03.1.01.04.03.08.05.12t0,0c.02.05.05.1.07.14.03.05.05.09.08.13.03.04.06.08.08.11.03.04.06.07.09.1.05.05.09.1.14.15.01.02.03.03.04.05.07.07.12.15.17.23l.55.18c.17.07.37.04.57,0,.03,0,.06-.01.1-.02.03,0,.06-.01.09-.02l.77-.14.7-.06h.15s.4-.01.4-.01v-.26s-.12,0-.12,0h-.1s-.05,0-.05,0h-.16s-.02,0-.02-.01c0,0-.02-.01-.02-.02h0s0,0,0-.01c0,0,0,0,0,0,0,0,0,0,0,0,0-.02-.02-.03-.02-.05,0,0,0,0,0,0,0,0,0,0,0,0h0s0-.01,0-.01h0s0,0,0,0c0,0,0,0,0,0,0,0,0-.01,0-.01,0,0,0,0,0,0,0,0,0,0,0,0,0,0,0,0,0,0h0s0,0,0,0c0,0,0-.01,0-.02,0-.01,0-.02,0-.03v-.12s0-.01,0-.02h0s0,0,0,0c0,0,0,0,0,0h0s0-.02.01-.03c0,0,0,0,0-.01,0,0,0-.02.01-.02,0,0,.01-.01.02-.02,0,0,0,0,0,0,0,0,.01-.01.02-.02.02-.02.03-.03.05-.04.02-.01.04-.02.05-.03l.34-.12h0s0-.04,0-.06c0-.03,0-.06,0-.09,0-.02,0-.03,0-.05h0s0-.02,0-.03c0,0,0,0,0,0,0-.02,0-.03,0-.04,0-.01,0-.03,0-.04,0,0,0,0,0-.01,0,0,0,0,0-.01t0,0s0-.03.01-.04c0,0,0,0,0,0,0-.01,0-.03.01-.04,0-.02.01-.03.02-.04,0-.02.01-.03.02-.05,0,0,0,0,0,0,0,0,0-.01,0-.02,0,0,0,0,0-.01,0-.01.01-.03.02-.04,0-.01.01-.03.02-.04.01-.03.03-.05.05-.08,0-.01.02-.03.03-.04,0-.01.02-.03.03-.04.01-.01.02-.02.03-.04,0-.01.02-.02.03-.03.02-.02.04-.05.06-.07.01-.01.02-.02.04-.03h0s.01-.01.02-.02c0,0,0,0,0,0,.01-.01.03-.02.04-.03.01,0,.02-.02.04-.03,0,0,0,0,0,0h0s0,0,0-.01h0s0,0,0,0c0,0,0,0,0,0,0,0,0,0,0,0,0,0,0,0,.01,0,0,0,0,0,0,0,0,0,0,0,0,0,0,0,0,0,0,0,0,0,.01,0,.02,0h0s.02-.01.04-.02c.01,0,.03-.01.04-.02.01,0,.03-.01.04-.02.01,0,.03-.01.04-.01h0s0,0,0,0c.01,0,.03,0,.04-.01h0l.38-.36-.56-.53ZM21.34,34.79s.03,0,.05,0c-.02,0-.03,0-.05,0h0ZM20.84,31.95s.02.01.02.02c0,0-.02-.01-.02-.01h0ZM17.66,26.75h-.05s.02,0,.02,0h.04ZM21.14,23.6l-.59-.22s-.01,0-.02,0c0,0-.01,0-.02,0,0,0,0,0,0,0-.01,0-.02,0-.03-.01-.01,0-.02,0-.03-.01,0,0,0,0-.01,0,0,0-.01,0-.02,0,0,0,0,0,0,0,0,0-.02,0-.03,0-.02,0-.04-.01-.06-.02,0,0-.02,0-.03,0,0,0-.01,0-.02,0-.02,0-.03,0-.05,0,0,0,0,0-.01,0-.01,0-.02,0-.03,0,0,0-.01,0-.02,0,0,0-.02,0-.03,0,0,0-.01,0-.02,0-.02,0-.03,0-.05,0-.01,0-.03,0-.04,0-.03,0-.05,0-.07,0-.01,0-.02,0-.03.01-.02,0-.04.01-.06.02-.02,0-.03,0-.05.01,0,0,0,0-.01,0-.01,0-.02,0-.03,0,0,0-.01,0-.02,0,0,0,0,0-.01,0,0,0,0,0-.01,0,0,0,0,0,0,0,0,0-.01,0-.02,0h-.03s-.02,0-.03,0c0,0-.02,0-.02,0,0,0-.01,0-.02,0,0,0,0,0-.01,0,0,0-.02,0-.03,0-.02,0-.03,0-.05,0-.01,0-.03,0-.04,0,0,0,0,0-.01,0,0,0-.02,0-.03,0h0s-.02,0-.04-.01c-.01,0-.02,0-.04-.01,0,0,0,0-.01,0,0,0-.02,0-.02-.01,0,0-.01,0-.02,0-.02,0-.03-.02-.05-.03-.02-.01-.04-.03-.06-.04-.02-.01-.04-.03-.06-.05-.02-.02-.04-.03-.05-.05,0,0,0,0,0,0-.02-.02-.03-.04-.05-.06,0,0-.01-.02-.02-.03-.02-.03-.04-.06-.06-.09,0,0,0-.01-.01-.02,0,0,0-.01-.01-.02,0,0,0,0,0-.01,0,0,0-.01,0-.02,0,0,0-.01,0-.02h0s-.02-.06-.02-.09c0,0,0-.01,0-.02,0,0,0-.01,0-.02,0-.02,0-.04-.01-.06,0,0,0-.01,0-.02,0-.01,0-.02,0-.03l.2-.1h0s0,0,0,0l-.12-.18-.02-.04-.09-.13-.05-.07-.08-.12s0-.02,0-.03h0s0-.01,0-.02c0,0,0,0,0,0,0-.02.01-.03.03-.05,0,0,.01-.02.02-.03.01-.01.03-.03.04-.04,0,0,.01-.01.02-.02.03-.03.06-.05.1-.08,0,0,0,0,0,0,.02-.01.04-.03.06-.04.01,0,.02-.01.03-.02.02,0,.03-.02.05-.03.01,0,.02-.01.04-.02,0,0,.01,0,.02,0,.01,0,.02-.01.03-.02.02,0,.04-.02.07-.02.02,0,.05-.02.07-.02,0,0,.01,0,.02,0,.01,0,.03,0,.04-.01h.01s.02,0,.03,0c.02,0,.04,0,.05-.01.02,0,.04,0,.06,0,.01,0,.02,0,.04,0,.02,0,.04,0,.06,0h.01s.06,0,.09,0c.02,0,.04,0,.05,0,0,0,0,0,0,0,0,0,0,0,.01,0,0,0,.01,0,.02,0,0,0,0,0,0,0,0,0,0,0,0,0,0,0,0,0,0,0,0,0,0,0,0,0,0,0,.02,0,.03,0s.02,0,.03,0c0,0,0,0,.01,0,0,0,0,0,.01,0,0,0,.01,0,.02,0,0,0,.01,0,.01,0,0,0,.02,0,.03,0,0,0,0,0,0,0,0,0,0,0,0,0,0,0,.01,0,.02,0,.02,0,.04.01.06.02,0,0,0,0,0,0,0,0,0,0,0,0,0,0,.02,0,.02.01,0,0,0,0,.01,0,0,0,.01,0,.02,0,0,0,0,0,0,0,.01,0,.02.01.03.02,0,0,.01,0,.02.01,0,0,.02.01.03.02.02.01.03.02.05.03.02.01.03.02.05.04.02.01.04.03.05.05,0,0,.02.02.03.03,0,0,.01.02.02.02,0,0,.01.01.01.02,0,0,0,0,0,0,0,0,0,0,0,0,0,0,0,0,0,.01,0,0,.01.02.02.02,0,0,.01.01.02.02,0,0,0,.01.01.01,0,.01.02.02.03.04,0,0,.01.02.02.03.01.02.03.04.04.07.03.04.05.09.07.14,0,.02.02.04.03.07,0,.03.02.05.03.08,0,.02.01.04.02.06,0,0,0,0,0,.01,0,0,0,.01,0,.02,0,.02,0,.03.01.05,0,.02,0,.04.01.05,0,0,0,.01,0,.02,0,.02,0,.05,0,.07,0,.01-.01.03-.02.05,0,0,0,.01,0,.02,0,0,0,.02,0,.03,0,.01,0,.03-.01.04,0,0,0,.01,0,.02,0,.01,0,.02,0,.03,0,0,0,0,0,.01,0,0,0,0,0,0,0,0,0,0,0,0s0,0,0,0c0,0,0,0,0,0l.32.08s0,0,0,0,0,0,0,0c0,0,0,.01,0,.02,0,.01,0,.03.01.05,0,0,0,0,0,0,0,0,0,0,0,0,0,0,0,.01,0,.02,0,0,0,.02,0,.03,0,0,0,0,0,.01,0,0,0,0,0,.01v.02s0,.01,0,.02h0s0,.02,0,.03c0,0,0,.01,0,.01,0,0,0,.01,0,.01,0,0,0,.02,0,.03,0,0,0,.02,0,.03v.02s0,0,0,0c0,0,0,0,0,0,0,.02,0,.05,0,.07,0,0,0,.02,0,.03s0,.02,0,.02c0,0,0,.02,0,.02l.07.3h0Z" style="fill:#2a6844;"/><path d="M17.53,26.18v.02s0-.02,0-.02h0Z" style="fill:#327149;"/><path d="M17.52,26.37s0-.02,0-.03c0,.02,0,.05,0,.07,0-.01,0-.02,0-.03Z" style="fill:#327149;"/><polygon points="17.76 26.75 17.61 26.75 17.61 26.75 17.76 26.75" style="fill:#327149;"/><path d="M16.66,29.01s-.01-.02-.02-.03c0,0,0-.02,0-.02,0,0,0,.02,0,.02,0,0,0,.02.01.03Z" style="fill:#10482f;"/><polygon points="16.63 28.43 16.63 28.57 16.63 28.57 16.63 28.57 16.63 28.43" style="fill:#10482f;"/><polygon points="17.06 23.73 17.06 23.73 17.06 23.73 17.06 23.73" style="fill:#174932;"/><polygon points="17.06 23.73 17.06 23.73 17.06 23.73 17.06 23.73" style="fill:#174932;"/><path d="M17.45,22.9s-.08-.03-.11-.04c-.01,0-.03-.02-.04-.03,0,0,0-.01,0-.02,0,0,0-.02,0-.02l.1-.05.05.17Z" style="fill:#174932;"/><path d="M17.21,21.97l-.39-.09-.82-.31.45-.09-.78-.44-.09-.19.58.05c-.59-.48-1.18-.82-1.87-1.26.8.06,1.48.39,2.11.82l.5.68c.16.22.22.51.31.83Z" style="fill:#edf2e9;"/><path d="M21.08,23.23s0,.04,0,.05c0,0,0,.01,0,.02l-.59-.4c-.12-.09-.29-.17-.44-.12-.4.11-.75-.02-.97-.33h0s-.24-.35-.24-.35l.38-.1c.85-.26.93.14,1.51.53-.02.05-.08.2-.03.22l.32.08s0,0,0,.01c0,0,0,.01,0,.02.01.03.02.06.03.1,0,0,0,.02,0,.03,0,.01,0,.02,0,.03,0,0,0,.02,0,.03,0,0,0,.02,0,.03,0,0,0,.02,0,.03,0,0,0,.02,0,.03,0,.03,0,.06,0,.09Z" style="fill:#174932;"/><path d="M21.14,23.6l-.59-.22s-.02,0-.04-.01c-.01,0-.03,0-.04-.01-.01,0-.03-.01-.05-.02-.02,0-.03-.01-.05-.02-.02,0-.04-.01-.06-.02-.03,0-.06-.02-.09-.02-.02,0-.03,0-.05,0,0,0-.01,0-.02,0,0,0-.02,0-.03,0,0,0-.01,0-.02,0-.02,0-.03,0-.05,0-.05,0-.1,0-.15.02-.55.17-1.01-.25-1.05-.74l.21-.1h0c.22.31.56.45.97.33.16-.04.32.03.44.12l.59.4.07.3Z" style="fill:#edf2e9;"/><path d="M20.72,22.53c-.58-.4-.66-.79-1.51-.53l-.38.1-.13-.18c-.1-.14.7-.75,1.43-.37.05.03.1.06.14.1.02.02.04.03.05.05,0,0,.02.02.03.03,0,0,.01.01.02.02,0,.01.02.02.03.03.02.02.03.04.05.06.02.02.03.04.04.06.01.02.03.04.04.07.03.04.05.09.07.14,0,.02.02.05.03.07,0,.03.02.05.03.08,0,.02.02.05.02.07,0,.03.01.05.02.07,0,.03,0,.05.01.07,0,.02,0,.05,0,.07Z" style="fill:#edf2e9;"/><path d="M19.89,28.02s-.04-.06-.05-.09c0-.02,0-.04,0-.06l.04.15Z" style="fill:#edf2e9;"/><path d="M19.14,19.55c-.84.4-1.55.72-1.55.72-.98-1.22-4.27-2.61-5.82-2.38-.71.11-1.47.6-1.44,1.39.01.4.35.78.76.73.33-.14.47-.18.4.24-.09.61-.89.88-1.43.71.04.42.24.66.62.81.18.2-.11.3-.29.36-.87.3-2.28-.61-2.25-1.6-.71.4-2.12-.12-2.14-.99,0-.12.01-.22.15-.24.94.53,1.74-.29,2.19-1.03-.56-.08-1.15-.81-.82-1.34.2-.32.28-.25.48.02.26.26.62.23.94.14.36-.14.73-.26,1.11-.34-.14-.09-1.05-.39-1.27-.45-.7-.21-1.95-.55-2.51.08-.18.21-.19.41-.07.64.26.28.13.41-.21.46-.33.05-.66-.13-.85-.39-.07.21-.05.42.02.62.33.51-.1.49-.47.31-1.59-.78-.88-2.86.61-3.26l-.38-.13c-.07,0-.15-.02-.24-.03-.87-.15-2.14-.71-2.02-1.68.04-.35.23-.55.55-.32.03-.36.31-.69.68-.7l.42.33c.07-.59.15-1.16.61-1.61.12-.12.46-.38.62-.39.12,0,.13.04.14.16-.1.45.09.8.3,1.17.11-.13.47-.38.63-.35.15.02.27.42.3.58,0,.03,0,.06,0,.09.04.4.03.81-.02,1.21.2-.21.7-.34.78,0-.19.45-.06.92.3,1.24.12.11,1.04.65,1.08.6-.56-.95-.9-1.95-1.17-2.99,0-.01,0-.03,0-.04-.26-.71-.6-1.59-1.38-1.85-.15-.1-.04-.24.04-.35.28-.37.77-.29,1.14-.21-.12-.14-.25-.28-.37-.44-.17-.35-.37-.67-.61-.95-.02,0-.03-.01-.05-.02-.13-.06-.19-.13-.21-.19-.03-.13.12-.26.34-.37.05-.03.11-.05.16-.07.13-.04.26-.07.4-.07.46-.02.95.14,1.3.39-.29-.65-.2-1.46.23-1.99.11-.14.25-.26.4-.35.03-.02.07-.04.1-.06.15.12.28.27.39.45.33-.41.78-.8,1.31-.9.37-.07.64-.05.36.35-.04.32-.06.65-.06.98.29.02.57-.01.84-.08.3-.17.44-.24.48.17,0,.07,0,.13,0,.19-.04.57-.55.98-1.06,1.23-.09.04-.18.08-.27.11-.15.09-.28.2-.39.32-.12.13-.21.29-.28.46-.02.06-.04.12-.05.18,0,0,.01,0,.02,0,.63-.26,1.78-.03,1.66.82-1.27.07-2.14,1.14-2.3,2.36-.26,1.95,1.02,3.66,2.86,4.19-.3-.46-.49-.99-.66-1.51,0-.45.05-.89.12-1.33.01-.53-.11-.76-.56-1.03-.03-.07-.02-.13.02-.18.25-.38,1.15-.33,1.45,0,.09-.47.83-1.44,1.33-1.42.34.02.49.65.49.95.28-.03.55-.1.81-.2.32-.29.42-.09.43.27.02.63-.5,1.09-.99,1.4.45.04.97.54.57.93-.73.07-1.4.45-1.4,1.26,0,1.05.82,1.76,1.75,2.05.24.08.35.09.35-.21-.24-.59-.3-.89.47-.76.5-.24.57-.94.45-1.44.04-.21.27-.11.41-.03.73.44.57,1.71.14,2.32-.25.69.86,2.12,1.04,2.29Z" style="fill:#174932;"/><path d="M34.24,13.79l-.22.12c1.59.19,2.39,2.37.89,3.24-.17.1-.51.21-.52-.06.17-.28.24-.63.04-.9-.14.28-.42.5-.74.51-.06,0-.12,0-.18-.01-.31-.06-.26-.21-.11-.41.25-1.1-1.14-.98-1.86-.77-.17.05-1.93.76-1.99.85l.87.1c.43.21.78.27,1.17-.07.22-.38.49-.25.58.13.13.58-.27,1.04-.74,1.23.07.15.77.75.93.84.32.2.64.24,1,.11.05-.03.1-.05.14-.07.26-.12.36-.12.33.29-.01.15-.06.29-.14.41-.35.57-1.25.84-1.86.65-.06.98-.96,1.87-1.96,1.82-.18,0-.53-.12-.43-.32.32-.21.48-.52.48-.9-.5.25-1.46-.02-1.51-.65-.02-.33.09-.31.36-.2.87.04.95-.98.41-1.52-1.03-1.04-2.84-.37-3.94.19-.51.26-2.05,1.47-2.59,1.71-.6-.13-.98-.35-1.4-.57.09-.18.49-1.66.12-2.19-.33-.46-.37-1.79.22-2.05.12-.05.24-.1.29.06-.1.57.14,1.13.64,1.41.35-.15.56-.11.62.12-.29.87-.05,1.08.78.48,1.13-.81,1.64-2.47.05-2.99-1.04.03-.76-.77-.08-1.06-.53-.26-1.14-.65-1.16-1.3-.01-.41.06-.5.45-.27.24.09.59.12.82.06,0-.23.03-.47.12-.68.14-.29.16-.29.47-.22.58.14,1.04.68,1.23,1.23.38-.37,1.25-.58,1.5,0-.34.3-.5.66-.43,1.11.36,1.01.22,1.94-.24,2.87,1.89-.8,3.1-2.96,2.22-4.96-.43-.98-1.26-1.62-2.35-1.62-.13-.8.91-1.18,1.57-.95-.08-.31-.28-.6-.57-.75-.62-.21-1.14-.54-1.55-1-.14-.23-.3-.7-.02-.85.38.14.77.18,1.14.07-.05-.25-.09-.5-.1-.76-.06-.16-.11-.33-.15-.49.66-.26,1.4.2,1.83.7.1-.21.24-.37.4-.49.89.34,1.17,1.53.85,2.38.49-.44,1.29-.76,1.93-.48.15.07.32.15.37.32-.24.22-.43.46-.58.73-.12.36-.29.69-.51,1,.45-.18,1.15-.2,1.3.36-.6.38-1.02.91-1.16,1.62l-.34,1.82c-.12.62-.36,1.23-.66,1.78.62-.31,1.61-.99,1.35-1.78-.32-.4.07-.52.43-.44.24.17.31.1.2-.2-.18-.22-.14-1.43.05-1.53.16-.09.56.17.69.29.25-.36.34-.82.25-1.28,0-.08.04-.09.11-.1.26-.03.59.24.87.59.32.41.56.94.53,1.25.31-.32.57-.54.91-.12.1.12.15.27.17.43.36-.24.56-.24.65.24.19,1.1-1.41,1.79-2.26,1.96Z" style="fill:#174932;"/><path d="M11.16,14.24s0,0,0,0c0,0,0,0,0,0Z" style="fill:#fff;"/><path d="M24.1,11.54s0,0,0,.01c0,0,0,0,0-.01Z" style="fill:#fff;"/><path d="M17.55,17.24c-.07.22-.27,1.05.12.53.04.34.11.61.27.87-.58.05.18,0,.39.18,0,0-.64.41-.64.41-.08-.17-.43-.35-.12-.44-.03-.03-.83-.64-.62-.32.69.83-.88-.39-1.14-.49-.29-.21.35,0-.26-.29.19.6-1.15-.56-1.34-.77-.71-.75-.83-1.75-.55-2.71-.32.2-.06-.44,0-.57.33-.53.54-1.06.56-1.71l-.27.74c-.25-.47.1-.85.11-1.29.76-.77.88.12.66.83.48-.37.92-.25,1.44-.51-.08.22-.11.64-.37.73-.15.05-.49.39-.54.07-.1-.17-.9.31-.93,1.11.08,0,.39-.34.29-.07.51-.19,1.15-.21,1.26.39-.45-.24-1.06-.32-1.44,0,2.08-.48-2.23,1.38,1.04,3.46.7.53,2.13.47,1.25-.67.81.18,1.29-.74,1.1-1.52.79.66.08,1.39-.28,2.05Z" style="fill:#8eaf3e;"/><path d="M21.81,17.14c-.27-.51-.64-.93-.1-1.59-.09.73.4,1.77,1.22,1.37-.69,1.7,1.34,1,1.88.1.83-.88.71-2.49-.56-2.91.49-.15-.41-.26-.65-.05.09-.64.88-.55,1.33-.35-.35-.82-.72-.73-1.65-1.18-.84-.84.54-.51,1.18-.24-.27-.39-.25-1.45.31-1.03.6.12.62,1.88.24.68,0,0,.05.5.05.5-.07.29.36.79.52,1,.71,1.13.23.65.42,1.88.21,2.5-4.6,3.97-3.3,3.82.15.31-.46.34-.6.05.59-.73.21-1.55-.31-2.03Z" style="fill:#8eaf3e;"/><path d="M9.56,15.66c-.58-.56-1.18-.67-1.86-1.21-.46-.5-.41-2.12-.82-.51-.54-.73.12-1.61-.31-2.36-1.26,1.89-.95-2.75-1.55-.13-.93,4.02,3.75,2.32.37,4.35-.35.21.75-.3,1.16-.33.95-.06,2.11.02,3.01.2Z" style="fill:#8eaf3e;"/><path d="M30.15,15.1c.46-.66,1.16-.66,1.72-1.32.36-.58-.01-2.16.71-.66.39-.82-.43-1.56-.16-2.38,1.6,1.61.76-2.66,1.5-.43,1.29,3.92-3.23,3,.48,4.34.39.14-.8-.15-1.2-.09-.94.12-2.2.2-3.05.55Z" style="fill:#8eaf3e;"/><path d="M3.94,13.09c-.3-.05-.45.27-.76.18-.59-.36-.24-.32.23-.3-.14-.63.39-.83.7-.31-.13.1-.27.25-.17.43Z" style="fill:#8eaf3e;"/><path d="M35.08,11.96c.3-.05.45.27.76.18.59-.36.24-.32-.23-.3.14-.63-.39-.83-.7-.31.13.1.27.25.17.43Z" style="fill:#8eaf3e;"/><path d="M18.09,19.56l-.25.25-.14-.12c.11-.16.23-.23.4-.29l.07-.03s.01-.08,0-.08c-.02,0-.1,0-.12.02-.13.12-.34.21-.47.02.49-.44.85-.37.79-.29l-.12.14c.21.08.4.1.49.37l-.42.19-.24-.19Z" style="fill:#8eaf3e;"/><path d="M10.51,15.76c.64.55,1.32.97,2.09,1.17-.34-.23-.85-.3-1.07-.66,1.29.41-.89-.88-1.1-1.37-1.46-1.67-.92-5.24,1.6-5.47-.38-.66-1.28-.55-1.81-.06.02-.3-.14-1-.43-.56.22-1.11,1.1-1.73,1.9-1.86-.46.48.39.15.61.02-.11-.04.15-.54.17-.62-.6.24-1.07.05-1.66.34,1.13-1.7-.52-1.87-1.04-.24-.1-.32-.33-.54-.53-.78-.23.11-.23,1.46-.03.94.24.46.13,1.02.69.37-.37.69-.6,1.47-.74,2.24-.08-.17-.35-.05-.37-.27.99-.61-1.46-1.73-2.13-1.06,1.79.18,2.08,2.81,2.34,1.57-.67,2.02-.14,4.82,1.5,6.32Z" style="fill:#8eaf3e;"/><path d="M28.92,15.41c-.78.85-2.8,2.07-.96.61-1.24.53.8-.97.96-1.47,1.29-1.81.4-5.31-2.14-5.29.31-.7,1.21-.67,1.8-.24-.05-.3.04-1.01.37-.6-.33-1.08-1.27-1.61-2.07-1.66.51.43-.37.19-.61.08.11-.05-.2-.52-.23-.6.63.18,1.07-.06,1.69.17-1.29-1.58.33-1.91,1.01-.35.06-.33.27-.57.45-.83.24.09.37,1.43.12.93-.19.48-.02,1.03-.65.43.44.65.74,1.4.96,2.16.07-.18.34-.08.34-.31-1.05-.51,1.28-1.87,2.01-1.27-4.09,2.16.16,4.85-3.04,8.24Z" style="fill:#8eaf3e;"/><path d="M2.76,13s-.06-.03-.1-.04c.04.01.07.03.1.04Z" style="fill:#9b7f42;"/><path d="M27.07,29.35s0,.02-.01.03c0,.01-.02.03-.03.04.01-.01.03-.03.03-.04,0,0,0-.02.01-.03Z" style="fill:#113e28;"/><path d="M27.05,29.38s0-.02.01-.03c0,0,0,.02-.01.03,0,.01-.02.03-.03.04.01-.01.03-.03.03-.04Z" style="fill:none;"/><path d="M8.26,19.03l-.25.31c-.17.21-.43.44-.68.55-.36.15-.82.06-1-.28.75.25,1.31-.16,1.87-.68.03-.03.1.07.07.1Z" style="fill:#8eaf3e;"/><path d="M31.66,18.59l.3.25c.21.18.5.36.77.42.38.08.81-.09.93-.47-.69.38-1.31.08-1.96-.32-.03-.02-.08.09-.05.11Z" style="fill:#8eaf3e;"/><path d="M29.74,18.18l.05,1.17c0,.2-.11.5-.29.56l-.63.06s.12.49.92.28c0,0,.66-.1.31.76,0,0-.43.75.16.45,0,0,1.34-.58,1.23-1.55s-.67-1.79-.67-1.79c0,0,.18,1.11-1.08.08Z" style="fill:#8eaf3e;"/><path d="M10.14,18.59l-.02,1.17c0,.2.12.49.31.55l.63.04s-.11.49-.91.3c0,0-.66-.08-.29.77,0,0,.44.74-.15.45,0,0-1.36-.54-1.27-1.52s.62-1.81.62-1.81c0,0-.15,1.12,1.08.05Z" style="fill:#8eaf3e;"/></g></svg>